<svg width="318" height="453" viewBox="0 0 318 453" fill="none" xmlns="http://www.w3.org/2000/svg">
<rect width="318" height="453" fill="#E5E5E5"/>
<g id="Carta amarilla">
<g id="Group 96">
<rect id="Rectangle 109" width="317.67" height="453" rx="10" fill="#DA8D24"/>
<g id="Group 39">
<g id="Group 38" >
<g id="Vector 30" >
<path d="M224.536 219.464C164.546 157.039 120.276 192.277 100.137 219.557C98.932 221.189 98.9995 223.463 100.25 225.061C145.623 283.04 201.206 255.271 224.903 225.397C226.297 223.639 226.091 221.081 224.536 219.464Z" fill="white"/>
<path d="M224.536 219.464C164.546 157.039 120.276 192.277 100.137 219.557C98.932 221.189 98.9995 223.463 100.25 225.061C145.623 283.04 201.206 255.271 224.903 225.397C226.297 223.639 226.091 221.081 224.536 219.464Z" stroke="#15263D" stroke-width="3"/>
</g>
<path id="Ellipse 23" d="M162.554 208.04C162.554 213.358 158.242 217.67 152.924 217.67C147.605 217.67 143.294 213.358 143.294 208.04C143.294 202.721 147.605 198.41 152.924 198.41C158.242 198.41 162.554 202.721 162.554 208.04Z" fill="#FFFEF5"/>
</g>
<g id="Group">
<g id="B" >
<path d="M112.806 171.635L112.725 170.552L114.853 169.871L113.855 156.587L111.649 156.232L111.567 155.148L118.327 154.64C122.158 154.352 124.174 155.543 124.375 158.212C124.44 159.076 124.237 159.849 123.768 160.532C123.313 161.213 122.657 161.729 121.799 162.077L121.803 162.124C123.108 162.263 124.133 162.668 124.878 163.338C125.639 164.007 126.06 164.884 126.142 165.967C126.248 167.38 125.807 168.55 124.819 169.477C123.829 170.389 122.439 170.911 120.649 171.046L112.806 171.635ZM117.762 169.818L119.811 169.664C120.958 169.578 121.824 169.236 122.411 168.64C122.998 168.043 123.252 167.226 123.174 166.19C123.102 165.232 122.715 164.488 122.012 163.956C121.324 163.424 120.392 163.202 119.214 163.29L117.283 163.435L117.762 169.818ZM117.171 161.951L118.514 161.85C119.424 161.782 120.151 161.467 120.693 160.905C121.249 160.326 121.493 159.574 121.423 158.647C121.352 157.705 121.001 157.029 120.371 156.618C119.755 156.207 118.945 156.039 117.94 156.114L116.739 156.204L117.171 161.951Z" fill="#15263D"/>
</g>
<g id="O" >
<path d="M147.9 152.753C149.175 152.721 150.306 152.904 151.293 153.304C152.28 153.705 153.121 154.274 153.817 155.012C154.514 155.75 155.048 156.642 155.422 157.688C155.795 158.734 155.998 159.886 156.03 161.146C156.062 162.421 155.919 163.59 155.6 164.653C155.296 165.717 154.816 166.642 154.159 167.431C153.517 168.204 152.706 168.815 151.725 169.265C150.76 169.715 149.632 169.957 148.341 169.99C146.971 170.025 145.777 169.827 144.758 169.396C143.755 168.965 142.92 168.372 142.255 167.617C141.59 166.847 141.086 165.938 140.744 164.892C140.418 163.845 140.24 162.715 140.209 161.503C140.179 160.322 140.308 159.217 140.597 158.185C140.885 157.138 141.342 156.221 141.967 155.433C142.593 154.63 143.395 153.995 144.376 153.529C145.372 153.046 146.546 152.788 147.9 152.753ZM147.936 154.146C146.33 154.187 145.128 154.896 144.328 156.271C143.544 157.63 143.179 159.372 143.233 161.497C143.29 163.748 143.769 165.507 144.667 166.776C145.582 168.028 146.794 168.635 148.305 168.597C149.816 168.558 150.989 167.89 151.822 166.593C152.67 165.28 153.066 163.498 153.008 161.247C152.954 159.122 152.492 157.401 151.624 156.084C150.771 154.751 149.541 154.105 147.936 154.146Z" fill="#15263D"/>
</g>
<g id="G" >
<path d="M170.089 161.146C170.155 158.407 170.969 156.308 172.531 154.848C174.11 153.374 176.34 152.671 179.221 152.74C181.047 152.784 182.567 153.088 183.782 153.652L183.675 158.139L182.589 158.113L181.563 154.568C180.779 154.423 180.119 154.344 179.584 154.332C177.569 154.284 175.989 154.844 174.842 156.014C173.712 157.184 173.119 158.918 173.064 161.217C173.009 163.531 173.471 165.298 174.45 166.518C175.429 167.723 176.871 168.348 178.776 168.394C179.469 168.41 180.092 168.37 180.645 168.273L180.763 163.338L178.083 162.778L178.103 161.951L185.446 162.126L185.427 162.953L183.667 163.407L183.536 168.932C182.069 169.669 180.368 170.014 178.431 169.968C175.661 169.902 173.561 169.104 172.133 167.573C170.705 166.043 170.023 163.9 170.089 161.146Z" fill="#15263D"/>
</g>
<g id="O_2">
<path d="M206.512 154.081C207.784 154.174 208.892 154.468 209.834 154.964C210.777 155.459 211.558 156.109 212.178 156.912C212.798 157.716 213.242 158.656 213.51 159.734C213.778 160.811 213.866 161.978 213.774 163.234C213.681 164.506 213.423 165.656 213 166.683C212.593 167.711 212.023 168.584 211.292 169.304C210.577 170.01 209.709 170.538 208.688 170.889C207.684 171.242 206.537 171.371 205.25 171.276C203.883 171.176 202.715 170.861 201.743 170.332C200.787 169.804 200.015 169.132 199.428 168.315C198.842 167.482 198.43 166.529 198.193 165.453C197.972 164.379 197.906 163.238 197.995 162.028C198.081 160.851 198.319 159.763 198.708 158.765C199.098 157.752 199.644 156.884 200.344 156.162C201.046 155.424 201.907 154.871 202.929 154.504C203.967 154.123 205.162 153.981 206.512 154.081ZM206.41 155.47C204.808 155.353 203.542 155.939 202.61 157.228C201.696 158.503 201.161 160.2 201.005 162.32C200.84 164.566 201.142 166.364 201.911 167.716C202.697 169.052 203.844 169.776 205.352 169.887C206.859 169.997 208.092 169.448 209.049 168.24C210.023 167.017 210.592 165.282 210.757 163.036C210.913 160.916 210.623 159.158 209.889 157.763C209.172 156.352 208.012 155.588 206.41 155.47Z" fill="#15263D"/>
</g>
</g>
<g id="Group_2">
<g id="T" >
<path d="M106.993 273.994L107.521 269.014L121.497 270.497L120.969 275.476L119.865 275.359L119.169 271.841L115.807 271.294L114.379 284.753L116.485 285.499L116.371 286.579L109.16 285.814L109.275 284.734L111.49 284.446L112.918 270.988L109.492 270.815L108.097 274.111L106.993 273.994Z" fill="#15263D"/>
</g>
<g id="A" >
<path d="M130.356 287.846L130.415 286.761L132.661 286.363L139.214 271.654L140.912 271.747L145.465 287.088L147.608 287.703L147.549 288.787L140.615 288.408L140.674 287.323L142.442 287.017L141.484 283.772L135.706 283.455L134.309 286.501L136.359 287.086L136.299 288.171L130.356 287.846ZM136.301 282.092L141.041 282.352L139.083 275.787L136.301 282.092Z" fill="#15263D"/>
</g>
<g id="R" >
<path d="M159.211 289.109L159.213 288.023L161.387 287.507L161.412 274.186L159.24 273.662L159.242 272.576L165.926 272.588C166.777 272.59 167.556 272.662 168.264 272.805C168.973 272.933 169.657 273.162 170.318 273.494C170.994 273.81 171.521 274.292 171.898 274.938C172.29 275.568 172.486 276.333 172.484 277.23C172.48 279.324 171.391 280.739 169.216 281.475L172.488 287.552L174.566 288.075L174.564 289.138L170.265 289.13L166.381 281.824L164.303 281.82L164.292 287.513L166.464 288.036L166.462 289.123L159.211 289.109ZM164.306 280.403L165.676 280.406C166.825 280.408 167.747 280.126 168.441 279.561C169.15 278.995 169.506 278.201 169.508 277.177C169.51 276.169 169.165 275.405 168.473 274.884C167.781 274.347 166.853 274.078 165.687 274.076L164.318 274.073L164.306 280.403Z" fill="#15263D"/>
</g>
<g id="O_3" >
<path d="M193.997 271.57C195.271 271.502 196.406 271.655 197.404 272.028C198.401 272.401 199.258 272.947 199.974 273.666C200.69 274.385 201.249 275.262 201.65 276.298C202.052 277.333 202.286 278.479 202.353 279.737C202.42 281.011 202.309 282.184 202.018 283.256C201.744 284.327 201.289 285.265 200.653 286.071C200.033 286.861 199.239 287.494 198.27 287.971C197.318 288.447 196.197 288.72 194.908 288.788C193.54 288.86 192.34 288.695 191.31 288.292C190.295 287.888 189.445 287.318 188.76 286.582C188.073 285.83 187.545 284.935 187.175 283.899C186.82 282.861 186.611 281.737 186.547 280.526C186.485 279.346 186.584 278.237 186.844 277.199C187.104 276.144 187.536 275.215 188.14 274.41C188.743 273.59 189.528 272.933 190.495 272.441C191.478 271.932 192.645 271.641 193.997 271.57ZM194.071 272.961C192.467 273.046 191.284 273.787 190.522 275.183C189.775 276.563 189.458 278.314 189.57 280.437C189.689 282.685 190.215 284.432 191.148 285.675C192.096 286.902 193.325 287.476 194.834 287.396C196.344 287.316 197.497 286.617 198.295 285.297C199.107 283.961 199.454 282.169 199.335 279.921C199.223 277.798 198.714 276.09 197.81 274.798C196.921 273.489 195.675 272.876 194.071 272.961Z" fill="#15263D"/>
</g>
<g id="T_2">
<path d="M214.791 275.505L214.263 270.526L228.238 269.044L228.766 274.023L227.662 274.14L226.244 270.847L222.842 271.017L224.269 284.476L226.485 284.763L226.599 285.844L219.389 286.609L219.274 285.528L221.38 284.782L219.953 271.324L216.567 271.873L215.895 275.388L214.791 275.505Z" fill="#15263D"/>
</g>
</g>
</g>
</g>
<path id="Ellipse 22" d="M179.52 220.011C179.52 230.648 170.897 239.271 160.26 239.271C149.623 239.271 141 230.648 141 220.011C141 209.374 149.623 200.751 160.26 200.751C170.897 200.751 179.52 209.374 179.52 220.011Z" fill="#15263D"/>
<path id="Ellipse 23_2" d="M160.26 207.63C160.26 212.948 155.948 217.26 150.63 217.26C145.311 217.26 141 212.948 141 207.63C141 202.311 145.311 198 150.63 198C155.948 198 160.26 202.311 160.26 207.63Z" fill="#FFFEF5"/>
<g id="Group 51">
<rect id="Rectangle 108" x="9" y="444.233" width="436.233" height="299.124" rx="9" transform="rotate(-90 9 444.233)" stroke="#15263D" stroke-width="2"/>
<g id="Group 44">
<path id="Vector 43" d="M8.43848 60.4716C27.7212 61.9946 66.2868 53.6379 66.2868 8.02669" stroke="#15263D" stroke-width="2"/>
<path id="Vector 47" d="M8.43848 50.1745C23.9231 51.3937 54.8924 44.704 54.8924 8.19189" stroke="#15263D" stroke-width="2"/>
<path id="Vector 48" d="M8.43848 38.6887C19.6868 39.5744 42.1833 34.7149 42.1833 8.19196" stroke="#15263D" stroke-width="2"/>
<path id="Vector 49" d="M8.43848 29.1831C16.1808 29.7927 31.6655 26.4479 31.6655 8.19181" stroke="#15263D" stroke-width="2"/>
<path id="Vector 50" d="M8.43848 18.8856C12.3827 19.1962 20.2711 17.4922 20.2711 8.19195" stroke="#15263D" stroke-width="2"/>
</g>
<g id="Group 46">
<path id="Vector 43_2" d="M308.727 391.596C289.444 390.073 250.878 398.43 250.878 444.041" stroke="#15263D" stroke-width="2"/>
<path id="Vector 47_2" d="M308.727 401.893C293.242 400.674 262.273 407.363 262.273 443.875" stroke="#15263D" stroke-width="2"/>
<path id="Vector 48_2" d="M308.727 413.379C297.478 412.493 274.982 417.352 274.982 443.875" stroke="#15263D" stroke-width="2"/>
<path id="Vector 49_2" d="M308.727 422.884C300.984 422.274 285.5 425.619 285.5 443.875" stroke="#15263D" stroke-width="2"/>
<path id="Vector 50_2" d="M308.727 433.182C304.782 432.871 296.894 434.575 296.894 443.875" stroke="#15263D" stroke-width="2"/>
</g>
<g id="Group 45">
<path id="Vector 43_3" d="M66.1957 444.041C67.8756 426.559 58.6579 391.596 8.34737 391.596" stroke="#15263D" stroke-width="2"/>
<path id="Vector 47_3" d="M54.8375 444.041C56.1823 430.002 48.8034 401.926 8.52944 401.926" stroke="#15263D" stroke-width="2"/>
<path id="Vector 48_3" d="M42.1684 444.041C43.1453 433.843 37.7852 413.448 8.52956 413.448" stroke="#15263D" stroke-width="2"/>
<path id="Vector 49_3" d="M31.6839 444.041C32.3563 437.022 28.6669 422.983 8.52986 422.983" stroke="#15263D" stroke-width="2"/>
<path id="Vector 50_3" d="M20.3251 444.041C20.6677 440.465 18.7882 433.313 8.52969 433.313" stroke="#15263D" stroke-width="2"/>
</g>
<g id="Group 47">
<path id="Vector 43_4" d="M250.97 8.0265C249.29 25.5081 258.508 60.4714 308.819 60.4714" stroke="#15263D" stroke-width="2"/>
<path id="Vector 47_4" d="M262.328 8.02655C260.984 22.0648 268.363 50.1414 308.637 50.1414" stroke="#15263D" stroke-width="2"/>
<path id="Vector 48_4" d="M274.998 8.02655C274.021 18.2242 279.381 38.6194 308.636 38.6194" stroke="#15263D" stroke-width="2"/>
<path id="Vector 49_4" d="M285.482 8.02655C284.81 15.0457 288.499 29.084 308.636 29.084" stroke="#15263D" stroke-width="2"/>
<path id="Vector 50_4" d="M296.841 8.02655C296.498 11.6023 298.378 18.7539 308.636 18.7539" stroke="#15263D" stroke-width="2"/>
</g>
<path id="Vector 51" d="M67.4326 436.851L251.013 436.851" stroke="#15263D"/>
<path id="Vector 52" d="M67.4326 15.3814L251.013 15.3814" stroke="#15263D"/>
</g>
</g>
</svg>
