<svg width="170" height="242" viewBox="0 0 170 242" fill="none" xmlns="http://www.w3.org/2000/svg">
<rect width="169.704" height="242" rx="10" fill="#15263D"/>
<g style="mix-blend-mode:difference">
<g style="mix-blend-mode:exclusion">
<path d="M119.951 117.241C87.9031 83.8929 64.2536 102.718 53.495 117.291C52.8511 118.163 52.8872 119.378 53.5552 120.231C77.7941 151.204 107.487 136.37 120.147 120.411C120.892 119.472 120.781 118.105 119.951 117.241Z" fill="white"/>
<path d="M119.951 117.241C87.9031 83.8929 64.2536 102.718 53.495 117.291C52.8511 118.163 52.8872 119.378 53.5552 120.231C77.7941 151.204 107.487 136.37 120.147 120.411C120.892 119.472 120.781 118.105 119.951 117.241Z" stroke="#DA8D24" stroke-width="3"/>
</g>
<path d="M97.1276 117.753C97.1276 123.435 92.5211 128.041 86.8387 128.041C81.1563 128.041 76.5498 123.435 76.5498 117.753C76.5498 112.07 81.1563 107.464 86.8387 107.464C92.5211 107.464 97.1276 112.07 97.1276 117.753Z" fill="#15263D"/>
<path d="M86.8387 111.138C86.8387 113.979 84.5355 116.283 81.6943 116.283C78.8531 116.283 76.5498 113.979 76.5498 111.138C76.5498 108.297 78.8531 105.994 81.6943 105.994C84.5355 105.994 86.8387 108.297 86.8387 111.138Z" fill="#FFFEF5"/>
</g>
<g style="mix-blend-mode:exclusion">
<path d="M60.2629 91.6904L60.2194 91.1116L61.3562 90.7478L60.8229 83.6513L59.6446 83.4615L59.6011 82.8827L63.2122 82.6113C65.259 82.4576 66.3359 83.0937 66.443 84.5197C66.4777 84.981 66.3696 85.3941 66.1186 85.7588C65.876 86.1229 65.5255 86.398 65.0671 86.5843L65.069 86.6095C65.7663 86.6836 66.314 86.8998 66.7121 87.2579C67.1185 87.6154 67.3435 88.0835 67.387 88.6623C67.4437 89.4173 67.2081 90.0423 66.6801 90.5375C66.1515 91.0243 65.4091 91.3037 64.4528 91.3755L60.2629 91.6904ZM62.9104 90.7196L64.0051 90.6373C64.6174 90.5913 65.0803 90.4089 65.3938 90.0901C65.7073 89.7713 65.8432 89.3351 65.8016 88.7814C65.7632 88.2698 65.5561 87.872 65.1805 87.5881C64.8133 87.3036 64.3151 87.1849 63.686 87.2322L62.6542 87.3097L62.9104 90.7196ZM62.5946 86.517L63.3118 86.4632C63.7984 86.4266 64.1864 86.2583 64.476 85.9581C64.7733 85.649 64.9034 85.2469 64.8662 84.752C64.8284 84.2487 64.6409 83.8874 64.3039 83.6681C63.9753 83.4482 63.5425 83.3584 63.0057 83.3987L62.364 83.4469L62.5946 86.517Z" fill="#DA8D24"/>
</g>
<g style="mix-blend-mode:exclusion">
<path d="M79.0105 81.6034C79.6917 81.5859 80.2958 81.6841 80.823 81.8978C81.3502 82.1115 81.7997 82.4156 82.1716 82.81C82.5435 83.2044 82.8292 83.6809 83.0286 84.2396C83.228 84.7983 83.3363 85.414 83.3535 86.0867C83.3709 86.7678 83.2944 87.3925 83.1238 87.9606C82.9616 88.5286 82.705 89.0232 82.3539 89.4445C82.011 89.8571 81.5776 90.1838 81.0537 90.4244C80.5381 90.6647 79.9355 90.7937 79.246 90.8114C78.5144 90.8301 77.8764 90.7244 77.332 90.4943C76.796 90.264 76.3503 89.9472 75.995 89.544C75.6395 89.1323 75.3704 88.647 75.1878 88.0878C75.0136 87.5285 74.9182 86.9251 74.9017 86.2776C74.8856 85.6469 74.9546 85.0561 75.1088 84.5052C75.2628 83.9459 75.5069 83.4558 75.8411 83.035C76.1752 82.6057 76.6041 82.2666 77.1278 82.0175C77.6598 81.7599 78.2873 81.6219 79.0105 81.6034ZM79.0295 82.3476C78.1718 82.3695 77.5293 82.7478 77.1022 83.4824C76.6832 84.2083 76.4882 85.1389 76.5172 86.2741C76.548 87.4767 76.8034 88.4168 77.2835 89.0945C77.7719 89.7636 78.4197 90.0878 79.227 90.0672C80.0342 90.0465 80.6604 89.6897 81.1055 88.9968C81.5588 88.2952 81.77 87.3431 81.7393 86.1406C81.7103 85.0054 81.4638 84.0861 80.9998 83.3827C80.544 82.6707 79.8873 82.3256 79.0295 82.3476Z" fill="#DA8D24"/>
</g>
<g style="mix-blend-mode:exclusion">
<path d="M90.8645 86.0866C90.8994 84.6234 91.3343 83.502 92.169 82.7226C93.0124 81.935 94.2036 81.5595 95.7426 81.5962C96.7181 81.6195 97.5304 81.7819 98.1795 82.0835L98.1223 84.4802L97.542 84.4664L96.994 82.5727C96.5751 82.4954 96.2227 82.4533 95.9368 82.4465C94.8604 82.4208 94.016 82.7204 93.4037 83.3453C92.7998 83.9703 92.4832 84.8968 92.4539 86.1246C92.4244 87.3608 92.6711 88.3048 93.194 88.9568C93.7172 89.6004 94.4875 89.9343 95.5051 89.9586C95.8751 89.9674 96.208 89.9459 96.5037 89.8941L96.5667 87.2577L95.135 86.9585L95.1455 86.517L99.0685 86.6106L99.058 87.0521L98.1182 87.2947L98.0478 90.2465C97.2642 90.6401 96.3553 90.8245 95.3209 90.7998C93.8409 90.7645 92.7193 90.338 91.9563 89.5205C91.1933 88.7029 90.8293 87.5583 90.8645 86.0866Z" fill="#DA8D24"/>
</g>
<g style="mix-blend-mode:exclusion">
<path d="M110.322 82.3123C111.002 82.3622 111.593 82.5195 112.097 82.7842C112.6 83.049 113.017 83.3959 113.349 83.8251C113.68 84.2542 113.917 84.7566 114.06 85.3323C114.204 85.9079 114.251 86.5313 114.201 87.2025C114.151 87.882 114.014 88.496 113.788 89.0446C113.57 89.5937 113.266 90.0606 112.875 90.4452C112.493 90.822 112.03 91.1042 111.485 91.2919C110.948 91.4803 110.335 91.5492 109.648 91.4987C108.918 91.4451 108.293 91.2769 107.774 90.9942C107.264 90.7121 106.851 90.3529 106.538 89.9165C106.224 89.4718 106.005 88.9623 105.878 88.3879C105.76 87.8141 105.725 87.2042 105.772 86.5582C105.818 85.929 105.945 85.3479 106.153 84.8149C106.361 84.2736 106.653 83.81 107.027 83.4241C107.402 83.0299 107.862 82.7348 108.408 82.5387C108.962 82.3348 109.601 82.2594 110.322 82.3123ZM110.268 83.0548C109.412 82.992 108.735 83.305 108.238 83.9938C107.749 84.6749 107.463 85.5817 107.38 86.7142C107.292 87.9139 107.453 88.8746 107.864 89.5964C108.284 90.3105 108.897 90.6971 109.702 90.7562C110.507 90.8153 111.166 90.5221 111.677 89.8764C112.197 89.223 112.502 88.2964 112.59 87.0968C112.673 85.9642 112.518 85.0251 112.126 84.2793C111.743 83.5258 111.123 83.1176 110.268 83.0548Z" fill="#DA8D24"/>
</g>
<g style="mix-blend-mode:exclusion">
<path d="M57.1569 146.372L57.439 143.712L64.9047 144.504L64.6226 147.164L64.0329 147.101L63.6612 145.222L61.865 144.93L61.1025 152.12L62.2276 152.518L62.1664 153.095L58.3143 152.687L58.3755 152.11L59.5592 151.956L60.3217 144.766L58.4916 144.674L57.7466 146.435L57.1569 146.372Z" fill="#DA8D24"/>
</g>
<g style="mix-blend-mode:exclusion">
<path d="M69.6378 153.772L69.6695 153.192L70.869 152.98L74.3701 145.122L75.2772 145.172L77.7095 153.367L78.8542 153.695L78.8224 154.275L75.1183 154.072L75.1501 153.493L76.0941 153.329L75.5825 151.595L72.4958 151.426L71.7495 153.054L72.8445 153.366L72.8127 153.946L69.6378 153.772ZM72.8137 150.698L75.3461 150.837L74.2998 147.33L72.8137 150.698Z" fill="#DA8D24"/>
</g>
<g style="mix-blend-mode:exclusion">
<path d="M85.0529 154.447L85.054 153.866L86.2154 153.591L86.2288 146.475L85.0685 146.195L85.0696 145.614L88.6404 145.621C89.0947 145.622 89.511 145.661 89.8894 145.737C90.2678 145.805 90.6335 145.928 90.9864 146.105C91.3478 146.274 91.6291 146.531 91.8304 146.876C92.04 147.213 92.1444 147.621 92.1435 148.101C92.1414 149.22 91.5596 149.976 90.398 150.369L92.1457 153.615L93.2556 153.895L93.2545 154.462L90.9581 154.458L88.8835 150.555L87.7731 150.553L87.7674 153.594L88.9277 153.874L88.9266 154.454L85.0529 154.447ZM87.7745 149.796L88.5064 149.797C89.1204 149.799 89.6128 149.648 89.9835 149.346C90.3626 149.044 90.5527 148.619 90.5537 148.073C90.5547 147.534 90.3704 147.126 90.0008 146.848C89.6313 146.561 89.1352 146.417 88.5127 146.416L87.7809 146.414L87.7745 149.796Z" fill="#DA8D24"/>
</g>
<g style="mix-blend-mode:exclusion">
<path d="M103.636 145.077C104.317 145.041 104.923 145.123 105.456 145.322C105.989 145.521 106.447 145.813 106.829 146.197C107.212 146.581 107.51 147.05 107.725 147.603C107.939 148.156 108.064 148.768 108.1 149.44C108.136 150.121 108.076 150.747 107.921 151.32C107.775 151.892 107.532 152.393 107.192 152.824C106.861 153.246 106.436 153.584 105.919 153.839C105.41 154.093 104.812 154.239 104.123 154.275C103.392 154.314 102.751 154.226 102.201 154.01C101.659 153.795 101.205 153.49 100.838 153.097C100.472 152.695 100.19 152.217 99.9918 151.663C99.8025 151.109 99.6907 150.508 99.6565 149.861C99.6232 149.231 99.6761 148.639 99.8152 148.084C99.9539 147.521 100.185 147.024 100.507 146.594C100.829 146.156 101.249 145.806 101.766 145.542C102.29 145.27 102.914 145.115 103.636 145.077ZM103.676 145.82C102.819 145.866 102.187 146.261 101.78 147.007C101.381 147.744 101.211 148.68 101.271 149.814C101.335 151.015 101.616 151.948 102.114 152.612C102.621 153.268 103.277 153.574 104.083 153.532C104.89 153.489 105.506 153.115 105.932 152.41C106.366 151.697 106.551 150.739 106.488 149.538C106.428 148.404 106.156 147.492 105.673 146.801C105.198 146.102 104.532 145.775 103.676 145.82Z" fill="#DA8D24"/>
</g>
<g style="mix-blend-mode:exclusion">
<path d="M114.744 147.179L114.462 144.519L121.928 143.728L122.21 146.388L121.62 146.45L120.863 144.691L119.045 144.782L119.808 151.972L120.991 152.125L121.053 152.702L117.201 153.111L117.139 152.534L118.264 152.135L117.502 144.946L115.693 145.239L115.334 147.117L114.744 147.179Z" fill="#DA8D24"/>
</g>
<rect x="5.5" y="237.5" width="233" height="160" rx="9.5" transform="rotate(-90 5.5 237.5)" stroke="#DA8D24"/>
<path d="M6 33.017C16.3012 33.8306 36.9035 29.3663 36.9035 5.00004" stroke="#DA8D24"/>
<path d="M6 27.516C14.2722 28.1673 30.8165 24.5936 30.8165 5.08823" stroke="#DA8D24"/>
<path d="M6 21.3802C12.009 21.8533 24.027 19.2573 24.027 5.08831" stroke="#DA8D24"/>
<path d="M6 16.3022C10.1361 16.6279 18.4082 14.841 18.4082 5.0883" stroke="#DA8D24"/>
<path d="M6 10.8011C8.10706 10.967 12.3212 10.0567 12.3212 5.08836" stroke="#DA8D24"/>
<path d="M165 208.993C154.684 208.179 134.053 212.644 134.053 237.01" stroke="#DA8D24"/>
<path d="M165 214.494C156.716 213.842 140.149 217.416 140.149 236.922" stroke="#DA8D24"/>
<path d="M165 220.63C158.983 220.157 146.948 222.753 146.948 236.922" stroke="#DA8D24"/>
<path d="M165 225.708C160.858 225.382 152.574 227.169 152.574 236.921" stroke="#DA8D24"/>
<path d="M165 231.209C162.89 231.043 158.67 231.953 158.67 236.922" stroke="#DA8D24"/>
<path d="M36.9036 237.017C37.8011 227.678 32.8768 209 6.00011 209" stroke="#DA8D24"/>
<path d="M30.8361 237.017C31.5545 229.517 27.6126 214.519 6.0976 214.519" stroke="#DA8D24"/>
<path d="M24.0679 237.017C24.5898 231.569 21.7263 220.674 6.09746 220.674" stroke="#DA8D24"/>
<path d="M18.4669 237.017C18.8261 233.267 16.8551 225.768 6.09763 225.768" stroke="#DA8D24"/>
<path d="M12.3989 237.017C12.5818 235.107 11.5778 231.286 6.09753 231.286" stroke="#DA8D24"/>
<path d="M134.097 5C133.2 14.339 138.124 33.0169 165.001 33.0169" stroke="#DA8D24"/>
<path d="M140.165 5C139.446 12.4995 143.388 27.4984 164.903 27.4984" stroke="#DA8D24"/>
<path d="M146.933 5C146.411 10.4477 149.275 21.3432 164.904 21.3432" stroke="#DA8D24"/>
<path d="M152.534 5C152.175 8.74974 154.146 16.2492 164.904 16.2492" stroke="#DA8D24"/>
<path d="M158.602 5C158.419 6.91024 159.423 10.7307 164.903 10.7307" stroke="#DA8D24"/>
<path d="M37 233H134" stroke="#DA8D24"/>
<path d="M37 8H134" stroke="#DA8D24"/>
</svg>
