<svg width="576" height="586" viewBox="0 0 576 586" fill="none" xmlns="http://www.w3.org/2000/svg">
<circle cx="276" cy="287" r="247" fill="#F8DD74"/>
<path d="M301.03 289C305.017 289 307.79 290.083 309.35 292.25C310.997 294.417 311.82 297.06 311.82 300.18C311.82 303.213 310.997 305.813 309.35 307.98C307.79 310.147 305.017 311.23 301.03 311.23C297.217 311.23 294.443 310.147 292.71 307.98C291.063 305.813 290.24 303.213 290.24 300.18C290.24 297.06 291.063 294.417 292.71 292.25C294.443 290.083 297.217 289 301.03 289ZM248.64 289C252.627 289 255.4 290.083 256.96 292.25C258.607 294.417 259.43 297.06 259.43 300.18C259.43 303.213 258.607 305.813 256.96 307.98C255.4 310.147 252.627 311.23 248.64 311.23C244.827 311.23 242.053 310.147 240.32 307.98C238.673 305.813 237.85 303.213 237.85 300.18C237.85 297.06 238.673 294.417 240.32 292.25C242.053 290.083 244.827 289 248.64 289Z" fill="#0C24FF"/>
<path d="M275.16 370.53C264.673 370.53 254.577 368.97 244.87 365.85C235.25 362.817 226.627 358.007 219 351.42L219 335.69C226.973 341.584 235.813 346.047 245.52 349.08C255.313 352.114 265.237 353.63 275.29 353.63C285.603 353.63 295.657 352.07 305.45 348.95C315.243 345.917 324.213 341.454 332.36 335.56L332.36 351.42C324.473 358.007 315.59 362.817 305.71 365.85C295.917 368.97 285.733 370.53 275.16 370.53Z" fill="#0C24FF"/>
<path d="M106.04 269.621C107.957 268.885 109.658 267.782 111.143 266.312C112.628 264.842 113.848 263.073 114.804 261.006L117.231 262.249C114.482 271.103 109.644 276.86 102.717 279.52C98.753 281.042 94.9466 281.479 91.2983 280.83C87.6936 280.165 84.4579 278.508 81.5913 275.859C78.7248 273.211 76.4467 269.687 74.7571 265.287C73.3017 261.496 72.6154 257.561 72.698 253.48C72.8075 249.339 73.585 245.766 75.0307 242.762C76.7005 240.471 78.6566 238.47 80.899 236.759C83.1683 234.988 85.5445 233.626 88.0277 232.672C91.3387 231.401 94.6425 230.957 97.9391 231.341C101.263 231.664 104.215 232.78 106.798 234.688L101.344 244.505C97.54 241.367 93.1526 238.077 88.1824 234.637C86.5667 236.157 85.3426 238.177 84.5104 240.696C83.6781 243.215 83.3147 245.979 83.4203 248.988C83.5694 251.98 84.196 254.914 85.3001 257.789C87.4079 263.278 90.2588 267.057 93.8527 269.127C97.4902 271.179 101.553 271.344 106.04 269.621Z" fill="#0C24FF"/>
<path d="M137.926 216.717C142.344 215.537 146.428 215.363 150.177 216.197C153.971 217.018 157.215 218.856 159.91 221.71C162.65 224.553 164.665 228.386 165.954 233.21C166.774 236.276 167.082 239.599 166.88 243.179C166.665 246.714 165.858 250.021 164.459 253.1C162.837 255.707 160.797 258.016 158.339 260.025C155.87 261.989 153.057 263.393 149.901 264.237C145.527 265.405 141.444 265.579 137.65 264.757C133.901 263.924 130.656 262.086 127.916 259.244C125.221 256.389 123.229 252.55 121.94 247.726C121.133 244.705 120.853 241.399 121.1 237.806C121.348 234.214 122.171 230.878 123.57 227.799C125.147 225.204 127.148 222.931 129.573 220.978C132.031 218.969 134.815 217.549 137.926 216.717ZM132.712 239.775C134.11 245.005 135.913 249.04 138.121 251.879C140.329 254.719 143.013 256.537 146.172 257.335C149.32 258.088 153.111 257.993 157.544 257.05C157.483 254.651 157.206 251.899 156.715 248.794C156.256 245.632 155.768 243.081 155.249 241.143C153.84 235.868 152.008 231.817 149.755 228.989C147.535 226.105 144.823 224.269 141.618 223.483C138.413 222.698 134.622 222.793 130.246 223.769C130.377 226.246 130.7 229.082 131.216 232.277C131.731 235.472 132.23 237.972 132.712 239.775Z" fill="#0C24FF"/>
<path d="M226.656 246.005L227.021 248.428L210.339 250.941L198.131 233.809L198.317 233.639C197.27 233.891 195.784 234.209 193.86 234.594L196.258 250.514L199.66 250.072L200.025 252.495L181.751 255.248L181.386 252.825L184.768 252.245L178.532 210.852L175.13 211.294L174.765 208.871L188.145 206.997L198.334 204.613C201.656 204.112 204.588 204.307 207.129 205.199C209.709 206.037 211.756 207.404 213.269 209.3C214.82 211.143 215.784 213.31 216.159 215.802C216.59 218.663 216.135 221.28 214.794 223.653C213.452 226.026 211.217 228.109 208.09 229.901L223.254 246.447L226.656 246.005ZM193.453 231.894C197.248 231.086 200.092 229.596 201.982 227.424C203.866 225.205 204.568 222.503 204.089 219.319C203.748 217.058 202.908 215.085 201.569 213.399C200.229 211.713 198.557 210.478 196.551 209.695C194.545 208.912 192.366 208.697 190.012 209.052L193.453 231.894Z" fill="#0C24FF"/>
<path d="M280.884 243.524L280.979 245.972L264.122 246.628L253.879 228.253L254.084 228.105C253.015 228.24 251.503 228.392 249.548 228.561L250.174 244.649L253.604 244.586L253.7 247.034L235.234 247.753L235.138 245.305L238.563 245.101L236.934 203.273L233.504 203.337L233.409 200.888L246.914 200.503L257.304 199.258C260.661 199.127 263.553 199.645 265.981 200.811C268.453 201.929 270.336 203.514 271.63 205.565C272.969 207.568 273.687 209.828 273.785 212.346C273.898 215.237 273.157 217.788 271.561 219.999C269.966 222.209 267.515 224.032 264.209 225.469L277.454 243.587L280.884 243.524ZM249.442 225.834C253.303 225.45 256.293 224.282 258.412 222.332C260.529 220.335 261.525 217.727 261.4 214.51C261.311 212.225 260.694 210.171 259.549 208.347C258.404 206.524 256.878 205.112 254.971 204.112C253.064 203.112 250.921 202.658 248.543 202.751L249.442 225.834Z" fill="#0C24FF"/>
<path d="M325.497 234.702L324.627 248.605L289.206 246.389L289.359 243.944L292.787 244.088L295.4 202.31L291.981 202.026L292.134 199.58L326.158 201.709L325.31 215.262L322.59 215.022L322.668 211.52C317.7 207.983 312.489 204.945 307.037 202.406L305.962 221.837L319.026 222.654L318.864 225.239L305.8 224.422L304.629 245.39C310.733 243.481 316.66 241.046 322.409 238.086L322.768 234.601L325.497 234.702Z" fill="#0C24FF"/>
<path d="M361.667 246.902C363.694 247.225 365.719 247.121 367.741 246.592C369.762 246.063 371.704 245.143 373.566 243.833L375.045 246.124C368.233 252.412 361.163 254.973 353.835 253.808C349.641 253.141 346.127 251.613 343.294 249.225C340.506 246.845 338.535 243.791 337.379 240.063C336.224 236.335 336.016 232.144 336.756 227.489C337.394 223.479 338.77 219.729 340.885 216.238C343.053 212.708 345.515 210.004 348.27 208.127C350.863 206.98 353.558 206.227 356.355 205.869C359.206 205.472 361.945 205.482 364.572 205.9C368.075 206.457 371.157 207.727 373.819 209.709C376.534 211.653 378.531 214.097 379.812 217.041L370.176 222.81C368.454 218.188 366.303 213.145 363.722 207.678C361.563 208.185 359.492 209.321 357.51 211.085C355.529 212.849 353.83 215.06 352.415 217.717C351.047 220.382 350.12 223.235 349.637 226.277C348.713 232.084 349.289 236.783 351.364 240.373C353.485 243.971 356.92 246.147 361.667 246.902Z" fill="#0C24FF"/>
<path d="M430.899 222.083L427.473 235.224L424.849 234.467L425.596 231.045C421.816 226.491 418.597 223.023 415.938 220.642L405.344 261.284L410.677 262.747L410.059 265.118L388.113 259.397L388.731 257.026L394.1 258.353L404.694 217.711C401.211 218.491 396.709 219.946 391.186 222.075L390.168 225.427L387.509 224.806L390.934 211.665L430.899 222.083Z" fill="#0C24FF"/>
<path d="M464.848 232.88C469.129 234.489 472.552 236.723 475.118 239.581C477.726 242.456 479.297 245.838 479.83 249.727C480.406 253.633 479.816 257.923 478.059 262.597C476.943 265.567 475.262 268.45 473.015 271.245C470.784 273.996 468.205 276.217 465.276 277.909C462.441 279.086 459.439 279.778 456.271 279.983C453.119 280.145 450.014 279.651 446.956 278.502C442.719 276.91 439.296 274.676 436.687 271.802C434.122 268.943 432.551 265.561 431.975 261.656C431.442 257.766 432.054 253.485 433.811 248.81C434.911 245.884 436.606 243.031 438.896 240.252C441.187 237.474 443.796 235.239 446.725 233.548C449.517 232.354 452.467 231.667 455.575 231.489C458.743 231.284 461.834 231.748 464.848 232.88ZM447.198 248.607C445.294 253.674 444.414 258.005 444.559 261.599C444.704 265.193 445.83 268.233 447.937 270.72C450.06 273.163 453.199 275.289 457.354 277.1C458.699 275.113 460.074 272.713 461.48 269.902C462.946 267.062 464.032 264.704 464.738 262.825C466.658 257.714 467.524 253.353 467.336 249.743C467.207 246.105 466.067 243.035 463.917 240.532C461.767 238.029 458.628 235.902 454.5 234.151C453.166 236.242 451.779 238.737 450.341 241.637C448.902 244.536 447.855 246.859 447.198 248.607Z" fill="#0C24FF"/>
</svg>
