<svg width="309" height="107" viewBox="0 0 309 107" fill="none" xmlns="http://www.w3.org/2000/svg">
<path d="M163 54H287.082" stroke="#FF5500" stroke-width="2"/>
<path d="M19.71 7.98V25.92L21.18 25.95V27H13.26V25.95L14.73 25.92V17.58H8.01V25.92L9.48 25.95V27H1.56V25.95L3.03 25.92V7.98L1.56 7.95V6.9H9.48V7.95L8.01 7.98V16.47H14.73V7.98L13.26 7.95V6.9H21.18V7.95L19.71 7.98ZM25.8476 25.95L27.3176 25.92V7.98L25.8476 7.95V6.9H33.7676V7.95L32.2976 7.98V25.92L33.7676 25.95V27H25.8476V25.95ZM44.3557 10.08C44.3557 10.72 44.5357 11.31 44.8957 11.85C45.2557 12.39 45.7057 12.87 46.2457 13.29C46.7857 13.71 47.5257 14.23 48.4657 14.85C49.5657 15.57 50.4457 16.21 51.1057 16.77C51.7657 17.31 52.3257 17.97 52.7857 18.75C53.2657 19.51 53.5057 20.37 53.5057 21.33C53.5057 22.39 53.2157 23.39 52.6357 24.33C52.0557 25.25 51.1857 26 50.0257 26.58C48.8657 27.16 47.4657 27.45 45.8257 27.45C42.3057 27.45 39.8057 26.05 38.3257 23.25L41.7157 20.64C42.6757 22.62 43.7557 24.54 44.9557 26.4H44.9857C45.5657 26.4 46.1057 26.25 46.6057 25.95C47.1057 25.63 47.5057 25.22 47.8057 24.72C48.1057 24.22 48.2557 23.69 48.2557 23.13C48.2557 22.53 48.0757 21.98 47.7157 21.48C47.3757 20.96 46.9457 20.51 46.4257 20.13C45.9057 19.73 45.1957 19.25 44.2957 18.69C43.2157 18.01 42.3457 17.41 41.6857 16.89C41.0257 16.37 40.4557 15.74 39.9757 15C39.5157 14.24 39.2857 13.37 39.2857 12.39C39.2857 11.29 39.5957 10.29 40.2157 9.39C40.8557 8.47 41.7557 7.75 42.9157 7.23C44.0957 6.71 45.4757 6.45 47.0557 6.45C48.5957 6.45 49.8557 6.7 50.8357 7.2C51.8357 7.68 52.7357 8.37 53.5357 9.27L50.3857 12.45C49.3257 10.69 48.2557 9.04 47.1757 7.5C46.2757 7.5 45.5757 7.75 45.0757 8.25C44.5957 8.73 44.3557 9.34 44.3557 10.08ZM75.1291 6.9V12.72L73.9591 12.69L73.8991 11.19C71.8391 9.71 70.1291 8.62 68.7691 7.92V25.92L71.1391 25.95V27H61.4191V25.95L63.7891 25.92V7.92C62.4291 8.62 60.7191 9.71 58.6591 11.19L58.5991 12.69L57.4291 12.72V6.9H75.1291ZM88.9516 6.45C90.9116 6.45 92.6216 6.83 94.0816 7.59C95.5616 8.35 96.7016 9.47 97.5016 10.95C98.3216 12.43 98.7316 14.24 98.7316 16.38C98.7316 17.74 98.4916 19.15 98.0116 20.61C97.5316 22.05 96.8316 23.33 95.9116 24.45C94.9516 25.35 93.8516 26.08 92.6116 26.64C91.3716 27.18 90.0516 27.45 88.6516 27.45C86.7116 27.45 85.0016 27.07 83.5216 26.31C82.0616 25.55 80.9216 24.43 80.1016 22.95C79.3016 21.47 78.9016 19.66 78.9016 17.52C78.9016 16.18 79.1516 14.78 79.6516 13.32C80.1516 11.86 80.8616 10.57 81.7816 9.45C82.7216 8.55 83.8016 7.83 85.0216 7.29C86.2616 6.73 87.5716 6.45 88.9516 6.45ZM84.2416 15.42C84.2416 17.74 84.5416 19.61 85.1416 21.03C85.7416 22.45 86.6516 23.5 87.8716 24.18C89.0916 24.84 90.6716 25.22 92.6116 25.32C92.8516 24.32 93.0416 23.15 93.1816 21.81C93.3416 20.45 93.4216 19.34 93.4216 18.48C93.4216 16.14 93.1116 14.26 92.4916 12.84C91.8916 11.4 90.9716 10.34 89.7316 9.66C88.4916 8.98 86.9116 8.6 84.9916 8.52C84.7716 9.56 84.5916 10.77 84.4516 12.15C84.3116 13.53 84.2416 14.62 84.2416 15.42ZM123.151 25.95V27H115.921L111.841 18.96L111.931 18.9C111.471 18.94 110.821 18.98 109.981 19.02V25.92L111.451 25.95V27H103.531V25.95L105.001 25.92V7.98L103.531 7.95V6.9L109.321 6.96L113.791 6.6C115.231 6.6 116.461 6.87 117.481 7.41C118.521 7.93 119.301 8.64 119.821 9.54C120.361 10.42 120.631 11.4 120.631 12.48C120.631 13.72 120.271 14.8 119.551 15.72C118.831 16.64 117.751 17.38 116.311 17.94L121.681 25.92L123.151 25.95ZM109.981 17.85C111.641 17.75 112.941 17.3 113.881 16.5C114.821 15.68 115.291 14.58 115.291 13.2C115.291 12.22 115.061 11.33 114.601 10.53C114.141 9.73 113.511 9.1 112.711 8.64C111.911 8.18 111.001 7.95 109.981 7.95V17.85ZM127.303 25.95L128.773 25.92V7.98L127.303 7.95V6.9H135.223V7.95L133.753 7.98V25.92L135.223 25.95V27H127.303V25.95ZM159.641 25.95V27H150.611V25.95L152.081 25.92L150.701 21H145.601L144.611 25.92L146.141 25.95V27H139.361V25.95L140.831 25.92L147.551 7.14L151.271 6.63L158.171 25.92L159.641 25.95ZM150.371 19.89L147.731 10.5L145.841 19.89H150.371ZM168.323 10.08C168.323 10.72 168.503 11.31 168.863 11.85C169.223 12.39 169.673 12.87 170.213 13.29C170.753 13.71 171.493 14.23 172.433 14.85C173.533 15.57 174.413 16.21 175.073 16.77C175.733 17.31 176.293 17.97 176.753 18.75C177.233 19.51 177.473 20.37 177.473 21.33C177.473 22.39 177.183 23.39 176.603 24.33C176.023 25.25 175.153 26 173.993 26.58C172.833 27.16 171.433 27.45 169.793 27.45C166.273 27.45 163.773 26.05 162.293 23.25L165.683 20.64C166.643 22.62 167.723 24.54 168.923 26.4H168.953C169.533 26.4 170.073 26.25 170.573 25.95C171.073 25.63 171.473 25.22 171.773 24.72C172.073 24.22 172.223 23.69 172.223 23.13C172.223 22.53 172.043 21.98 171.683 21.48C171.343 20.96 170.913 20.51 170.393 20.13C169.873 19.73 169.163 19.25 168.263 18.69C167.183 18.01 166.313 17.41 165.653 16.89C164.993 16.37 164.423 15.74 163.943 15C163.483 14.24 163.253 13.37 163.253 12.39C163.253 11.29 163.563 10.29 164.183 9.39C164.823 8.47 165.723 7.75 166.883 7.23C168.063 6.71 169.443 6.45 171.023 6.45C172.563 6.45 173.823 6.7 174.803 7.2C175.803 7.68 176.703 8.37 177.503 9.27L174.353 12.45C173.293 10.69 172.223 9.04 171.143 7.5C170.243 7.5 169.543 7.75 169.043 8.25C168.563 8.73 168.323 9.34 168.323 10.08ZM190.514 25.95L191.984 25.92V7.98L190.514 7.95V6.9L196.304 6.96L200.564 6.6C203.544 6.6 205.844 7.43 207.464 9.09C209.104 10.75 209.924 13.15 209.924 16.29C209.924 18.41 209.514 20.28 208.694 21.9C207.874 23.5 206.644 24.75 205.004 25.65C203.364 26.55 201.364 27 199.004 27H190.514V25.95ZM197.804 25.95C199.944 25.95 201.604 25.21 202.784 23.73C203.984 22.25 204.584 20.02 204.584 17.04C204.584 15.06 204.244 13.4 203.564 12.06C202.904 10.7 201.994 9.69 200.834 9.03C199.694 8.35 198.404 8.01 196.964 8.01V25.95H197.804ZM229.935 21.03V27H214.725V25.95L216.195 25.92V7.98L214.725 7.95V6.9H229.335V12.72L228.165 12.69L228.105 11.19C225.885 9.81 223.575 8.65 221.175 7.71L221.235 16.05H226.845V17.16H221.235L221.295 26.16C223.855 25.18 226.325 23.98 228.705 22.56L228.765 21.06L229.935 21.03ZM12.57 60C13.45 60 14.3 59.82 15.12 59.46C15.94 59.1 16.7 58.58 17.4 57.9L18.18 58.77C15.72 61.89 12.9 63.45 9.72 63.45C7.9 63.45 6.31 63.04 4.95 62.22C3.61 61.4 2.57 60.24 1.83 58.74C1.09 57.24 0.72 55.48 0.72 53.46C0.72 51.72 1.05 50.04 1.71 48.42C2.39 46.78 3.25 45.47 4.29 44.49C5.31 43.83 6.4 43.33 7.56 42.99C8.74 42.63 9.9 42.45 11.04 42.45C12.56 42.45 13.95 42.78 15.21 43.44C16.49 44.08 17.5 44.98 18.24 46.14L14.55 49.23C13.51 47.39 12.26 45.4 10.8 43.26C9.92 43.62 9.12 44.24 8.4 45.12C7.68 46 7.11 47.05 6.69 48.27C6.29 49.49 6.09 50.76 6.09 52.08C6.09 54.6 6.65 56.55 7.77 57.93C8.91 59.31 10.51 60 12.57 60ZM42.3105 42.9V43.95L40.8405 43.98V63H39.8805L36.0405 60.48C35.3005 61.38 34.4105 62.1 33.3705 62.64C32.3305 63.18 31.2405 63.45 30.1005 63.45C28.0205 63.45 26.4105 62.79 25.2705 61.47C24.1305 60.15 23.5605 58.1 23.5605 55.32V43.98L22.0905 43.95V42.9H30.1005V43.95L28.6305 43.98V54.57C28.6305 56.41 29.0105 57.79 29.7705 58.71C30.5305 59.61 31.5705 60.06 32.8905 60.06C34.0105 60.06 35.0005 59.83 35.8605 59.37V43.98L34.3905 43.95V42.9H42.3105ZM47.1581 61.95L48.6281 61.92V43.98L47.1581 43.95V42.9H55.0781V43.95L53.6081 43.98V61.92L55.0781 61.95V63H47.1581V61.95ZM60.2363 61.95L61.7063 61.92V43.98L60.2363 43.95V42.9L66.0263 42.96L70.2863 42.6C73.2663 42.6 75.5663 43.43 77.1863 45.09C78.8263 46.75 79.6463 49.15 79.6463 52.29C79.6463 54.41 79.2363 56.28 78.4163 57.9C77.5963 59.5 76.3663 60.75 74.7263 61.65C73.0863 62.55 71.0863 63 68.7263 63H60.2363V61.95ZM67.5263 61.95C69.6663 61.95 71.3263 61.21 72.5063 59.73C73.7063 58.25 74.3062 56.02 74.3062 53.04C74.3062 51.06 73.9663 49.4 73.2863 48.06C72.6263 46.7 71.7163 45.69 70.5563 45.03C69.4163 44.35 68.1263 44.01 66.6863 44.01V61.95H67.5263ZM103.707 61.95V63H94.6772V61.95L96.1472 61.92L94.7672 57H89.6672L88.6772 61.92L90.2072 61.95V63H83.4272V61.95L84.8972 61.92L91.6172 43.14L95.3372 42.63L102.237 61.92L103.707 61.95ZM94.4372 55.89L91.7972 46.5L89.9072 55.89H94.4372ZM107.545 61.95L109.015 61.92V43.98L107.545 43.95V42.9L113.335 42.96L117.595 42.6C120.575 42.6 122.875 43.43 124.495 45.09C126.135 46.75 126.955 49.15 126.955 52.29C126.955 54.41 126.545 56.28 125.725 57.9C124.905 59.5 123.675 60.75 122.035 61.65C120.395 62.55 118.395 63 116.035 63H107.545V61.95ZM114.835 61.95C116.975 61.95 118.635 61.21 119.815 59.73C121.015 58.25 121.615 56.02 121.615 53.04C121.615 51.06 121.275 49.4 120.595 48.06C119.935 46.7 119.025 45.69 117.865 45.03C116.725 44.35 115.435 44.01 113.995 44.01V61.95H114.835ZM141.446 42.45C143.406 42.45 145.116 42.83 146.576 43.59C148.056 44.35 149.196 45.47 149.996 46.95C150.816 48.43 151.226 50.24 151.226 52.38C151.226 53.74 150.986 55.15 150.506 56.61C150.026 58.05 149.326 59.33 148.406 60.45C147.446 61.35 146.346 62.08 145.106 62.64C143.866 63.18 142.546 63.45 141.146 63.45C139.206 63.45 137.496 63.07 136.016 62.31C134.556 61.55 133.416 60.43 132.596 58.95C131.796 57.47 131.396 55.66 131.396 53.52C131.396 52.18 131.646 50.78 132.146 49.32C132.646 47.86 133.356 46.57 134.276 45.45C135.216 44.55 136.296 43.83 137.516 43.29C138.756 42.73 140.066 42.45 141.446 42.45ZM136.736 51.42C136.736 53.74 137.036 55.61 137.636 57.03C138.236 58.45 139.146 59.5 140.366 60.18C141.586 60.84 143.166 61.22 145.106 61.32C145.346 60.32 145.536 59.15 145.676 57.81C145.836 56.45 145.916 55.34 145.916 54.48C145.916 52.14 145.606 50.26 144.986 48.84C144.386 47.4 143.466 46.34 142.226 45.66C140.986 44.98 139.406 44.6 137.486 44.52C137.266 45.56 137.086 46.77 136.946 48.15C136.806 49.53 136.736 50.62 136.736 51.42ZM19.02 78.9V79.95L17.76 79.98L12.03 90.42V97.92L13.5 97.95V99H5.58V97.95L7.05 97.92V90.87L1.32 79.98L0.06 79.95V78.9H8.88V79.95L7.41 79.98L11.22 88.68L13.98 79.98L12.45 79.95V78.9H19.02ZM36.6799 82.08C36.6799 82.72 36.8599 83.31 37.2199 83.85C37.5799 84.39 38.0299 84.87 38.5699 85.29C39.1099 85.71 39.8499 86.23 40.7899 86.85C41.8899 87.57 42.7699 88.21 43.4299 88.77C44.0899 89.31 44.6499 89.97 45.1099 90.75C45.5899 91.51 45.8299 92.37 45.8299 93.33C45.8299 94.39 45.5399 95.39 44.9599 96.33C44.3799 97.25 43.5099 98 42.3499 98.58C41.1899 99.16 39.7899 99.45 38.1499 99.45C34.6299 99.45 32.1299 98.05 30.6499 95.25L34.0399 92.64C34.9999 94.62 36.0799 96.54 37.2799 98.4H37.3099C37.8899 98.4 38.4299 98.25 38.9299 97.95C39.4299 97.63 39.8299 97.22 40.1299 96.72C40.4299 96.22 40.5799 95.69 40.5799 95.13C40.5799 94.53 40.3999 93.98 40.0399 93.48C39.6999 92.96 39.2699 92.51 38.7499 92.13C38.2299 91.73 37.5199 91.25 36.6199 90.69C35.5399 90.01 34.6699 89.41 34.0099 88.89C33.3499 88.37 32.7799 87.74 32.2999 87C31.8399 86.24 31.6099 85.37 31.6099 84.39C31.6099 83.29 31.9199 82.29 32.5399 81.39C33.1799 80.47 34.0799 79.75 35.2399 79.23C36.4199 78.71 37.7999 78.45 39.3799 78.45C40.9199 78.45 42.1799 78.7 43.1599 79.2C44.1599 79.68 45.0599 80.37 45.8599 81.27L42.7099 84.45C41.6499 82.69 40.5799 81.04 39.4999 79.5C38.5999 79.5 37.8999 79.75 37.3999 80.25C36.9199 80.73 36.6799 81.34 36.6799 82.08ZM70.6934 78.9V79.95L69.2234 79.98V99H68.2634L64.4234 96.48C63.6834 97.38 62.7934 98.1 61.7534 98.64C60.7134 99.18 59.6234 99.45 58.4834 99.45C56.4034 99.45 54.7934 98.79 53.6534 97.47C52.5134 96.15 51.9434 94.1 51.9434 91.32V79.98L50.4734 79.95V78.9H58.4834V79.95L57.0134 79.98V90.57C57.0134 92.41 57.3934 93.79 58.1534 94.71C58.9134 95.61 59.9534 96.06 61.2734 96.06C62.3934 96.06 63.3834 95.83 64.2434 95.37V79.98L62.7734 79.95V78.9H70.6934ZM92.6409 84.78C92.6409 86.9 91.7309 88.58 89.9109 89.82C88.1109 91.04 85.4709 91.69 81.9909 91.77V97.92L85.2609 97.95V99H75.5409V97.95L77.0109 97.92V79.98L75.5409 79.95V78.9L81.3309 78.96L85.8009 78.75C87.2409 78.75 88.4709 79.02 89.4909 79.56C90.5309 80.1 91.3109 80.83 91.8309 81.75C92.3709 82.67 92.6409 83.68 92.6409 84.78ZM87.3009 85.65C87.3009 84.59 87.0709 83.63 86.6109 82.77C86.1509 81.89 85.5109 81.2 84.6909 80.7C83.8909 80.2 82.9909 79.95 81.9909 79.95V90.6C83.6509 90.5 84.9509 90.02 85.8909 89.16C86.8309 88.28 87.3009 87.11 87.3009 85.65ZM112.296 93.03V99H97.0859V97.95L98.5559 97.92V79.98L97.0859 79.95V78.9H111.696V84.72L110.526 84.69L110.466 83.19C108.246 81.81 105.936 80.65 103.536 79.71L103.596 88.05H109.206V89.16H103.596L103.656 98.16C106.216 97.18 108.686 95.98 111.066 94.56L111.126 93.06L112.296 93.03ZM136.757 97.95V99H129.527L125.447 90.96L125.537 90.9C125.077 90.94 124.427 90.98 123.587 91.02V97.92L125.057 97.95V99H117.137V97.95L118.607 97.92V79.98L117.137 79.95V78.9L122.927 78.96L127.397 78.6C128.837 78.6 130.067 78.87 131.087 79.41C132.127 79.93 132.907 80.64 133.427 81.54C133.967 82.42 134.237 83.4 134.237 84.48C134.237 85.72 133.877 86.8 133.157 87.72C132.437 88.64 131.357 89.38 129.917 89.94L135.287 97.92L136.757 97.95ZM123.587 89.85C125.247 89.75 126.547 89.3 127.487 88.5C128.427 87.68 128.897 86.58 128.897 85.2C128.897 84.22 128.667 83.33 128.207 82.53C127.747 81.73 127.117 81.1 126.317 80.64C125.517 80.18 124.607 79.95 123.587 79.95V89.85ZM157.875 78.9V79.95L156.615 79.98L149.595 98.76L145.695 99.27L139.185 79.98L137.925 79.95V78.9H147.045V79.95L145.275 79.98L149.265 95.43L152.835 79.98L151.065 79.95V78.9H157.875ZM162.014 97.95L163.484 97.92V79.98L162.014 79.95V78.9H169.934V79.95L168.464 79.98V97.92L169.934 97.95V99H162.014V97.95ZM194.022 78.9V79.95L192.762 79.98L185.742 98.76L181.842 99.27L175.332 79.98L174.072 79.95V78.9H183.192V79.95L181.422 79.98L185.412 95.43L188.982 79.98L187.212 79.95V78.9H194.022ZM213.37 93.03V99H198.16V97.95L199.63 97.92V79.98L198.16 79.95V78.9H212.77V84.72L211.6 84.69L211.54 83.19C209.32 81.81 207.01 80.65 204.61 79.71L204.67 88.05H210.28V89.16H204.67L204.73 98.16C207.29 97.18 209.76 95.98 212.14 94.56L212.2 93.06L213.37 93.03ZM238.131 78.9V79.95L236.661 79.98L235.881 98.97L232.251 99L221.421 81.96L222.561 97.92L224.331 97.95V99H218.211V97.95L219.681 97.92L220.191 79.98L218.721 79.95V78.9H226.131L234.861 92.43L234.081 79.98L232.311 79.95V78.9H238.131ZM254.791 96C255.671 96 256.521 95.82 257.341 95.46C258.161 95.1 258.921 94.58 259.621 93.9L260.401 94.77C257.941 97.89 255.121 99.45 251.941 99.45C250.121 99.45 248.531 99.04 247.171 98.22C245.831 97.4 244.791 96.24 244.051 94.74C243.311 93.24 242.941 91.48 242.941 89.46C242.941 87.72 243.271 86.04 243.931 84.42C244.611 82.78 245.471 81.47 246.511 80.49C247.531 79.83 248.621 79.33 249.781 78.99C250.961 78.63 252.121 78.45 253.261 78.45C254.781 78.45 256.171 78.78 257.431 79.44C258.711 80.08 259.721 80.98 260.461 82.14L256.771 85.23C255.731 83.39 254.481 81.4 253.021 79.26C252.141 79.62 251.341 80.24 250.621 81.12C249.901 82 249.331 83.05 248.911 84.27C248.511 85.49 248.311 86.76 248.311 88.08C248.311 90.6 248.871 92.55 249.991 93.93C251.131 95.31 252.731 96 254.791 96ZM264.611 97.95L266.081 97.92V79.98L264.611 79.95V78.9H272.531V79.95L271.061 79.98V97.92L272.531 97.95V99H264.611V97.95ZM296.949 97.95V99H287.919V97.95L289.389 97.92L288.009 93H282.909L281.919 97.92L283.449 97.95V99H276.669V97.95L278.139 97.92L284.859 79.14L288.579 78.63L295.479 97.92L296.949 97.95ZM287.679 91.89L285.039 82.5L283.149 91.89H287.679Z" fill="#15263D"/>
</svg>
