<svg width="536" height="804" viewBox="0 0 536 804" fill="none" xmlns="http://www.w3.org/2000/svg">
<path d="M59.13 34.94V88.76L63.54 88.85V92H39.78V88.85L44.19 88.76V63.74H24.03V88.76L28.44 88.85V92H4.68V88.85L9.09 88.76V34.94L4.68 34.85V31.7H28.44V34.85L24.03 34.94V60.41H44.19V34.94L39.78 34.85V31.7H63.54V34.85L59.13 34.94ZM77.5427 88.85L81.9527 88.76V34.94L77.5427 34.85V31.7H101.303V34.85L96.8927 34.94V88.76L101.303 88.85V92H77.5427V88.85ZM133.067 41.24C133.067 43.16 133.607 44.93 134.687 46.55C135.767 48.17 137.117 49.61 138.737 50.87C140.357 52.13 142.577 53.69 145.397 55.55C148.697 57.71 151.337 59.63 153.317 61.31C155.297 62.93 156.977 64.91 158.357 67.25C159.797 69.53 160.517 72.11 160.517 74.99C160.517 78.17 159.647 81.17 157.907 83.99C156.167 86.75 153.557 89 150.077 90.74C146.597 92.48 142.397 93.35 137.477 93.35C126.917 93.35 119.417 89.15 114.977 80.75L125.147 72.92C128.027 78.86 131.267 84.62 134.867 90.2H134.957C136.697 90.2 138.317 89.75 139.817 88.85C141.317 87.89 142.517 86.66 143.417 85.16C144.317 83.66 144.767 82.07 144.767 80.39C144.767 78.59 144.227 76.94 143.147 75.44C142.127 73.88 140.837 72.53 139.277 71.39C137.717 70.19 135.587 68.75 132.887 67.07C129.647 65.03 127.037 63.23 125.057 61.67C123.077 60.11 121.367 58.22 119.927 56C118.547 53.72 117.857 51.11 117.857 48.17C117.857 44.87 118.787 41.87 120.647 39.17C122.567 36.41 125.267 34.25 128.747 32.69C132.287 31.13 136.427 30.35 141.167 30.35C145.787 30.35 149.567 31.1 152.507 32.6C155.507 34.04 158.207 36.11 160.607 38.81L151.157 48.35C147.977 43.07 144.767 38.12 141.527 33.5C138.827 33.5 136.727 34.25 135.227 35.75C133.787 37.19 133.067 39.02 133.067 41.24ZM225.387 31.7V49.16L221.877 49.07L221.697 44.57C215.517 40.13 210.387 36.86 206.307 34.76V88.76L213.417 88.85V92H184.257V88.85L191.367 88.76V34.76C187.287 36.86 182.157 40.13 175.977 44.57L175.797 49.07L172.287 49.16V31.7H225.387ZM266.855 30.35C272.735 30.35 277.865 31.49 282.245 33.77C286.685 36.05 290.105 39.41 292.505 43.85C294.965 48.29 296.195 53.72 296.195 60.14C296.195 64.22 295.475 68.45 294.035 72.83C292.595 77.15 290.495 80.99 287.735 84.35C284.855 87.05 281.555 89.24 277.835 90.92C274.115 92.54 270.155 93.35 265.955 93.35C260.135 93.35 255.005 92.21 250.565 89.93C246.185 87.65 242.765 84.29 240.305 79.85C237.905 75.41 236.705 69.98 236.705 63.56C236.705 59.54 237.455 55.34 238.955 50.96C240.455 46.58 242.585 42.71 245.345 39.35C248.165 36.65 251.405 34.49 255.065 32.87C258.785 31.19 262.715 30.35 266.855 30.35ZM252.725 57.26C252.725 64.22 253.625 69.83 255.425 74.09C257.225 78.35 259.955 81.5 263.615 83.54C267.275 85.52 272.015 86.66 277.835 86.96C278.555 83.96 279.125 80.45 279.545 76.43C280.025 72.35 280.265 69.02 280.265 66.44C280.265 59.42 279.335 53.78 277.475 49.52C275.675 45.2 272.915 42.02 269.195 39.98C265.475 37.94 260.735 36.8 254.975 36.56C254.315 39.68 253.775 43.31 253.355 47.45C252.935 51.59 252.725 54.86 252.725 57.26ZM369.454 88.85V92H347.764L335.524 67.88L335.794 67.7C334.414 67.82 332.464 67.94 329.944 68.06V88.76L334.354 88.85V92H310.594V88.85L315.004 88.76V34.94L310.594 34.85V31.7L327.964 31.88L341.374 30.8C345.694 30.8 349.384 31.61 352.444 33.23C355.564 34.79 357.904 36.92 359.464 39.62C361.084 42.26 361.894 45.2 361.894 48.44C361.894 52.16 360.814 55.4 358.654 58.16C356.494 60.92 353.254 63.14 348.934 64.82L365.044 88.76L369.454 88.85ZM329.944 64.55C334.924 64.25 338.824 62.9 341.644 60.5C344.464 58.04 345.874 54.74 345.874 50.6C345.874 47.66 345.184 44.99 343.804 42.59C342.424 40.19 340.534 38.3 338.134 36.92C335.734 35.54 333.004 34.85 329.944 34.85V64.55ZM381.908 88.85L386.318 88.76V34.94L381.908 34.85V31.7H405.668V34.85L401.258 34.94V88.76L405.668 88.85V92H381.908V88.85ZM478.922 88.85V92H451.832V88.85L456.242 88.76L452.102 74H436.802L433.832 88.76L438.422 88.85V92H418.082V88.85L422.492 88.76L442.652 32.42L453.812 30.89L474.512 88.76L478.922 88.85ZM451.112 70.67L443.192 42.5L437.522 70.67H451.112ZM504.968 41.24C504.968 43.16 505.508 44.93 506.588 46.55C507.668 48.17 509.018 49.61 510.638 50.87C512.258 52.13 514.478 53.69 517.298 55.55C520.598 57.71 523.238 59.63 525.218 61.31C527.198 62.93 528.878 64.91 530.258 67.25C531.698 69.53 532.418 72.11 532.418 74.99C532.418 78.17 531.548 81.17 529.808 83.99C528.068 86.75 525.458 89 521.978 90.74C518.498 92.48 514.298 93.35 509.378 93.35C498.818 93.35 491.318 89.15 486.878 80.75L497.048 72.92C499.928 78.86 503.168 84.62 506.768 90.2H506.858C508.598 90.2 510.218 89.75 511.718 88.85C513.218 87.89 514.418 86.66 515.318 85.16C516.218 83.66 516.668 82.07 516.668 80.39C516.668 78.59 516.128 76.94 515.048 75.44C514.028 73.88 512.738 72.53 511.178 71.39C509.618 70.19 507.488 68.75 504.788 67.07C501.548 65.03 498.938 63.23 496.958 61.67C494.978 60.11 493.268 58.22 491.828 56C490.448 53.72 489.758 51.11 489.758 48.17C489.758 44.87 490.688 41.87 492.548 39.17C494.468 36.41 497.168 34.25 500.648 32.69C504.188 31.13 508.328 30.35 513.068 30.35C517.688 30.35 521.468 31.1 524.408 32.6C527.408 34.04 530.108 36.11 532.508 38.81L523.058 48.35C519.878 43.07 516.668 38.12 513.428 33.5C510.728 33.5 508.628 34.25 507.128 35.75C505.688 37.19 504.968 39.02 504.968 41.24ZM3.24 218.85L7.65 218.76V164.94L3.24 164.85V161.7L20.61 161.88L33.39 160.8C42.33 160.8 49.23 163.29 54.09 168.27C59.01 173.25 61.47 180.45 61.47 189.87C61.47 196.23 60.24 201.84 57.78 206.7C55.32 211.5 51.63 215.25 46.71 217.95C41.79 220.65 35.79 222 28.71 222H3.24V218.85ZM25.11 218.85C31.53 218.85 36.51 216.63 40.05 212.19C43.65 207.75 45.45 201.06 45.45 192.12C45.45 186.18 44.43 181.2 42.39 177.18C40.41 173.1 37.68 170.07 34.2 168.09C30.78 166.05 26.91 165.03 22.59 165.03V218.85H25.11ZM121.503 204.09V222H75.8728V218.85L80.2828 218.76V164.94L75.8728 164.85V161.7H119.703V179.16L116.193 179.07L116.013 174.57C109.353 170.43 102.423 166.95 95.2228 164.13L95.4028 189.15H112.233V192.48H95.4028L95.5828 219.48C103.263 216.54 110.673 212.94 117.813 208.68L117.993 204.18L121.503 204.09ZM37.71 343C40.35 343 42.9 342.46 45.36 341.38C47.82 340.3 50.1 338.74 52.2 336.7L54.54 339.31C47.16 348.67 38.7 353.35 29.16 353.35C23.7 353.35 18.93 352.12 14.85 349.66C10.83 347.2 7.71 343.72 5.49 339.22C3.27 334.72 2.16 329.44 2.16 323.38C2.16 318.16 3.15 313.12 5.13 308.26C7.17 303.34 9.75 299.41 12.87 296.47C15.93 294.49 19.2 292.99 22.68 291.97C26.22 290.89 29.7 290.35 33.12 290.35C37.68 290.35 41.85 291.34 45.63 293.32C49.47 295.24 52.5 297.94 54.72 301.42L43.65 310.69C40.53 305.17 36.78 299.2 32.4 292.78C29.76 293.86 27.36 295.72 25.2 298.36C23.04 301 21.33 304.15 20.07 307.81C18.87 311.47 18.27 315.28 18.27 319.24C18.27 326.8 19.95 332.65 23.31 336.79C26.73 340.93 31.53 343 37.71 343ZM126.932 291.7V294.85L122.522 294.94V352H119.642L108.122 344.44C105.902 347.14 103.232 349.3 100.112 350.92C96.9916 352.54 93.7216 353.35 90.3016 353.35C84.0616 353.35 79.2316 351.37 75.8116 347.41C72.3916 343.45 70.6816 337.3 70.6816 328.96V294.94L66.2716 294.85V291.7H90.3016V294.85L85.8916 294.94V326.71C85.8916 332.23 87.0316 336.37 89.3116 339.13C91.5916 341.83 94.7116 343.18 98.6716 343.18C102.032 343.18 105.002 342.49 107.582 341.11V294.94L103.172 294.85V291.7H126.932ZM141.474 348.85L145.884 348.76V294.94L141.474 294.85V291.7H165.234V294.85L160.824 294.94V348.76L165.234 348.85V352H141.474V348.85ZM180.709 348.85L185.119 348.76V294.94L180.709 294.85V291.7L198.079 291.88L210.859 290.8C219.799 290.8 226.699 293.29 231.559 298.27C236.479 303.25 238.939 310.45 238.939 319.87C238.939 326.23 237.709 331.84 235.249 336.7C232.789 341.5 229.099 345.25 224.179 347.95C219.259 350.65 213.259 352 206.179 352H180.709V348.85ZM202.579 348.85C208.999 348.85 213.979 346.63 217.519 342.19C221.119 337.75 222.919 331.06 222.919 322.12C222.919 316.18 221.899 311.2 219.859 307.18C217.879 303.1 215.149 300.07 211.669 298.09C208.249 296.05 204.379 295.03 200.059 295.03V348.85H202.579ZM311.122 348.85V352H284.032V348.85L288.442 348.76L284.302 334H269.002L266.032 348.76L270.622 348.85V352H250.282V348.85L254.692 348.76L274.852 292.42L286.012 290.89L306.712 348.76L311.122 348.85ZM283.312 330.67L275.392 302.5L269.722 330.67H283.312ZM322.635 348.85L327.045 348.76V294.94L322.635 294.85V291.7L340.005 291.88L352.785 290.8C361.725 290.8 368.625 293.29 373.485 298.27C378.405 303.25 380.865 310.45 380.865 319.87C380.865 326.23 379.635 331.84 377.175 336.7C374.715 341.5 371.025 345.25 366.105 347.95C361.185 350.65 355.185 352 348.105 352H322.635V348.85ZM344.505 348.85C350.925 348.85 355.905 346.63 359.445 342.19C363.045 337.75 364.845 331.06 364.845 322.12C364.845 316.18 363.825 311.2 361.785 307.18C359.805 303.1 357.075 300.07 353.595 298.09C350.175 296.05 346.305 295.03 341.985 295.03V348.85H344.505ZM424.337 290.35C430.217 290.35 435.347 291.49 439.727 293.77C444.167 296.05 447.587 299.41 449.987 303.85C452.447 308.29 453.677 313.72 453.677 320.14C453.677 324.22 452.957 328.45 451.517 332.83C450.077 337.15 447.977 340.99 445.217 344.35C442.337 347.05 439.037 349.24 435.317 350.92C431.597 352.54 427.637 353.35 423.437 353.35C417.617 353.35 412.487 352.21 408.047 349.93C403.667 347.65 400.247 344.29 397.787 339.85C395.387 335.41 394.187 329.98 394.187 323.56C394.187 319.54 394.937 315.34 396.437 310.96C397.937 306.58 400.067 302.71 402.827 299.35C405.647 296.65 408.887 294.49 412.547 292.87C416.267 291.19 420.197 290.35 424.337 290.35ZM410.207 317.26C410.207 324.22 411.107 329.83 412.907 334.09C414.707 338.35 417.437 341.5 421.097 343.54C424.757 345.52 429.497 346.66 435.317 346.96C436.037 343.96 436.607 340.45 437.027 336.43C437.507 332.35 437.747 329.02 437.747 326.44C437.747 319.42 436.817 313.78 434.957 309.52C433.157 305.2 430.397 302.02 426.677 299.98C422.957 297.94 418.217 296.8 412.457 296.56C411.797 299.68 411.257 303.31 410.837 307.45C410.417 311.59 410.207 314.86 410.207 317.26ZM57.06 421.7V424.85L53.28 424.94L36.09 456.26V478.76L40.5 478.85V482H16.74V478.85L21.15 478.76V457.61L3.96 424.94L0.18 424.85V421.7H26.64V424.85L22.23 424.94L33.66 451.04L41.94 424.94L37.35 424.85V421.7H57.06ZM19.53 561.24C19.53 563.16 20.07 564.93 21.15 566.55C22.23 568.17 23.58 569.61 25.2 570.87C26.82 572.13 29.04 573.69 31.86 575.55C35.16 577.71 37.8 579.63 39.78 581.31C41.76 582.93 43.44 584.91 44.82 587.25C46.26 589.53 46.98 592.11 46.98 594.99C46.98 598.17 46.11 601.17 44.37 603.99C42.63 606.75 40.02 609 36.54 610.74C33.06 612.48 28.86 613.35 23.94 613.35C13.38 613.35 5.88 609.15 1.44 600.75L11.61 592.92C14.49 598.86 17.73 604.62 21.33 610.2H21.42C23.16 610.2 24.78 609.75 26.28 608.85C27.78 607.89 28.98 606.66 29.88 605.16C30.78 603.66 31.23 602.07 31.23 600.39C31.23 598.59 30.69 596.94 29.61 595.44C28.59 593.88 27.3 592.53 25.74 591.39C24.18 590.19 22.05 588.75 19.35 587.07C16.11 585.03 13.5 583.23 11.52 581.67C9.54 580.11 7.83 578.22 6.39 576C5.01 573.72 4.32 571.11 4.32 568.17C4.32 564.87 5.25 561.87 7.11 559.17C9.03 556.41 11.73 554.25 15.21 552.69C18.75 551.13 22.89 550.35 27.63 550.35C32.25 550.35 36.03 551.1 38.97 552.6C41.97 554.04 44.67 556.11 47.07 558.81L37.62 568.35C34.44 563.07 31.23 558.12 27.99 553.5C25.29 553.5 23.19 554.25 21.69 555.75C20.25 557.19 19.53 559.02 19.53 561.24ZM121.57 551.7V554.85L117.16 554.94V612H114.28L102.76 604.44C100.54 607.14 97.8703 609.3 94.7503 610.92C91.6303 612.54 88.3603 613.35 84.9403 613.35C78.7003 613.35 73.8703 611.37 70.4503 607.41C67.0303 603.45 65.3203 597.3 65.3203 588.96V554.94L60.9103 554.85V551.7H84.9403V554.85L80.5303 554.94V586.71C80.5303 592.23 81.6703 596.37 83.9503 599.13C86.2303 601.83 89.3503 603.18 93.3103 603.18C96.6703 603.18 99.6403 602.49 102.22 601.11V554.94L97.8103 554.85V551.7H121.57ZM187.413 569.34C187.413 575.7 184.683 580.74 179.223 584.46C173.823 588.12 165.903 590.07 155.463 590.31V608.76L165.273 608.85V612H136.113V608.85L140.523 608.76V554.94L136.113 554.85V551.7L153.483 551.88L166.893 551.25C171.213 551.25 174.903 552.06 177.963 553.68C181.083 555.3 183.423 557.49 184.983 560.25C186.603 563.01 187.413 566.04 187.413 569.34ZM171.393 571.95C171.393 568.77 170.703 565.89 169.323 563.31C167.943 560.67 166.023 558.6 163.563 557.1C161.163 555.6 158.463 554.85 155.463 554.85V586.8C160.443 586.5 164.343 585.06 167.163 582.48C169.983 579.84 171.393 576.33 171.393 571.95ZM246.378 594.09V612H200.748V608.85L205.158 608.76V554.94L200.748 554.85V551.7H244.578V569.16L241.068 569.07L240.888 564.57C234.228 560.43 227.298 556.95 220.098 554.13L220.278 579.15H237.108V582.48H220.278L220.458 609.48C228.138 606.54 235.548 602.94 242.688 598.68L242.868 594.18L246.378 594.09ZM319.76 608.85V612H298.07L285.83 587.88L286.1 587.7C284.72 587.82 282.77 587.94 280.25 588.06V608.76L284.66 608.85V612H260.9V608.85L265.31 608.76V554.94L260.9 554.85V551.7L278.27 551.88L291.68 550.8C296 550.8 299.69 551.61 302.75 553.23C305.87 554.79 308.21 556.92 309.77 559.62C311.39 562.26 312.2 565.2 312.2 568.44C312.2 572.16 311.12 575.4 308.96 578.16C306.8 580.92 303.56 583.14 299.24 584.82L315.35 608.76L319.76 608.85ZM280.25 584.55C285.23 584.25 289.13 582.9 291.95 580.5C294.77 578.04 296.18 574.74 296.18 570.6C296.18 567.66 295.49 564.99 294.11 562.59C292.73 560.19 290.84 558.3 288.44 556.92C286.04 555.54 283.31 554.85 280.25 554.85V584.55ZM383.116 551.7V554.85L379.336 554.94L358.276 611.28L346.576 612.81L327.046 554.94L323.266 554.85V551.7H350.626V554.85L345.316 554.94L357.286 601.29L367.996 554.94L362.686 554.85V551.7H383.116ZM395.531 608.85L399.941 608.76V554.94L395.531 554.85V551.7H419.291V554.85L414.881 554.94V608.76L419.291 608.85V612H395.531V608.85ZM60.03 681.7V684.85L56.25 684.94L35.19 741.28L23.49 742.81L3.96 684.94L0.18 684.85V681.7H27.54V684.85L22.23 684.94L34.2 731.29L44.91 684.94L39.6 684.85V681.7H60.03ZM118.075 724.09V742H72.4451V738.85L76.8551 738.76V684.94L72.4451 684.85V681.7H116.275V699.16L112.765 699.07L112.585 694.57C105.925 690.43 98.9951 686.95 91.7951 684.13L91.9751 709.15H108.805V712.48H91.9751L92.1551 739.48C99.8351 736.54 107.245 732.94 114.385 728.68L114.565 724.18L118.075 724.09ZM192.357 681.7V684.85L187.947 684.94L185.607 741.91L174.717 742L142.227 690.88L145.647 738.76L150.957 738.85V742H132.597V738.85L137.007 738.76L138.537 684.94L134.127 684.85V681.7H156.357L182.547 722.29L180.207 684.94L174.897 684.85V681.7H192.357ZM242.337 733C244.977 733 247.527 732.46 249.987 731.38C252.447 730.3 254.727 728.74 256.827 726.7L259.167 729.31C251.787 738.67 243.327 743.35 233.787 743.35C228.327 743.35 223.557 742.12 219.477 739.66C215.457 737.2 212.337 733.72 210.117 729.22C207.897 724.72 206.787 719.44 206.787 713.38C206.787 708.16 207.777 703.12 209.757 698.26C211.797 693.34 214.377 689.41 217.497 686.47C220.557 684.49 223.827 682.99 227.307 681.97C230.847 680.89 234.327 680.35 237.747 680.35C242.307 680.35 246.477 681.34 250.257 683.32C254.097 685.24 257.127 687.94 259.347 691.42L248.277 700.69C245.157 695.17 241.407 689.2 237.027 682.78C234.387 683.86 231.987 685.72 229.827 688.36C227.667 691 225.957 694.15 224.697 697.81C223.497 701.47 222.897 705.28 222.897 709.24C222.897 716.8 224.577 722.65 227.937 726.79C231.357 730.93 236.157 733 242.337 733ZM271.799 738.85L276.209 738.76V684.94L271.799 684.85V681.7H295.559V684.85L291.149 684.94V738.76L295.559 738.85V742H271.799V738.85ZM368.813 738.85V742H341.723V738.85L346.133 738.76L341.993 724H326.693L323.723 738.76L328.313 738.85V742H307.973V738.85L312.383 738.76L332.543 682.42L343.703 680.89L364.403 738.76L368.813 738.85ZM341.003 720.67L333.083 692.5L327.413 720.67H341.003Z" fill="#15263D"/>
<path d="M161 204H473" stroke="#FF5500" stroke-width="4"/>
<path d="M77 461L473 461" stroke="#FF5500" stroke-width="4"/>
<path d="M420 595H472" stroke="#FF5500" stroke-width="4"/>
<path d="M366 719H472" stroke="#FF5500" stroke-width="4"/>
</svg>
