<svg width="559" height="178" viewBox="0 0 559 178" fill="none" xmlns="http://www.w3.org/2000/svg">
<path d="M59.13 34.94V88.76L63.54 88.85V92H39.78V88.85L44.19 88.76V63.74H24.03V88.76L28.44 88.85V92H4.68V88.85L9.09 88.76V34.94L4.68 34.85V31.7H28.44V34.85L24.03 34.94V60.41H44.19V34.94L39.78 34.85V31.7H63.54V34.85L59.13 34.94ZM77.5427 88.85L81.9527 88.76V34.94L77.5427 34.85V31.7H101.303V34.85L96.8927 34.94V88.76L101.303 88.85V92H77.5427V88.85ZM133.067 41.24C133.067 43.16 133.607 44.93 134.687 46.55C135.767 48.17 137.117 49.61 138.737 50.87C140.357 52.13 142.577 53.69 145.397 55.55C148.697 57.71 151.337 59.63 153.317 61.31C155.297 62.93 156.977 64.91 158.357 67.25C159.797 69.53 160.517 72.11 160.517 74.99C160.517 78.17 159.647 81.17 157.907 83.99C156.167 86.75 153.557 89 150.077 90.74C146.597 92.48 142.397 93.35 137.477 93.35C126.917 93.35 119.417 89.15 114.977 80.75L125.147 72.92C128.027 78.86 131.267 84.62 134.867 90.2H134.957C136.697 90.2 138.317 89.75 139.817 88.85C141.317 87.89 142.517 86.66 143.417 85.16C144.317 83.66 144.767 82.07 144.767 80.39C144.767 78.59 144.227 76.94 143.147 75.44C142.127 73.88 140.837 72.53 139.277 71.39C137.717 70.19 135.587 68.75 132.887 67.07C129.647 65.03 127.037 63.23 125.057 61.67C123.077 60.11 121.367 58.22 119.927 56C118.547 53.72 117.857 51.11 117.857 48.17C117.857 44.87 118.787 41.87 120.647 39.17C122.567 36.41 125.267 34.25 128.747 32.69C132.287 31.13 136.427 30.35 141.167 30.35C145.787 30.35 149.567 31.1 152.507 32.6C155.507 34.04 158.207 36.11 160.607 38.81L151.157 48.35C147.977 43.07 144.767 38.12 141.527 33.5C138.827 33.5 136.727 34.25 135.227 35.75C133.787 37.19 133.067 39.02 133.067 41.24ZM225.387 31.7V49.16L221.877 49.07L221.697 44.57C215.517 40.13 210.387 36.86 206.307 34.76V88.76L213.417 88.85V92H184.257V88.85L191.367 88.76V34.76C187.287 36.86 182.157 40.13 175.977 44.57L175.797 49.07L172.287 49.16V31.7H225.387ZM266.855 30.35C272.735 30.35 277.865 31.49 282.245 33.77C286.685 36.05 290.105 39.41 292.505 43.85C294.965 48.29 296.195 53.72 296.195 60.14C296.195 64.22 295.475 68.45 294.035 72.83C292.595 77.15 290.495 80.99 287.735 84.35C284.855 87.05 281.555 89.24 277.835 90.92C274.115 92.54 270.155 93.35 265.955 93.35C260.135 93.35 255.005 92.21 250.565 89.93C246.185 87.65 242.765 84.29 240.305 79.85C237.905 75.41 236.705 69.98 236.705 63.56C236.705 59.54 237.455 55.34 238.955 50.96C240.455 46.58 242.585 42.71 245.345 39.35C248.165 36.65 251.405 34.49 255.065 32.87C258.785 31.19 262.715 30.35 266.855 30.35ZM252.725 57.26C252.725 64.22 253.625 69.83 255.425 74.09C257.225 78.35 259.955 81.5 263.615 83.54C267.275 85.52 272.015 86.66 277.835 86.96C278.555 83.96 279.125 80.45 279.545 76.43C280.025 72.35 280.265 69.02 280.265 66.44C280.265 59.42 279.335 53.78 277.475 49.52C275.675 45.2 272.915 42.02 269.195 39.98C265.475 37.94 260.735 36.8 254.975 36.56C254.315 39.68 253.775 43.31 253.355 47.45C252.935 51.59 252.725 54.86 252.725 57.26ZM369.454 88.85V92H347.764L335.524 67.88L335.794 67.7C334.414 67.82 332.464 67.94 329.944 68.06V88.76L334.354 88.85V92H310.594V88.85L315.004 88.76V34.94L310.594 34.85V31.7L327.964 31.88L341.374 30.8C345.694 30.8 349.384 31.61 352.444 33.23C355.564 34.79 357.904 36.92 359.464 39.62C361.084 42.26 361.894 45.2 361.894 48.44C361.894 52.16 360.814 55.4 358.654 58.16C356.494 60.92 353.254 63.14 348.934 64.82L365.044 88.76L369.454 88.85ZM329.944 64.55C334.924 64.25 338.824 62.9 341.644 60.5C344.464 58.04 345.874 54.74 345.874 50.6C345.874 47.66 345.184 44.99 343.804 42.59C342.424 40.19 340.534 38.3 338.134 36.92C335.734 35.54 333.004 34.85 329.944 34.85V64.55ZM381.908 88.85L386.318 88.76V34.94L381.908 34.85V31.7H405.668V34.85L401.258 34.94V88.76L405.668 88.85V92H381.908V88.85ZM478.922 88.85V92H451.832V88.85L456.242 88.76L452.102 74H436.802L433.832 88.76L438.422 88.85V92H418.082V88.85L422.492 88.76L442.652 32.42L453.812 30.89L474.512 88.76L478.922 88.85ZM451.112 70.67L443.192 42.5L437.522 70.67H451.112ZM504.968 41.24C504.968 43.16 505.508 44.93 506.588 46.55C507.668 48.17 509.018 49.61 510.638 50.87C512.258 52.13 514.478 53.69 517.298 55.55C520.598 57.71 523.238 59.63 525.218 61.31C527.198 62.93 528.878 64.91 530.258 67.25C531.698 69.53 532.418 72.11 532.418 74.99C532.418 78.17 531.548 81.17 529.808 83.99C528.068 86.75 525.458 89 521.978 90.74C518.498 92.48 514.298 93.35 509.378 93.35C498.818 93.35 491.318 89.15 486.878 80.75L497.048 72.92C499.928 78.86 503.168 84.62 506.768 90.2H506.858C508.598 90.2 510.218 89.75 511.718 88.85C513.218 87.89 514.418 86.66 515.318 85.16C516.218 83.66 516.668 82.07 516.668 80.39C516.668 78.59 516.128 76.94 515.048 75.44C514.028 73.88 512.738 72.53 511.178 71.39C509.618 70.19 507.488 68.75 504.788 67.07C501.548 65.03 498.938 63.23 496.958 61.67C494.978 60.11 493.268 58.22 491.828 56C490.448 53.72 489.758 51.11 489.758 48.17C489.758 44.87 490.688 41.87 492.548 39.17C494.468 36.41 497.168 34.25 500.648 32.69C504.188 31.13 508.328 30.35 513.068 30.35C517.688 30.35 521.468 31.1 524.408 32.6C527.408 34.04 530.108 36.11 532.508 38.81L523.058 48.35C519.878 43.07 516.668 38.12 513.428 33.5C510.728 33.5 508.628 34.25 507.128 35.75C505.688 37.19 504.968 39.02 504.968 41.24Z" fill="#15263D"/>
<path d="M248 147L525.056 147.61" stroke="#FF5500" stroke-width="4"/>
</svg>
