<svg width="576" height="586" viewBox="0 0 576 586" fill="none" xmlns="http://www.w3.org/2000/svg">
<circle cx="276" cy="287" r="247" fill="#FF5500"/>
<path d="M250.33 315.23C246.343 315.23 243.57 314.147 242.01 311.98C240.363 309.813 239.54 307.17 239.54 304.05C239.54 301.017 240.363 298.417 242.01 296.25C243.57 294.083 246.343 293 250.33 293C254.143 293 256.917 294.083 258.65 296.25C260.297 298.417 261.12 301.017 261.12 304.05C261.12 307.17 260.297 309.813 258.65 311.98C256.917 314.147 254.143 315.23 250.33 315.23ZM302.72 315.23C298.733 315.23 295.96 314.147 294.4 311.98C292.753 309.813 291.93 307.17 291.93 304.05C291.93 301.017 292.753 298.417 294.4 296.25C295.96 294.083 298.733 293 302.72 293C306.533 293 309.307 294.083 311.04 296.25C312.687 298.417 313.51 301.017 313.51 304.05C313.51 307.17 312.687 309.813 311.04 311.98C309.307 314.147 306.533 315.23 302.72 315.23Z" fill="#FED002"/>
<path d="M276.2 328.73C286.687 328.73 296.783 330.29 306.49 333.41C316.11 336.444 324.733 341.254 332.36 347.84L332.36 363.57C324.387 357.677 315.547 353.214 305.84 350.18C296.047 347.147 286.123 345.63 276.07 345.63C265.757 345.63 255.703 347.19 245.91 350.31C236.117 353.344 227.147 357.807 219 363.7L219 347.84C226.887 341.254 235.77 336.444 245.65 333.41C255.443 330.29 265.627 328.73 276.2 328.73Z" fill="#FED002"/>
<path d="M85.268 267.689L87.8474 266.69L76.2942 234.975L73.6762 235.869L73 234.013L87.001 228.912L87.6772 230.768L85.0979 231.768L96.6511 263.483L99.2691 262.589L99.9453 264.445L85.9442 269.546L85.268 267.689Z" fill="#FED002"/>
<path d="M133.244 214.628L133.799 216.524L131.16 217.354L139.778 252.059L133.239 254.03L104.684 228.977L115.17 257.196L118.382 256.316L118.937 258.212L107.885 261.443L107.33 259.547L109.969 258.717L101.418 226.05L98.7474 226.772L98.193 224.876L111.574 220.964L134.483 240.787L126.501 218.716L123.289 219.597L122.734 217.701L133.244 214.628Z" fill="#FED002"/>
<path d="M172.135 239.061C173.756 238.724 175.252 238.066 176.625 237.089C177.997 236.111 179.198 234.862 180.226 233.341L181.996 234.645C178.662 241.335 174.065 245.29 168.208 246.509C164.855 247.207 161.77 247.061 158.95 246.072C156.167 245.076 153.807 243.338 151.869 240.858C149.931 238.379 148.574 235.279 147.8 231.558C147.133 228.353 147.096 225.132 147.691 221.895C148.314 218.614 149.396 215.871 150.936 213.667C152.562 212.06 154.378 210.721 156.384 209.65C158.42 208.535 160.487 207.758 162.587 207.321C165.387 206.739 168.074 206.813 170.648 207.546C173.251 208.234 175.456 209.505 177.264 211.358L171.652 218.464C169.031 215.474 165.966 212.287 162.456 208.905C160.973 209.906 159.737 211.355 158.748 213.252C157.759 215.149 157.112 217.301 156.806 219.71C156.537 222.11 156.656 224.526 157.162 226.957C158.128 231.599 159.907 234.976 162.499 237.089C165.128 239.194 168.34 239.851 172.135 239.061Z" fill="#FED002"/>
<path d="M203.221 200.638C206.879 200.169 210.161 200.469 213.068 201.538C216.011 202.602 218.407 204.419 220.254 206.99C222.138 209.556 223.337 212.835 223.849 216.829C224.174 219.367 224.063 222.056 223.517 224.895C222.966 227.697 221.966 230.254 220.517 232.564C218.941 234.473 217.062 236.099 214.882 237.44C212.698 238.745 210.299 239.564 207.686 239.899C204.066 240.364 200.784 240.064 197.84 238.999C194.933 237.93 192.538 236.113 190.654 233.547C188.807 230.977 187.627 227.695 187.115 223.701C186.794 221.2 186.926 218.528 187.51 215.684C188.093 212.839 189.11 210.262 190.559 207.952C192.098 206.047 193.941 204.445 196.088 203.146C198.268 201.804 200.646 200.968 203.221 200.638ZM196.578 218.504C197.133 222.834 198.14 226.252 199.6 228.758C201.059 231.265 203.009 233.007 205.448 233.984C207.883 234.923 210.922 235.255 214.567 234.977C214.775 233.053 214.85 230.824 214.79 228.29C214.764 225.714 214.647 223.623 214.442 222.019C213.882 217.652 212.853 214.217 211.357 211.716C209.892 209.172 207.922 207.414 205.445 206.442C202.968 205.469 199.929 205.138 196.327 205.448C196.165 207.442 196.118 209.743 196.187 212.352C196.256 214.961 196.386 217.011 196.578 218.504Z" fill="#FED002"/>
<path d="M270.872 232.369L270.961 234.342L257.372 234.958L249.019 220.194L249.183 220.073C248.322 220.188 247.104 220.318 245.529 220.465L246.116 233.434L248.882 233.365L248.971 235.338L234.085 236.013L233.996 234.039L236.756 233.858L235.229 200.139L232.463 200.208L232.374 198.234L243.261 197.854L251.632 196.797C254.339 196.674 256.673 197.077 258.637 198.005C260.636 198.894 262.162 200.162 263.216 201.809C264.306 203.417 264.897 205.236 264.989 207.266C265.094 209.597 264.51 211.657 263.235 213.448C261.96 215.238 259.993 216.721 257.334 217.896L268.107 232.437L270.872 232.369ZM245.429 218.266C248.541 217.937 250.946 216.98 252.644 215.396C254.341 213.775 255.131 211.668 255.013 209.074C254.93 207.232 254.422 205.579 253.489 204.114C252.556 202.65 251.319 201.519 249.776 200.723C248.233 199.927 246.503 199.572 244.586 199.659L245.429 218.266Z" fill="#FED002"/>
<path d="M314.557 233.735L314.485 235.709L300.891 235.217L293.767 219.822L293.941 219.715C293.073 219.759 291.848 219.79 290.266 219.808L289.796 232.781L292.558 232.938L292.486 234.912L277.595 234.373L277.667 232.398L280.433 232.442L281.655 198.711L278.893 198.554L278.964 196.58L289.847 197.087L298.276 196.715C300.983 196.813 303.278 197.405 305.159 198.489C307.079 199.538 308.497 200.926 309.413 202.654C310.369 204.345 310.81 206.206 310.736 208.237C310.652 210.568 309.901 212.574 308.485 214.255C307.068 215.936 304.987 217.254 302.242 218.208L311.795 233.578L314.557 233.735ZM290.346 217.608C293.474 217.533 295.949 216.776 297.771 215.335C299.594 213.858 300.553 211.821 300.647 209.227C300.713 207.384 300.342 205.695 299.531 204.16C298.721 202.624 297.579 201.397 296.106 200.477C294.633 199.558 292.938 199.063 291.02 198.994L290.346 217.608Z" fill="#FED002"/>
<path d="M350.767 228.39L349.524 239.554L321.083 236.386L321.301 234.423L324.056 234.673L327.792 201.127L325.05 200.765L325.269 198.801L352.588 201.844L351.376 212.727L349.194 212.427L349.394 209.61C345.531 206.567 341.453 203.917 337.161 201.659L335.536 217.267L346.026 218.435L345.795 220.51L335.305 219.342L333.543 236.184C338.534 234.884 343.402 233.155 348.148 230.995L348.573 228.203L350.767 228.39Z" fill="#FED002"/>
<path d="M379.396 238.984C381.024 239.282 382.658 239.237 384.298 238.848C385.937 238.46 387.52 237.755 389.046 236.734L390.195 238.608C384.585 243.549 378.837 245.48 372.952 244.403C369.584 243.786 366.78 242.489 364.541 240.51C362.339 238.539 360.807 236.039 359.946 233.013C359.085 229.986 358.996 226.603 359.681 222.865C360.271 219.645 361.45 216.647 363.221 213.873C365.035 211.068 367.071 208.935 369.327 207.474C371.439 206.598 373.625 206.042 375.887 205.806C378.193 205.539 380.401 205.599 382.511 205.986C385.324 206.501 387.784 207.582 389.893 209.231C392.045 210.849 393.609 212.857 394.585 215.254L386.709 219.723C385.408 215.965 383.769 211.859 381.792 207.403C380.042 207.771 378.351 208.648 376.72 210.032C375.09 211.417 373.679 213.167 372.488 215.283C371.334 217.405 370.534 219.688 370.087 222.131C369.233 226.794 369.608 230.593 371.214 233.526C372.856 236.467 375.583 238.286 379.396 238.984Z" fill="#FED002"/>
<path d="M434.968 219.144L432.23 229.746L430.113 229.141L430.709 226.38C427.653 222.715 425.051 219.924 422.902 218.009L414.433 250.799L418.736 251.969L418.242 253.882L400.536 249.308L401.03 247.396L405.361 248.456L413.831 215.666C411.024 216.301 407.396 217.482 402.947 219.209L402.132 221.913L399.986 221.418L402.725 210.815L434.968 219.144Z" fill="#FED002"/>
<path d="M461.54 226.892C465.029 228.086 467.841 229.805 469.977 232.047C472.149 234.301 473.496 236.989 474.018 240.111C474.577 243.245 474.204 246.717 472.9 250.527C472.072 252.948 470.785 255.311 469.042 257.618C467.31 259.889 465.284 261.741 462.964 263.174C460.707 264.191 458.304 264.821 455.756 265.062C453.219 265.268 450.705 264.945 448.213 264.092C444.76 262.91 441.947 261.192 439.775 258.937C437.64 256.695 436.292 254.007 435.734 250.873C435.212 247.751 435.603 244.285 436.906 240.476C437.722 238.09 439.02 235.751 440.8 233.456C442.579 231.162 444.629 229.298 446.949 227.865C449.171 226.835 451.532 226.212 454.032 225.994C456.581 225.752 459.083 226.052 461.54 226.892ZM447.691 239.991C446.278 244.12 445.673 247.632 445.876 250.525C446.079 253.419 447.059 255.842 448.816 257.796C450.586 259.714 453.167 261.353 456.56 262.713C457.596 261.079 458.647 259.112 459.713 256.812C460.826 254.488 461.645 252.561 462.168 251.03C463.594 246.865 464.187 243.329 463.949 240.424C463.758 237.495 462.766 235.048 460.973 233.082C459.18 231.116 456.599 229.477 453.23 228.165C452.205 229.882 451.147 231.926 450.057 234.298C448.967 236.669 448.179 238.567 447.691 239.991Z" fill="#FED002"/>
</svg>
