<svg width="269" height="37" viewBox="0 0 269 37" fill="none" xmlns="http://www.w3.org/2000/svg">
<path d="M1.08 25.95L2.55 25.92V7.98L1.08 7.95V6.9H9V7.95L7.53 7.98V25.92L9 25.95V27H1.08V25.95ZM34.0781 6.9V7.95L32.6081 7.98L31.8281 26.97L28.1981 27L17.3681 9.96L18.5081 25.92L20.2781 25.95V27H14.1581V25.95L15.6281 25.92L16.1381 7.98L14.6681 7.95V6.9H22.0781L30.8081 20.43L30.0281 7.98L28.2581 7.95V6.9H34.0781ZM44.678 10.08C44.678 10.72 44.858 11.31 45.218 11.85C45.578 12.39 46.028 12.87 46.568 13.29C47.108 13.71 47.848 14.23 48.788 14.85C49.888 15.57 50.768 16.21 51.428 16.77C52.088 17.31 52.648 17.97 53.108 18.75C53.588 19.51 53.828 20.37 53.828 21.33C53.828 22.39 53.538 23.39 52.958 24.33C52.378 25.25 51.508 26 50.348 26.58C49.188 27.16 47.788 27.45 46.148 27.45C42.628 27.45 40.128 26.05 38.648 23.25L42.038 20.64C42.998 22.62 44.078 24.54 45.278 26.4H45.308C45.888 26.4 46.428 26.25 46.928 25.95C47.428 25.63 47.828 25.22 48.128 24.72C48.428 24.22 48.578 23.69 48.578 23.13C48.578 22.53 48.398 21.98 48.038 21.48C47.698 20.96 47.268 20.51 46.748 20.13C46.228 19.73 45.518 19.25 44.618 18.69C43.538 18.01 42.668 17.41 42.008 16.89C41.348 16.37 40.778 15.74 40.298 15C39.838 14.24 39.608 13.37 39.608 12.39C39.608 11.29 39.918 10.29 40.538 9.39C41.178 8.47 42.078 7.75 43.238 7.23C44.418 6.71 45.798 6.45 47.378 6.45C48.918 6.45 50.178 6.7 51.158 7.2C52.158 7.68 53.058 8.37 53.858 9.27L50.708 12.45C49.648 10.69 48.578 9.04 47.498 7.5C46.598 7.5 45.898 7.75 45.398 8.25C44.918 8.73 44.678 9.34 44.678 10.08ZM75.4514 6.9V12.72L74.2814 12.69L74.2214 11.19C72.1614 9.71 70.4514 8.62 69.0914 7.92V25.92L71.4614 25.95V27H61.7414V25.95L64.1114 25.92V7.92C62.7514 8.62 61.0414 9.71 58.9814 11.19L58.9214 12.69L57.7514 12.72V6.9H75.4514ZM99.2039 25.95V27H91.9739L87.8939 18.96L87.9839 18.9C87.5239 18.94 86.8739 18.98 86.0339 19.02V25.92L87.5039 25.95V27H79.5839V25.95L81.0539 25.92V7.98L79.5839 7.95V6.9L85.3739 6.96L89.8439 6.6C91.2839 6.6 92.5139 6.87 93.5339 7.41C94.5739 7.93 95.3539 8.64 95.8739 9.54C96.4139 10.42 96.6839 11.4 96.6839 12.48C96.6839 13.72 96.3239 14.8 95.6039 15.72C94.8839 16.64 93.8039 17.38 92.3639 17.94L97.7339 25.92L99.2039 25.95ZM86.0339 17.85C87.6939 17.75 88.9939 17.3 89.9339 16.5C90.8739 15.68 91.3439 14.58 91.3439 13.2C91.3439 12.22 91.1139 11.33 90.6539 10.53C90.1939 9.73 89.5639 9.1 88.7639 8.64C87.9639 8.18 87.0539 7.95 86.0339 7.95V17.85ZM122.074 6.9V7.95L120.604 7.98V27H119.644L115.804 24.48C115.064 25.38 114.174 26.1 113.134 26.64C112.094 27.18 111.004 27.45 109.864 27.45C107.784 27.45 106.174 26.79 105.034 25.47C103.894 24.15 103.324 22.1 103.324 19.32V7.98L101.854 7.95V6.9H109.864V7.95L108.394 7.98V18.57C108.394 20.41 108.774 21.79 109.534 22.71C110.294 23.61 111.334 24.06 112.654 24.06C113.774 24.06 114.764 23.83 115.624 23.37V7.98L114.154 7.95V6.9H122.074ZM138.412 24C139.292 24 140.142 23.82 140.962 23.46C141.782 23.1 142.542 22.58 143.242 21.9L144.022 22.77C141.562 25.89 138.742 27.45 135.562 27.45C133.742 27.45 132.152 27.04 130.792 26.22C129.452 25.4 128.412 24.24 127.672 22.74C126.932 21.24 126.562 19.48 126.562 17.46C126.562 15.72 126.892 14.04 127.552 12.42C128.232 10.78 129.092 9.47 130.132 8.49C131.152 7.83 132.242 7.33 133.402 6.99C134.582 6.63 135.742 6.45 136.882 6.45C138.402 6.45 139.792 6.78 141.052 7.44C142.332 8.08 143.342 8.98 144.082 10.14L140.392 13.23C139.352 11.39 138.102 9.4 136.642 7.26C135.762 7.62 134.962 8.24 134.242 9.12C133.522 10 132.952 11.05 132.532 12.27C132.132 13.49 131.932 14.76 131.932 16.08C131.932 18.6 132.492 20.55 133.612 21.93C134.752 23.31 136.352 24 138.412 24ZM159.722 24C160.602 24 161.452 23.82 162.272 23.46C163.092 23.1 163.852 22.58 164.552 21.9L165.332 22.77C162.872 25.89 160.052 27.45 156.872 27.45C155.052 27.45 153.462 27.04 152.102 26.22C150.762 25.4 149.722 24.24 148.982 22.74C148.242 21.24 147.872 19.48 147.872 17.46C147.872 15.72 148.202 14.04 148.862 12.42C149.542 10.78 150.402 9.47 151.442 8.49C152.462 7.83 153.552 7.33 154.712 6.99C155.892 6.63 157.052 6.45 158.192 6.45C159.712 6.45 161.102 6.78 162.362 7.44C163.642 8.08 164.652 8.98 165.392 10.14L161.702 13.23C160.662 11.39 159.412 9.4 157.952 7.26C157.072 7.62 156.272 8.24 155.552 9.12C154.832 10 154.262 11.05 153.842 12.27C153.442 13.49 153.242 14.76 153.242 16.08C153.242 18.6 153.802 20.55 154.922 21.93C156.062 23.31 157.662 24 159.722 24ZM169.543 25.95L171.013 25.92V7.98L169.543 7.95V6.9H177.463V7.95L175.993 7.98V25.92L177.463 25.95V27H169.543V25.95ZM192.311 6.45C194.271 6.45 195.981 6.83 197.441 7.59C198.921 8.35 200.061 9.47 200.861 10.95C201.681 12.43 202.091 14.24 202.091 16.38C202.091 17.74 201.851 19.15 201.371 20.61C200.891 22.05 200.191 23.33 199.271 24.45C198.311 25.35 197.211 26.08 195.971 26.64C194.731 27.18 193.411 27.45 192.011 27.45C190.071 27.45 188.361 27.07 186.881 26.31C185.421 25.55 184.281 24.43 183.461 22.95C182.661 21.47 182.261 19.66 182.261 17.52C182.261 16.18 182.511 14.78 183.011 13.32C183.511 11.86 184.221 10.57 185.141 9.45C186.081 8.55 187.161 7.83 188.381 7.29C189.621 6.73 190.931 6.45 192.311 6.45ZM187.601 15.42C187.601 17.74 187.901 19.61 188.501 21.03C189.101 22.45 190.011 23.5 191.231 24.18C192.451 24.84 194.031 25.22 195.971 25.32C196.211 24.32 196.401 23.15 196.541 21.81C196.701 20.45 196.781 19.34 196.781 18.48C196.781 16.14 196.471 14.26 195.851 12.84C195.251 11.4 194.331 10.34 193.091 9.66C191.851 8.98 190.271 8.6 188.351 8.52C188.131 9.56 187.951 10.77 187.811 12.15C187.671 13.53 187.601 14.62 187.601 15.42ZM226.811 6.9V7.95L225.341 7.98L224.561 26.97L220.931 27L210.101 9.96L211.241 25.92L213.011 25.95V27H206.891V25.95L208.361 25.92L208.871 7.98L207.401 7.95V6.9H214.811L223.541 20.43L222.761 7.98L220.991 7.95V6.9H226.811ZM247.19 21.03V27H231.98V25.95L233.45 25.92V7.98L231.98 7.95V6.9H246.59V12.72L245.42 12.69L245.36 11.19C243.14 9.81 240.83 8.65 238.43 7.71L238.49 16.05H244.1V17.16H238.49L238.55 26.16C241.11 25.18 243.58 23.98 245.96 22.56L246.02 21.06L247.19 21.03ZM257.461 10.08C257.461 10.72 257.641 11.31 258.001 11.85C258.361 12.39 258.811 12.87 259.351 13.29C259.891 13.71 260.631 14.23 261.571 14.85C262.671 15.57 263.551 16.21 264.211 16.77C264.871 17.31 265.431 17.97 265.891 18.75C266.371 19.51 266.611 20.37 266.611 21.33C266.611 22.39 266.321 23.39 265.741 24.33C265.161 25.25 264.291 26 263.131 26.58C261.971 27.16 260.571 27.45 258.931 27.45C255.411 27.45 252.911 26.05 251.431 23.25L254.821 20.64C255.781 22.62 256.861 24.54 258.061 26.4H258.091C258.671 26.4 259.211 26.25 259.711 25.95C260.211 25.63 260.611 25.22 260.911 24.72C261.211 24.22 261.361 23.69 261.361 23.13C261.361 22.53 261.181 21.98 260.821 21.48C260.481 20.96 260.051 20.51 259.531 20.13C259.011 19.73 258.301 19.25 257.401 18.69C256.321 18.01 255.451 17.41 254.791 16.89C254.131 16.37 253.561 15.74 253.081 15C252.621 14.24 252.391 13.37 252.391 12.39C252.391 11.29 252.701 10.29 253.321 9.39C253.961 8.47 254.861 7.75 256.021 7.23C257.201 6.71 258.581 6.45 260.161 6.45C261.701 6.45 262.961 6.7 263.941 7.2C264.941 7.68 265.841 8.37 266.641 9.27L263.491 12.45C262.431 10.69 261.361 9.04 260.281 7.5C259.381 7.5 258.681 7.75 258.181 8.25C257.701 8.73 257.461 9.34 257.461 10.08Z" fill="#15263D"/>
</svg>
