<svg width="102" height="102" viewBox="0 0 102 102" fill="none" xmlns="http://www.w3.org/2000/svg">
<g style="mix-blend-mode:exclusion">
<g style="mix-blend-mode:difference">
<circle cx="51" cy="51" r="51" fill="#DA8D24"/>
</g>
<path d="M30.6916 88.8953C30.8481 88.5528 31.0704 88.2743 31.3585 88.0597C31.644 87.8508 31.9893 87.7337 32.3945 87.7084C32.7998 87.6832 33.2438 87.7808 33.7267 88.0015L34.6196 88.4094L35.5894 86.2868L37.0297 86.9449L34.3281 92.8578L31.995 91.7918C31.5233 91.5763 31.1618 91.3127 30.9105 91.0011C30.6592 90.6894 30.5176 90.3532 30.4856 89.9924C30.4536 89.6316 30.5223 89.2659 30.6916 88.8953ZM33.3129 89.197C33.0377 89.0713 32.8033 89.0422 32.6095 89.1098C32.4157 89.1774 32.2649 89.3291 32.1572 89.565C32.0494 89.8008 32.0334 90.0141 32.1092 90.2048C32.1849 90.3955 32.3604 90.5537 32.6356 90.6795L33.4189 91.0374L34.0962 89.5549L33.3129 89.197Z" fill="#F5DBC2"/>
<path d="M26.5236 82.2281L28.4732 83.6723L29.4693 82.9812L30.8012 83.9679L25.0416 87.7914L23.5682 86.7L25.5478 80.0762L26.8946 81.0739L26.5236 82.2281ZM26.1234 83.4529L25.3542 85.8448L27.4108 84.4065L26.1234 83.4529Z" fill="#F5DBC2"/>
<path d="M22.2865 76.556C22.6014 76.912 22.8259 77.2822 22.9598 77.6666C23.0937 78.0509 23.123 78.4288 23.0478 78.8003C22.9684 79.1672 22.7733 79.4964 22.4624 79.7879L21.3458 78.5255C21.5098 78.3475 21.5933 78.1624 21.5963 77.9701C21.5947 77.7819 21.5182 77.6023 21.3669 77.4312C21.2115 77.2555 21.0494 77.1515 20.8808 77.1194C20.7076 77.0912 20.5493 77.1406 20.406 77.2674C20.2858 77.3737 20.2232 77.5033 20.2182 77.6561C20.2091 77.8042 20.2323 77.9609 20.2878 78.1261C20.3392 78.2867 20.4286 78.5043 20.5561 78.7789C20.7372 79.1793 20.8671 79.5218 20.9459 79.8065C21.0246 80.0913 21.0326 80.3892 20.9698 80.7002C20.907 81.0113 20.7231 81.3018 20.4179 81.5717C19.9647 81.9726 19.4657 82.1213 18.921 82.018C18.3716 81.9187 17.8638 81.6055 17.3975 81.0784C16.923 80.542 16.6701 79.9951 16.6386 79.4377C16.6025 78.8844 16.8031 78.3938 17.2405 77.9657L18.3755 79.2489C18.2265 79.3972 18.1551 79.5634 18.1613 79.7475C18.1629 79.9356 18.2373 80.113 18.3846 80.2794C18.5114 80.4228 18.6529 80.5036 18.8093 80.5219C18.961 80.5444 19.1085 80.4922 19.2518 80.3654C19.4091 80.2263 19.4662 80.0439 19.4231 79.8182C19.3801 79.5925 19.2704 79.2775 19.094 78.873C18.9222 78.4645 18.7989 78.1202 18.7243 77.8401C18.6455 77.5554 18.6352 77.2595 18.6933 76.9526C18.7515 76.6456 18.9262 76.3633 19.2176 76.1056C19.495 75.8602 19.8104 75.7089 20.1638 75.6518C20.5131 75.5901 20.8734 75.6341 21.2448 75.7836C21.6161 75.9332 21.9633 76.1907 22.2865 76.556Z" fill="#F5DBC2"/>
<path d="M16.1101 69.7854L17.3056 71.8966L18.4964 71.6693L19.3132 73.1117L12.4973 74.268L11.5939 72.6725L16.0918 67.4226L16.9177 68.8811L16.1101 69.7854ZM15.2472 70.7422L13.5732 72.6159L16.0365 72.1363L15.2472 70.7422Z" fill="#F5DBC2"/>
<path d="M8.23333 64.7125C8.03465 64.0566 7.99101 63.4441 8.10242 62.875C8.21382 62.3058 8.46559 61.8167 8.85772 61.4076C9.24215 60.9944 9.7416 60.6948 10.3561 60.5086C10.9646 60.3242 11.5464 60.2964 12.1015 60.425C12.6547 60.5476 13.1364 60.8178 13.5468 61.2353C13.9553 61.647 14.258 62.1777 14.4549 62.8277L15.161 65.1585L8.93945 67.0433L8.23333 64.7125ZM13.1728 63.3225C12.9991 62.7494 12.7074 62.3507 12.2976 62.1266C11.8878 61.9024 11.3964 61.8771 10.8233 62.0507C10.2501 62.2243 9.85237 62.519 9.62997 62.9347C9.40757 63.3504 9.38319 63.8448 9.55681 64.418L9.77428 65.1358L13.3902 64.0404L13.1728 63.3225Z" fill="#F5DBC2"/>
<path d="M12.8726 54.1285C12.9147 54.7382 12.8119 55.3085 12.5639 55.8393C12.3156 56.3639 11.9493 56.7946 11.4651 57.1313C10.9744 57.4623 10.4119 57.6498 9.7775 57.6936C9.14313 57.7375 8.56321 57.6291 8.03773 57.3684C7.51182 57.1016 7.08974 56.7255 6.77149 56.24C6.45282 55.7484 6.27239 55.1978 6.2302 54.5881C6.18802 53.9783 6.29111 53.4111 6.53948 52.8865C6.78742 52.3557 7.15389 51.9281 7.63889 51.6037C8.12347 51.2732 8.68294 51.0859 9.31731 51.042C9.95167 50.9982 10.5347 51.1063 11.0663 51.3666C11.5918 51.6273 12.0137 52.0003 12.3319 52.4858C12.6502 52.9712 12.8304 53.5188 12.8726 54.1285ZM11.4314 54.2282C11.3956 53.7109 11.1946 53.3102 10.8284 53.0261C10.4618 52.7358 9.99514 52.6103 9.42852 52.6495C8.85574 52.6891 8.41085 52.8777 8.09384 53.2153C7.77025 53.5471 7.62635 53.9716 7.66214 54.489C7.69836 55.0125 7.89671 55.4196 8.25718 55.7102C8.61722 55.9948 9.08671 56.117 9.66565 56.0769C10.2384 56.0373 10.6866 55.8516 11.0102 55.5198C11.3272 55.1822 11.4676 54.7517 11.4314 54.2282Z" fill="#F5DBC2"/>
<path d="M10.14 38.8555C10.5058 38.9452 10.821 39.1115 11.0856 39.3543C11.3443 39.5957 11.5239 39.9131 11.6245 40.3064C11.7251 40.6998 11.7123 41.1543 11.5858 41.6699L11.3521 42.6233L13.6186 43.1789L13.2416 44.7169L6.92773 43.1691L7.5385 40.6777C7.66197 40.174 7.85328 39.7696 8.11242 39.4645C8.37157 39.1593 8.67535 38.9573 9.02378 38.8584C9.3722 38.7595 9.74429 38.7585 10.14 38.8555ZM10.334 41.487C10.406 41.1932 10.3907 40.9574 10.2881 40.7797C10.1854 40.602 10.0082 40.4823 9.75637 40.4205C9.50454 40.3588 9.29203 40.383 9.11884 40.4931C8.94565 40.6031 8.82304 40.8051 8.75102 41.0989L8.54596 41.9354L10.1289 42.3234L10.334 41.487Z" fill="#F5DBC2"/>
<path d="M16.6231 34.6641L13.8275 34.8495L13.6667 35.1935L15.8897 36.2329L15.219 37.6673L9.33008 34.9139L10.4558 32.5064C10.6728 32.0422 10.9382 31.6858 11.2521 31.4373C11.5685 31.1832 11.9073 31.0417 12.2683 31.0129C12.6238 30.9814 12.9749 31.0467 13.3216 31.2089C13.7131 31.3919 14.0103 31.6672 14.2133 32.0347C14.4189 32.3966 14.4854 32.823 14.4127 33.3137L17.3801 33.0451L16.6231 34.6641ZM12.6516 34.7189L13.0674 33.8297C13.1903 33.5668 13.2175 33.341 13.149 33.1522C13.0831 32.9579 12.9327 32.8058 12.6979 32.696C12.4742 32.5914 12.2666 32.5761 12.0752 32.6502C11.8865 32.7187 11.7306 32.8844 11.6077 33.1472L11.192 34.0364L12.6516 34.7189Z" fill="#F5DBC2"/>
<path d="M15.3994 26.5346L16.4648 27.3053L17.7078 25.5871L18.6982 26.3036L17.4552 28.0218L18.6107 28.8576L20.0165 26.9143L21.0444 27.6579L18.7105 30.8842L13.4434 27.074L15.7773 23.8477L16.8052 24.5913L15.3994 26.5346Z" fill="#F5DBC2"/>
<path d="M24.5638 24.0032C24.2191 24.3306 23.8571 24.568 23.4777 24.7154C23.0984 24.8629 22.7217 24.9056 22.3478 24.8435C21.9783 24.7772 21.6424 24.5939 21.3401 24.2935L22.5621 23.1329C22.7458 23.2904 22.9338 23.3673 23.1261 23.3636C23.3141 23.3553 23.4909 23.2725 23.6565 23.1152C23.8266 22.9537 23.9247 22.7881 23.9509 22.6184C23.9729 22.4443 23.918 22.2879 23.7862 22.1491C23.6756 22.0327 23.5439 21.9747 23.3911 21.9752C23.2427 21.9714 23.0869 22.0001 22.9238 22.0614C22.7651 22.1184 22.5508 22.2155 22.2809 22.3527C21.8872 22.5478 21.5495 22.6898 21.2678 22.7786C20.986 22.8674 20.6886 22.8859 20.3755 22.8342C20.0624 22.7825 19.7656 22.6089 19.485 22.3134C19.0683 21.8748 18.902 21.3814 18.986 20.8333C19.0657 20.2808 19.3607 19.7622 19.871 19.2775C20.3903 18.7843 20.9279 18.5121 21.4838 18.461C22.0354 18.4053 22.5329 18.5884 22.9762 19.0103L21.734 20.1901C21.5805 20.0464 21.4119 19.981 21.2281 19.9937C21.0401 20.0019 20.8656 20.0826 20.7044 20.2357C20.5657 20.3675 20.4899 20.5118 20.4771 20.6687C20.4601 20.8211 20.5175 20.9667 20.6493 21.1054C20.7938 21.2576 20.9781 21.3082 21.2021 21.2572C21.4262 21.2062 21.7371 21.0854 22.1351 20.8948C22.5372 20.7086 22.877 20.5733 23.1543 20.4887C23.436 20.3999 23.7313 20.3791 24.0402 20.4264C24.349 20.4736 24.6373 20.6383 24.9052 20.9203C25.1603 21.1889 25.3226 21.4987 25.3921 21.8499C25.4662 22.1968 25.435 22.5584 25.2987 22.9348C25.1624 23.3112 24.9174 23.6673 24.5638 24.0032Z" fill="#F5DBC2"/>
<path d="M26.7903 15.4799L27.5051 16.5835L29.285 15.4307L29.9496 16.4567L28.1697 17.6095L28.9449 18.8065L30.958 17.5026L31.6477 18.5674L28.3055 20.7322L24.7715 15.2759L28.1137 13.1111L28.8033 14.176L26.7903 15.4799Z" fill="#F5DBC2"/>
<path d="M39.4401 15.1049L37.9659 15.6831L34.0361 12.9173L35.5003 16.6502L34.0261 17.2284L31.6523 11.1765L33.1265 10.5983L37.0631 13.3813L35.5921 9.63119L37.0663 9.05297L39.4401 15.1049Z" fill="#F5DBC2"/>
<path d="M45.621 7.2377L45.8341 8.48834L44.1362 8.77773L45.0152 13.9355L43.4542 14.2015L42.5752 9.04378L40.8772 9.33316L40.6641 8.08252L45.621 7.2377Z" fill="#F5DBC2"/>
<path d="M50.7048 8.28768L50.689 9.60256L52.8095 9.62813L52.7947 10.8504L50.6742 10.8248L50.657 12.2508L53.0553 12.2798L53.04 13.5484L49.0583 13.5003L49.1367 7L53.1184 7.04801L53.1031 8.3166L50.7048 8.28768Z" fill="#F5DBC2"/>
<path d="M65.2542 9.43306L64.8971 10.6504L62.3557 9.90485L61.9699 11.22L63.8715 11.7778L63.5247 12.9597L61.6232 12.4018L60.8828 14.9254L59.3633 14.4796L61.1934 8.2417L65.2542 9.43306Z" fill="#F5DBC2"/>
<path d="M70.1392 11.5037L68.3352 14.9493C68.1548 15.2939 68.1007 15.6036 68.1729 15.8783C68.2451 16.153 68.4453 16.3763 68.7734 16.5481C69.1016 16.7199 69.4018 16.7586 69.6742 16.6643C69.9466 16.57 70.173 16.3505 70.3534 16.006L72.1574 12.5603L73.5603 13.2948L71.7606 16.7323C71.4914 17.2464 71.1544 17.6239 70.7495 17.8649C70.3446 18.1059 69.9089 18.2192 69.4425 18.205C68.9816 18.1936 68.5241 18.0691 68.0701 17.8314C67.6162 17.5938 67.2545 17.2929 66.9852 16.9289C66.7242 16.5623 66.5828 16.1468 66.5611 15.6825C66.5423 15.2127 66.6674 14.7208 66.9366 14.2066L68.7363 10.7692L70.1392 11.5037Z" fill="#F5DBC2"/>
<path d="M80.6222 18.5584L79.8212 19.5423L78.4855 18.4548L75.1822 22.5124L73.9542 21.5127L77.2575 17.4551L75.9217 16.3677L76.7227 15.3838L80.6222 18.5584Z" fill="#F5DBC2"/>
<path d="M84.2166 22.3125L81.2085 24.7779C80.9076 25.0244 80.7367 25.2882 80.6957 25.5693C80.6547 25.8504 80.7515 26.1342 80.9863 26.4207C81.2211 26.7072 81.4823 26.8603 81.7699 26.88C82.0575 26.8998 82.3517 26.7864 82.6525 26.5398L85.6607 24.0745L86.6644 25.2992L83.6634 27.7587C83.2146 28.1266 82.7567 28.3422 82.2898 28.4056C81.8229 28.4689 81.3776 28.4028 80.9539 28.2073C80.5342 28.0165 80.1619 27.7229 79.8371 27.3266C79.5123 26.9303 79.2971 26.512 79.1916 26.0716C79.0949 25.6321 79.1273 25.1944 79.289 24.7586C79.4554 24.3189 79.763 23.9151 80.2119 23.5473L83.2129 21.0878L84.2166 22.3125Z" fill="#F5DBC2"/>
<path d="M84.7111 34.736L86.2692 32.4073L86.0947 32.0701L83.9152 33.198L83.1874 31.7916L88.9609 28.8038L90.1824 31.1642C90.4179 31.6193 90.5385 32.047 90.544 32.4473C90.5525 32.8531 90.458 33.2078 90.2606 33.5115C90.0688 33.8124 89.8029 34.0508 89.4629 34.2267C89.0791 34.4254 88.6797 34.493 88.2646 34.4298C87.8524 34.372 87.474 34.1646 87.1294 33.8077L85.5325 36.3233L84.7111 34.736ZM87.0898 31.5551L87.541 32.4269C87.6743 32.6846 87.8367 32.8439 88.0281 32.9047C88.2223 32.9711 88.4345 32.9447 88.6648 32.8255C88.8841 32.712 89.0228 32.5568 89.0808 32.36C89.1416 32.1686 89.1054 31.9441 88.972 31.6864L88.5209 30.8146L87.0898 31.5551Z" fill="#F5DBC2"/>
<path d="M87.2302 41.6506C87.0728 41.0601 87.0653 40.4806 87.2077 39.9124C87.3517 39.3501 87.6293 38.8576 88.0406 38.4349C88.4594 38.0166 88.976 37.7255 89.5904 37.5617C90.2048 37.3979 90.7948 37.394 91.3603 37.55C91.9274 37.7119 92.4133 38.0008 92.8181 38.4168C93.2245 38.8388 93.5064 39.3451 93.6638 39.9357C93.8212 40.5262 93.8279 41.1027 93.6839 41.665C93.5415 42.2332 93.2631 42.7227 92.8486 43.1335C92.4358 43.5502 91.9222 43.8405 91.3078 44.0043C90.6933 44.1681 90.1004 44.1728 89.529 44.0184C88.9635 43.8625 88.4783 43.5765 88.0735 43.1605C87.6687 42.7445 87.3876 42.2412 87.2302 41.6506ZM88.6261 41.2785C88.7597 41.7796 89.0332 42.1348 89.4468 42.344C89.8619 42.5592 90.3439 42.5936 90.8927 42.4473C91.4475 42.2994 91.8484 42.0297 92.0954 41.638C92.3499 41.2507 92.4104 40.8065 92.2769 40.3054C92.1417 39.7983 91.8695 39.4364 91.4603 39.2196C91.0527 39.0088 90.5686 38.9782 90.0078 39.1276C89.4531 39.2755 89.0484 39.5431 88.7938 39.9304C88.5468 40.3221 88.4909 40.7715 88.6261 41.2785Z" fill="#F5DBC2"/>
<path d="M92.8175 56.1252C92.4413 56.1068 92.1003 56.0035 91.7943 55.8155C91.4944 55.6277 91.2577 55.3503 91.0841 54.9833C90.9104 54.6163 90.8366 54.1676 90.8626 53.6373L90.9107 52.6569L88.5798 52.5427L88.6574 50.961L95.1504 51.2793L95.0248 53.8414C94.9994 54.3593 94.8885 54.7927 94.6922 55.1416C94.4958 55.4905 94.236 55.7466 93.9128 55.91C93.5896 56.0734 93.2245 56.1452 92.8175 56.1252ZM92.1264 53.5788C92.1116 53.8809 92.1715 54.1094 92.3061 54.2644C92.4406 54.4193 92.6374 54.5031 92.8964 54.5158C93.1554 54.5285 93.3594 54.4644 93.5085 54.3233C93.6575 54.1823 93.7395 53.9607 93.7543 53.6585L93.7965 52.7984L92.1686 52.7186L92.1264 53.5788Z" fill="#F5DBC2"/>
<path d="M88.1678 62.4666L88.7869 60.1207L87.7758 59.4517L88.1987 57.8489L93.8843 61.7818L93.4165 63.5546L86.5307 64.1704L86.9583 62.5497L88.1678 62.4666ZM89.4537 62.3845L91.9604 62.2127L89.8625 60.8355L89.4537 62.3845Z" fill="#F5DBC2"/>
<path d="M84.469 68.5035C84.683 68.079 84.9437 67.7334 85.251 67.4666C85.5584 67.1998 85.8985 67.0326 86.2715 66.9648C86.6417 66.9025 87.0197 66.9618 87.4057 67.1425L86.6469 68.6475C86.4208 68.5611 86.2179 68.5521 86.0382 68.6206C85.864 68.6918 85.7255 68.8294 85.6227 69.0333C85.5171 69.2428 85.4805 69.4318 85.5131 69.6003C85.5512 69.7716 85.6557 69.9004 85.8266 69.9865C85.9699 70.0588 86.1134 70.0689 86.2572 70.017C86.3981 69.9705 86.5351 69.8909 86.668 69.7781C86.7981 69.6709 86.9671 69.5072 87.1749 69.287C87.4796 68.9705 87.7496 68.7229 87.9849 68.5442C88.2202 68.3656 88.4939 68.2478 88.8061 68.1908C89.1183 68.1339 89.4563 68.1971 89.8201 68.3806C90.3603 68.6529 90.6834 69.0613 90.7892 69.6055C90.9006 70.1526 90.7979 70.7403 90.481 71.3687C90.1586 72.0082 89.7444 72.4458 89.2384 72.6815C88.7379 72.9201 88.2078 72.9155 87.6481 72.668L88.4194 71.1382C88.6124 71.2217 88.7932 71.2264 88.9619 71.1524C89.136 71.0812 89.2732 70.9464 89.3732 70.748C89.4594 70.5771 89.482 70.4156 89.4411 70.2636C89.4057 70.1144 89.3026 69.9967 89.1317 69.9106C88.9442 69.8161 88.7537 69.8306 88.56 69.9542C88.3663 70.0778 88.1144 70.2965 87.8041 70.6102C87.4883 70.9211 87.2142 71.1632 86.9817 71.3363C86.7464 71.515 86.4754 71.6342 86.1687 71.6939C85.8621 71.7536 85.5351 71.696 85.1878 71.5209C84.8571 71.3541 84.5997 71.1172 84.4157 70.8101C84.229 70.5085 84.1363 70.1576 84.1376 69.7573C84.139 69.3569 84.2494 68.939 84.469 68.5035Z" fill="#F5DBC2"/>
<path d="M80.4694 76.7492L81.9875 74.8565L81.335 73.8346L82.3721 72.5415L85.9717 78.4438L84.8245 79.8741L78.2816 77.6416L79.3303 76.3341L80.4694 76.7492ZM81.6779 77.1961L84.0386 78.0567L82.6803 75.9464L81.6779 77.1961Z" fill="#F5DBC2"/>
<path d="M78.6768 85.9461C78.1412 86.3736 77.5885 86.6411 77.0186 86.7485C76.4487 86.8559 75.9011 86.8033 75.3758 86.5907C74.8496 86.3867 74.3862 86.0339 73.9856 85.5321C73.5889 85.0352 73.3474 84.5051 73.2612 83.942C73.1701 83.3827 73.2425 82.8351 73.4783 82.2993C73.7093 81.7673 74.0901 81.2894 74.6208 80.8657L76.5241 79.3462L80.5801 84.4265L78.6768 85.9461ZM75.5555 81.8733C75.0875 82.2469 74.8253 82.6655 74.769 83.1293C74.7126 83.593 74.8712 84.0588 75.2448 84.5268C75.6184 84.9948 76.0395 85.255 76.5081 85.3076C76.9766 85.3601 77.4448 85.1995 77.9128 84.8259L78.499 84.3579L76.1417 81.4053L75.5555 81.8733Z" fill="#F5DBC2"/>
<path d="M67.1271 85.5586C67.6778 85.2935 68.2456 85.1778 68.8305 85.2114C69.4098 85.2477 69.9455 85.4283 70.4377 85.7532C70.9269 86.0863 71.3095 86.5394 71.5853 87.1123C71.8611 87.6853 71.9753 88.2641 71.9279 88.8488C71.8749 89.4361 71.682 89.9675 71.349 90.443C71.0105 90.9211 70.5659 91.2928 70.0152 91.5579C69.4645 91.823 68.8995 91.9374 68.3202 91.9011C67.7353 91.8675 67.2024 91.6855 66.7213 91.3553C66.2347 91.0277 65.8535 90.5774 65.5777 90.0045C65.3019 89.4315 65.1863 88.8499 65.2311 88.2597C65.2785 87.675 65.4687 87.145 65.8016 86.6695C66.1346 86.194 66.5764 85.8237 67.1271 85.5586ZM67.7537 86.8603C67.2865 87.0852 66.9888 87.4204 66.8606 87.8658C66.7269 88.3139 66.7832 88.7938 67.0295 89.3055C67.2786 89.8229 67.6186 90.1662 68.0496 90.3356C68.4777 90.5132 68.9253 90.4895 69.3926 90.2646C69.8654 90.0369 70.17 89.7019 70.3064 89.2594C70.4373 88.8195 70.3768 88.3382 70.1251 87.8153C69.8761 87.298 69.5375 86.9505 69.1094 86.7729C68.6784 86.6035 68.2265 86.6326 67.7537 86.8603Z" fill="#F5DBC2"/>
</g>
</svg>
