<svg width="59" height="59" viewBox="0 0 59 59" fill="none" xmlns="http://www.w3.org/2000/svg">
<path d="M56.0264 28.8154C56.2748 43.5952 44.4947 55.778 29.7148 56.0264C14.935 56.2748 2.75219 44.4947 2.5038 29.7149C2.25541 14.935 14.0355 2.75222 28.8153 2.50383C43.5952 2.25544 55.778 14.0355 56.0264 28.8154Z" stroke="white" stroke-width="3"/>
<path d="M22.649 31.3764C23.7534 31.3578 24.6337 30.4475 24.6151 29.343C24.5965 28.2386 23.6862 27.3584 22.5818 27.3769L22.649 31.3764ZM20.3464 28.0004C19.5786 28.7944 19.5999 30.0606 20.3939 30.8284L33.334 43.3406C34.1281 44.1084 35.3942 44.0871 36.162 43.2931C36.9298 42.499 36.9085 41.2329 36.1145 40.465L24.6122 29.3431L35.7342 17.8408C36.502 17.0468 36.4807 15.7806 35.6866 15.0128C34.8926 14.245 33.6264 14.2663 32.8586 15.0603L20.3464 28.0004ZM22.5818 27.3769L21.7506 27.3909L21.8178 31.3903L22.649 31.3764L22.5818 27.3769Z" fill="white"/>
</svg>
