<svg width="101" height="103" viewBox="0 0 101 103" fill="none" xmlns="http://www.w3.org/2000/svg">
<path d="M98.0057 50.6395C52.1123 2.88391 18.2456 29.8413 2.83909 50.7105C1.91704 51.9595 1.9687 53.6987 2.92535 54.9211C37.636 99.2755 80.1574 78.0325 98.286 55.1784C99.3529 53.8333 99.1947 51.8768 98.0057 50.6395Z" fill="white" stroke="#DA8D24" stroke-width="3"/>
<path d="M65.3219 51.3717C65.3219 59.509 58.7253 66.1056 50.5879 66.1056C42.4506 66.1056 35.854 59.509 35.854 51.3717C35.854 43.2344 42.4506 36.6378 50.5879 36.6378C58.7253 36.6378 65.3219 43.2344 65.3219 51.3717Z" fill="#15263D"/>
<path d="M50.5879 41.8998C50.5879 45.9685 47.2896 49.2668 43.221 49.2668C39.1523 49.2668 35.854 45.9685 35.854 41.8998C35.854 37.8311 39.1523 34.5328 43.221 34.5328C47.2896 34.5328 50.5879 37.8311 50.5879 41.8998Z" fill="white"/>
<g style="mix-blend-mode:exclusion">
<path d="M13.1682 14.3053L13.1072 13.4942L14.7003 12.9844L13.953 3.03945L12.3017 2.77343L12.2407 1.96231L17.3014 1.58205C20.1696 1.36653 21.6789 2.25796 21.829 4.25635C21.8776 4.90289 21.726 5.48172 21.3743 5.99283C21.0344 6.50306 20.5432 6.88871 19.9008 7.14976L19.9035 7.18503C20.8806 7.28893 21.6482 7.59182 22.206 8.09369C22.7756 8.59468 23.0909 9.25074 23.1519 10.0618C23.2314 11.1198 22.9012 11.9958 22.1613 12.6898C21.4205 13.372 20.38 13.7634 19.0399 13.8641L13.1682 14.3053ZM16.8784 12.9448L18.4125 12.8296C19.2706 12.7651 19.9193 12.5095 20.3586 12.0627C20.7979 11.6159 20.9884 11.0046 20.9301 10.2288C20.8762 9.51172 20.5861 8.95426 20.0597 8.55642C19.5451 8.15769 18.8469 7.99145 17.9653 8.0577L16.5194 8.16634L16.8784 12.9448ZM16.4359 7.05547L17.441 6.97995C18.1228 6.92872 18.6666 6.6928 19.0724 6.2722C19.489 5.83895 19.6713 5.27555 19.6192 4.58199C19.5662 3.87668 19.3035 3.37035 18.8312 3.06302C18.3707 2.7548 17.7642 2.62895 17.0119 2.68548L16.1126 2.75305L16.4359 7.05547Z" fill="#DA8D24"/>
</g>
<g style="mix-blend-mode:exclusion">
<path d="M39.4413 0.169329C40.3958 0.144918 41.2425 0.282461 41.9812 0.581958C42.72 0.881455 43.35 1.30755 43.8712 1.86025C44.3924 2.41295 44.7927 3.08077 45.0722 3.8637C45.3516 4.64663 45.5034 5.50948 45.5275 6.45224C45.5519 7.40679 45.4446 8.28216 45.2055 9.07835C44.9783 9.87424 44.6186 10.5674 44.1267 11.1578C43.6462 11.7361 43.0388 12.1938 42.3045 12.531C41.582 12.8679 40.7376 13.0487 39.7713 13.0734C38.746 13.0996 37.8519 12.9515 37.089 12.629C36.3378 12.3063 35.7132 11.8623 35.2153 11.2972C34.7171 10.7204 34.34 10.0402 34.0841 9.25664C33.84 8.4728 33.7064 7.62718 33.6832 6.71977C33.6606 5.83593 33.7573 5.008 33.9734 4.23598C34.1892 3.45217 34.5313 2.76537 34.9997 2.17557C35.4678 1.57399 36.0689 1.09872 36.8028 0.749765C37.5483 0.388726 38.4278 0.195248 39.4413 0.169329ZM39.4679 1.21226C38.2659 1.243 37.3656 1.77309 36.7669 2.80253C36.1797 3.81989 35.9065 5.12402 35.9472 6.71494C35.9903 8.40012 36.3482 9.71759 37.0211 10.6673C37.7054 11.605 38.6133 12.0594 39.7446 12.0305C40.8759 12.0015 41.7534 11.5015 42.3772 10.5304C43.0124 9.54717 43.3085 8.21297 43.2654 6.52778C43.2247 4.93687 42.8792 3.64856 42.229 2.66285C41.5903 1.66505 40.67 1.18152 39.4679 1.21226Z" fill="#DA8D24"/>
</g>
<g style="mix-blend-mode:exclusion">
<path d="M56.053 6.4523C56.102 4.40171 56.7114 2.83026 57.8812 1.73797C59.0632 0.634175 60.7325 0.108014 62.8891 0.15949C64.2562 0.192119 65.3946 0.419749 66.3042 0.84238L66.2241 4.20111L65.4109 4.1817L64.6429 1.52792C64.0559 1.41958 63.5621 1.36062 63.1614 1.35106C61.6529 1.31505 60.4696 1.7349 59.6115 2.61059C58.7652 3.48656 58.3215 4.78485 58.2804 6.50546C58.239 8.23786 58.5848 9.56089 59.3177 10.4746C60.0508 11.3764 61.1304 11.8444 62.5564 11.8784C63.0749 11.8908 63.5414 11.8607 63.9558 11.788L64.044 8.09342L62.0377 7.67409L62.0524 7.05537L67.5501 7.18659L67.5354 7.80531L66.2184 8.14531L66.1196 12.2819C65.0216 12.8334 63.7478 13.0919 62.2983 13.0573C60.2241 13.0078 58.6524 12.4102 57.5831 11.2645C56.5138 10.1187 56.0038 8.51468 56.053 6.4523Z" fill="#DA8D24"/>
</g>
<g style="mix-blend-mode:exclusion">
<path d="M83.3208 1.1631C84.2731 1.23303 85.1021 1.45347 85.8077 1.82442C86.5133 2.19537 87.0982 2.68157 87.5623 3.28302C88.0264 3.88446 88.3588 4.58853 88.5596 5.39522C88.7604 6.20191 88.8263 7.07553 88.7573 8.01607C88.6873 8.96836 88.4941 9.82886 88.1776 10.5976C87.8729 11.3671 87.4466 12.0214 86.8988 12.5604C86.3636 13.0884 85.714 13.484 84.95 13.747C84.1978 14.0109 83.3396 14.1075 82.3756 14.0367C81.3527 13.9616 80.4776 13.726 79.7502 13.3298C79.0346 12.9344 78.4569 12.431 78.0172 11.8196C77.5783 11.1963 77.2702 10.4822 77.0929 9.67728C76.9274 8.87317 76.8779 8.01849 76.9443 7.11322C77.0091 6.23146 77.1871 5.41713 77.4783 4.6702C77.7704 3.91152 78.1786 3.26184 78.703 2.72116C79.2282 2.16871 79.8732 1.75509 80.638 1.48029C81.4155 1.19459 82.3098 1.08886 83.3208 1.1631ZM83.2444 2.20357C82.0453 2.11552 81.097 2.55416 80.3996 3.51948C79.7149 4.47392 79.3143 5.74471 79.1977 7.33187C79.0743 9.01308 79.3005 10.3595 79.8763 11.371C80.4648 12.3716 81.3233 12.9134 82.452 12.9963C83.5806 13.0791 84.5032 12.6682 85.2198 11.7633C85.9489 10.8476 86.3752 9.54917 86.4987 7.86796C86.6152 6.2808 86.3986 4.96468 85.8489 3.91961C85.3118 2.86364 84.4436 2.29163 83.2444 2.20357Z" fill="#DA8D24"/>
</g>
<g style="mix-blend-mode:exclusion">
<path d="M4.76383 90.936L5.15918 87.2082L15.6216 88.3178L15.2263 92.0456L14.3998 91.958L13.879 89.3244L11.3618 88.9152L10.2932 98.9908L11.8699 99.5492L11.7841 100.358L6.38586 99.7855L6.47164 98.9767L8.13039 98.7614L9.19897 88.6858L6.63437 88.5561L5.59027 91.0237L4.76383 90.936Z" fill="#DA8D24"/>
</g>
<g style="mix-blend-mode:exclusion">
<path d="M22.2538 101.306L22.2983 100.494L23.9792 100.196L28.8857 89.1845L30.1569 89.2542L33.5655 100.739L35.1696 101.199L35.1251 102.011L29.9342 101.727L29.9787 100.915L31.3017 100.686L30.5847 98.2561L26.259 98.0192L25.2132 100.299L26.7476 100.738L26.7031 101.55L22.2538 101.306ZM26.7045 96.9987L30.2533 97.1931L28.787 92.2782L26.7045 96.9987Z" fill="#DA8D24"/>
</g>
<g style="mix-blend-mode:exclusion">
<path d="M43.856 102.252L43.8576 101.439L45.4851 101.053L45.5039 91.0799L43.8779 90.6879L43.8794 89.8745L48.8836 89.8839C49.5201 89.8851 50.1035 89.9392 50.6338 90.0463C51.1641 90.1417 51.6766 90.3136 52.1712 90.562C52.6777 90.7988 53.0719 91.1591 53.3539 91.6429C53.6478 92.115 53.794 92.687 53.7928 93.359C53.7898 94.9268 52.9744 95.9862 51.3466 96.5372L53.7959 101.086L55.3512 101.478L55.3497 102.274L52.1315 102.268L49.2242 96.7984L47.6681 96.7955L47.6601 101.057L49.2861 101.449L49.2846 102.262L43.856 102.252ZM47.6701 95.7346L48.6957 95.7365C49.5562 95.7381 50.2463 95.5272 50.7657 95.1038C51.297 94.6804 51.5634 94.0856 51.5648 93.3194C51.5663 92.5649 51.308 91.9927 50.79 91.6027C50.2721 91.2009 49.577 90.9992 48.7046 90.9976L47.679 90.9956L47.6701 95.7346Z" fill="#DA8D24"/>
</g>
<g style="mix-blend-mode:exclusion">
<path d="M69.8988 89.1214C70.8523 89.071 71.7024 89.1854 72.4491 89.4647C73.1958 89.7439 73.8371 90.1527 74.3732 90.691C74.9093 91.2293 75.3277 91.8859 75.6283 92.661C75.929 93.436 76.1043 94.2944 76.1541 95.2361C76.2045 96.1896 76.1211 97.0676 75.9038 97.87C75.6983 98.6718 75.3577 99.3745 74.882 99.9781C74.4175 100.569 73.8228 101.043 73.098 101.4C72.3849 101.757 71.5457 101.961 70.5804 102.012C69.5563 102.066 68.6585 101.942 67.887 101.641C67.1273 101.338 66.4909 100.912 65.9778 100.36C65.464 99.7973 65.0685 99.1277 64.7914 98.3514C64.526 97.5745 64.3693 96.7328 64.3214 95.8264C64.2747 94.9435 64.3489 94.1133 64.5438 93.3356C64.7382 92.5462 65.0615 91.8504 65.5136 91.248C65.9651 90.6339 66.553 90.1424 67.2772 89.7736C68.0125 89.3924 68.8864 89.175 69.8988 89.1214ZM69.9539 90.1633C68.7531 90.2268 67.8676 90.7812 67.2972 91.8266C66.738 92.8596 66.5004 94.1707 66.5844 95.7599C66.6734 97.4433 67.0672 98.7505 67.7657 99.6815C68.4754 100.6 69.3952 101.03 70.5253 100.97C71.6554 100.91 72.519 100.386 73.116 99.3986C73.7242 98.3985 73.9838 97.0567 73.8948 95.3733C73.8108 93.7841 73.4303 92.5057 72.7535 91.538C72.0878 90.558 71.1546 90.0998 69.9539 90.1633Z" fill="#DA8D24"/>
</g>
<g style="mix-blend-mode:exclusion">
<path d="M85.4657 92.0676L85.0703 88.3398L95.5328 87.2302L95.9281 90.958L95.1017 91.0456L94.04 88.5799L91.493 88.7078L92.5616 98.7834L94.2203 98.9986L94.3061 99.8075L88.9078 100.38L88.822 99.5712L90.3987 99.0127L89.3302 88.9371L86.7954 89.3482L86.2921 91.9799L85.4657 92.0676Z" fill="#DA8D24"/>
</g>
</svg>
