<svg width="71" height="71" viewBox="0 0 71 71" fill="none" xmlns="http://www.w3.org/2000/svg">
<g style="mix-blend-mode:exclusion">
<path d="M71 35.5C71 55.1061 55.1061 71 35.5 71C15.8939 71 0 55.1061 0 35.5C0 15.8939 15.8939 0 35.5 0C55.1061 0 71 15.8939 71 35.5Z" fill="#FF5500"/>
</g>
<path d="M15.5435 12.2372L20.999 17.5693L17.767 20.8761L17.0064 20.0526L19.212 17.796L17.8044 16.4202L15.7079 18.5651L14.9073 17.7826L17.0038 15.6376L15.3615 14.0325L13.0758 16.3711L12.3042 15.5514L15.5435 12.2372Z" fill="#FED002"/>
<path d="M8.63037 21.1514C9.05209 20.3338 9.61824 19.6981 10.3288 19.2444L11.1663 20.0631C10.8562 20.2703 10.5643 20.5182 10.2906 20.8066C10.0152 21.0981 9.79395 21.4059 9.62685 21.7298C9.42156 22.1278 9.35125 22.4724 9.4159 22.7635C9.48364 23.0563 9.67794 23.2854 9.9988 23.4509C10.4246 23.6705 10.8656 23.5387 11.3219 23.0553C11.355 23.0216 11.4454 22.9257 11.5934 22.7676C11.7444 22.6112 11.8868 22.4639 12.0205 22.3258C12.1557 22.1925 12.2554 22.0975 12.3198 22.0408C13.1101 21.2962 13.9434 21.1499 14.8196 21.6018C15.4335 21.9185 15.7949 22.3803 15.9037 22.9872C16.011 23.5971 15.8784 24.2631 15.506 24.985C15.0843 25.8026 14.5525 26.4208 13.9107 26.8397L13.1901 25.9876C13.7735 25.523 14.1989 25.0315 14.4663 24.5132C14.6588 24.1399 14.7381 23.8233 14.7041 23.5636C14.6716 23.3086 14.5058 23.0961 14.2067 22.9262C13.8303 22.7321 13.4888 22.7922 13.1821 23.1067C13.1161 23.1664 12.9621 23.3174 12.7199 23.5596C12.4778 23.8019 12.3205 23.9591 12.2482 24.0311C11.7247 24.5462 11.2434 24.8585 10.8042 24.9678C10.3634 25.0803 9.87301 24.9973 9.3331 24.7188C8.68829 24.3862 8.30934 23.9017 8.19624 23.2652C8.08622 22.6304 8.23093 21.9258 8.63037 21.1514Z" fill="#FED002"/>
<path d="M5.50019 31.044C5.6878 29.9456 6.18215 29.1338 6.98326 28.6085C7.78436 28.0832 8.794 27.9247 10.0122 28.1327C11.1688 28.3303 12.0389 28.824 12.6224 29.6139C13.2087 30.4078 13.409 31.3489 13.2231 32.4371C13.0729 33.3165 12.7422 34.026 12.2309 34.5655L11.2532 33.9495C11.7125 33.4257 11.9927 32.8678 12.0938 32.2759C12.2118 31.5846 12.0555 30.9945 11.6249 30.5053C11.1971 30.0202 10.564 29.7061 9.72567 29.5629C8.8565 29.4144 8.15108 29.4929 7.60939 29.7984C7.06712 30.1072 6.73462 30.621 6.61188 31.3396C6.50434 31.9692 6.55509 32.6206 6.76411 33.2937L5.64439 33.2926C5.40039 32.6593 5.35232 31.9098 5.50019 31.044Z" fill="#FED002"/>
<path d="M7.31823 38.9796C6.90899 39.4362 6.76878 40.0286 6.8976 40.7567C7.02641 41.4849 7.35935 41.9918 7.8964 42.2775C8.43747 42.566 9.14043 42.6338 10.0053 42.4808C10.8804 42.326 11.526 42.0196 11.942 41.5618C12.3587 41.1073 12.5029 40.5177 12.3747 39.793C12.2459 39.0649 11.9055 38.5558 11.3536 38.2657C10.8057 37.9783 10.0959 37.9118 9.22422 38.066C8.36279 38.2184 7.72746 38.5229 7.31823 38.9796ZM5.7635 40.9521C5.56333 39.8206 5.74702 38.8662 6.31458 38.089C6.88616 37.3145 7.77529 36.8205 8.98197 36.607C10.1955 36.3923 11.2004 36.553 11.9968 37.089C12.7932 37.6249 13.2915 38.4587 13.4916 39.5901C13.6918 40.7216 13.5078 41.6743 12.9396 42.4482C12.3749 43.2214 11.4858 43.7154 10.2723 43.9301C9.07241 44.1424 8.07088 43.9811 7.26767 43.4463C6.46447 42.9116 5.96308 42.0802 5.7635 40.9521Z" fill="#FED002"/>
<path d="M6.23159 48.0261L7.19806 47.4789C7.24773 47.6404 7.3168 47.8096 7.40527 47.9866C7.57756 48.3313 7.78247 48.5199 8.01999 48.5525C8.25752 48.5852 8.57967 48.4998 8.98644 48.2965L15.2277 45.1766L15.861 46.4435L9.70356 49.5214C9.31232 49.717 8.96532 49.8458 8.66259 49.9079C8.35829 49.9746 8.07108 49.9707 7.80096 49.8962C7.52928 49.8263 7.2809 49.6749 7.05582 49.442C6.83228 49.2122 6.61885 48.8939 6.41551 48.4872C6.33014 48.3164 6.26884 48.1627 6.23159 48.0261Z" fill="#FED002"/>
<path d="M10.9976 53.3013L18.5753 50.3469L19.5929 51.4976L15.7061 58.6258L14.7471 57.5414L15.8619 55.5477L14.0923 53.5466L11.9738 54.4052L10.9976 53.3013ZM15.1148 53.1151L16.4118 54.5818C17.4984 52.7868 18.0606 51.861 18.0985 51.8043L15.1148 53.1151Z" fill="#FED002"/>
<path d="M25.5509 64.2793C24.6879 63.9607 23.9877 63.4766 23.4505 62.8269L24.1605 61.8956C24.4041 62.1779 24.6858 62.4373 25.0056 62.6737C25.3287 62.9114 25.6611 63.0933 26.0031 63.2195C26.4232 63.3746 26.7738 63.4022 27.0549 63.3024C27.3371 63.1994 27.5407 62.9785 27.6657 62.6398C27.8316 62.1904 27.6468 61.7688 27.1113 61.375C27.0737 61.3463 26.9675 61.2683 26.7925 61.1408C26.6188 61.01 26.4552 60.8868 26.3018 60.771C26.1529 60.6531 26.0464 60.5657 25.9823 60.5087C25.1466 59.8154 24.8994 59.0063 25.2408 58.0814C25.48 57.4333 25.8941 57.0182 26.4831 56.8359C27.0754 56.6549 27.7525 56.705 28.5146 56.9863C29.3776 57.3048 30.0563 57.757 30.5506 58.3427L29.793 59.1621C29.2604 58.6399 28.7206 58.2779 28.1735 58.0759C27.7794 57.9305 27.4556 57.8905 27.202 57.956C26.9528 58.0195 26.7623 58.21 26.6302 58.5276C26.4836 58.925 26.5851 59.2566 26.9347 59.5225C27.002 59.5807 27.1707 59.7151 27.4408 59.9258C27.7108 60.1365 27.8861 60.2733 27.9664 60.3363C28.5417 60.7928 28.9105 61.2324 29.0728 61.6549C29.2383 62.0786 29.2159 62.5755 29.0055 63.1454C28.7543 63.826 28.3198 64.2614 27.702 64.4515C27.0854 64.6384 26.3683 64.581 25.5509 64.2793Z" fill="#FED002"/>
<path d="M35.4315 66.1554C34.4324 66.1182 33.6837 65.8419 33.1853 65.3266C32.687 64.8078 32.4547 64.0957 32.4884 63.1903L32.6702 58.3093L34.0855 58.362L33.9082 63.1233C33.8846 63.7581 33.9957 64.226 34.2416 64.527C34.4909 64.8281 34.9104 64.9896 35.5002 65.0116C36.0795 65.0331 36.5047 64.9031 36.7757 64.6213C37.0469 64.3362 37.1943 63.8762 37.2179 63.2413L37.395 58.4853L38.8052 58.5378L38.623 63.4291C38.5896 64.3276 38.2999 65.0168 37.754 65.4967C37.2082 65.9731 36.4341 66.1927 35.4315 66.1554Z" fill="#FED002"/>
<path d="M44.7799 64.9303C43.8956 65.1838 43.0447 65.2074 42.2272 65.0011L42.2491 63.8302C42.6125 63.9139 42.9931 63.9565 43.3908 63.958C43.7918 63.9587 44.1675 63.9087 44.5179 63.8083C44.9484 63.6849 45.2474 63.4999 45.4151 63.2532C45.5818 63.0032 45.6154 62.7047 45.5159 62.3576C45.3839 61.8971 44.9855 61.6664 44.3208 61.6656C44.2736 61.6646 44.1418 61.6645 43.9253 61.6652C43.7079 61.6625 43.503 61.6598 43.3109 61.6571C43.1211 61.6501 42.9835 61.6426 42.8982 61.6346C41.8142 61.5697 41.1365 61.0634 40.8648 60.1156C40.6745 59.4516 40.7629 58.8719 41.1302 58.3766C41.5007 57.8804 42.0764 57.5204 42.8573 57.2965C43.7416 57.0431 44.5563 57.0064 45.3013 57.1865L45.1749 58.2953C44.4367 58.1891 43.7872 58.2163 43.2266 58.377C42.8228 58.4927 42.538 58.652 42.3723 58.8548C42.2089 59.0533 42.1678 59.3196 42.2492 59.6538C42.3659 60.061 42.6438 60.2684 43.083 60.2761C43.1717 60.2832 43.3872 60.2919 43.7296 60.3021C44.072 60.3123 44.2942 60.319 44.3962 60.3222C45.1301 60.3502 45.6874 60.4866 46.0681 60.7314C46.4522 60.9752 46.7279 61.3891 46.8953 61.9731C47.0952 62.6706 47.0023 63.2786 46.6165 63.7973C46.2297 64.3126 45.6175 64.6903 44.7799 64.9303Z" fill="#FED002"/>
<path d="M58.4787 56.6678C57.6805 57.4454 56.803 57.8107 55.8462 57.7638C54.8894 57.7169 53.9798 57.2508 53.1175 56.3655C52.2988 55.525 51.886 54.6138 51.8793 53.6317C51.8726 52.6448 52.2646 51.7661 53.0554 50.9959C53.6944 50.3733 54.3794 49.9944 55.1103 49.8592L55.5381 50.9327C54.8585 51.0858 54.3036 51.3719 53.8735 51.7909C53.3711 52.2802 53.1501 52.8493 53.2103 53.4982C53.2706 54.1422 53.5975 54.7688 54.191 55.378C54.8062 56.0096 55.4227 56.3614 56.0404 56.4333C56.6606 56.5028 57.2317 56.2833 57.7539 55.7746C58.2115 55.3289 58.5539 54.7724 58.7811 54.1052L59.6857 54.7652C59.5102 55.4208 59.1078 56.055 58.4787 56.6678Z" fill="#FED002"/>
<path d="M62.0105 52.3007L56.5485 46.2743L57.2608 44.9133L65.3063 46.0032L64.6351 47.2858L62.375 46.9551L61.1363 49.3219L62.6938 50.995L62.0105 52.3007ZM60.3686 48.5204L61.2765 46.7857C59.212 46.4105 58.1466 46.2154 58.0801 46.2002L60.3686 48.5204Z" fill="#FED002"/>
<path d="M66.197 42.5975L58.6411 41.4053L59.0818 38.6123C59.1419 38.2317 59.2109 37.9052 59.2891 37.6329C59.3677 37.3571 59.4731 37.1014 59.6052 36.8657C59.7344 36.626 59.8883 36.4412 60.0669 36.3112C60.2461 36.1778 60.4679 36.0863 60.7323 36.0366C60.9938 35.983 61.2943 35.983 61.6338 36.0365C62.635 36.1945 63.2217 36.7528 63.3938 37.7112C63.6322 37.5591 64.0559 37.3905 64.665 37.2054L67.1668 36.4509L66.9266 37.9734L64.8178 38.5421C64.059 38.7633 63.6082 38.903 63.4654 38.9613C63.4528 39.0191 63.4205 39.2126 63.3686 39.5418L63.174 40.7077L66.4145 41.219L66.197 42.5975ZM62.4189 39.0124C62.5033 38.4774 62.4696 38.0785 62.3178 37.8156C62.1625 37.5521 61.874 37.3871 61.4523 37.3205C61.0819 37.2621 60.7906 37.3374 60.5784 37.5464C60.3662 37.7554 60.2217 38.1034 60.1449 38.5903L59.8925 40.1899L62.1711 40.5495C62.1792 40.498 62.2212 40.2428 62.2971 39.7839C62.3696 39.3244 62.4102 39.0672 62.4189 39.0124Z" fill="#FED002"/>
<path d="M66.6739 30.8833L60.2582 31.9177L60.6121 34.1129L59.4966 34.2927L58.5649 28.5145L59.6805 28.3346L60.0327 30.5195L66.4484 29.485L66.6739 30.8833Z" fill="#FED002"/>
<path d="M65.0893 24.1604L57.0093 25.0903L56.3179 23.7186L61.8899 17.8134L62.5415 19.106L60.9563 20.7506L62.1588 23.136L64.426 22.8445L65.0893 24.1604ZM61.0601 23.2933L60.1788 21.5449C58.6714 23.0045 57.8922 23.7569 57.8411 23.8021L61.0601 23.2933Z" fill="#FED002"/>
<path d="M58.2002 13.5455C58.8432 14.2034 59.268 14.9411 59.4747 15.7584L58.4339 16.2952C58.3349 15.9356 58.1916 15.5805 58.0042 15.2298C57.8143 14.8766 57.5919 14.5696 57.3372 14.309C57.0241 13.9887 56.7193 13.8134 56.4226 13.783C56.1234 13.755 55.8448 13.8672 55.5866 14.1196C55.244 14.4544 55.2301 14.9145 55.545 15.4999C55.5666 15.5419 55.6291 15.658 55.7325 15.8482C55.8334 16.0408 55.9283 16.2224 56.0172 16.3928C56.1012 16.5631 56.1599 16.6877 56.1933 16.7667C56.651 17.7514 56.5272 18.5883 55.8222 19.2774C55.3281 19.7603 54.776 19.9577 54.1658 19.8697C53.5531 19.7793 52.9628 19.4436 52.395 18.8627C51.752 18.2048 51.3329 17.5053 51.1376 16.7641L52.1734 16.3488C52.4305 17.0489 52.7629 17.6075 53.1705 18.0246C53.4641 18.325 53.7395 18.5 53.9967 18.5496C54.249 18.5991 54.5029 18.5087 54.7584 18.2784C55.0613 17.9824 55.1118 17.6393 54.9101 17.2491C54.8742 17.1677 54.7794 16.9739 54.6258 16.6677C54.4722 16.3616 54.3726 16.1628 54.327 16.0715C54.0031 15.4123 53.8585 14.8571 53.8931 14.4058C53.9253 13.952 54.1586 13.5128 54.5931 13.0882C55.112 12.5811 55.6912 12.3741 56.3309 12.4674C56.968 12.563 57.5911 12.9224 58.2002 13.5455Z" fill="#FED002"/>
</svg>
