<svg width="274" height="274" viewBox="0 0 274 274" fill="none" xmlns="http://www.w3.org/2000/svg">
<circle cx="137" cy="137" r="137" fill="#F8DD74"/>
<circle cx="137" cy="137" r="137" fill="#F8DD74"/>
<path d="M150.588 138C152.804 138 154.345 138.598 155.212 139.794C156.127 140.99 156.585 142.449 156.585 144.171C156.585 145.845 156.127 147.28 155.212 148.476C154.345 149.672 152.804 150.27 150.588 150.27C148.469 150.27 146.928 149.672 145.964 148.476C145.049 147.28 144.592 145.845 144.592 144.171C144.592 142.449 145.049 140.99 145.964 139.794C146.928 138.598 148.469 138 150.588 138ZM121.472 138C123.688 138 125.229 138.598 126.096 139.794C127.011 140.99 127.469 142.449 127.469 144.171C127.469 145.845 127.011 147.28 126.096 148.476C125.229 149.672 123.688 150.27 121.472 150.27C119.353 150.27 117.812 149.672 116.849 148.476C115.933 147.28 115.476 145.845 115.476 144.171C115.476 142.449 115.933 140.99 116.849 139.794C117.812 138.598 119.353 138 121.472 138Z" fill="#0C24FF"/>
<path d="M136.211 183C130.383 183 124.772 182.139 119.377 180.417C114.031 178.743 109.239 176.088 105 172.452L105 163.77C109.431 167.023 114.344 169.487 119.739 171.161C125.181 172.835 130.696 173.672 136.283 173.672C142.015 173.672 147.602 172.811 153.045 171.089C158.487 169.415 163.472 166.951 168 163.699L168 172.452C163.617 176.088 158.68 178.743 153.189 180.417C147.747 182.139 142.087 183 136.211 183Z" fill="#0C24FF"/>
<path d="M43.6889 128.484C44.7843 128.064 45.7562 127.433 46.6049 126.593C47.4535 125.753 48.1509 124.743 48.6972 123.562L50.0839 124.272C48.5131 129.331 45.7486 132.621 41.7904 134.141C39.525 135.011 37.35 135.26 35.2652 134.89C33.2054 134.509 31.3564 133.563 29.7184 132.049C28.0803 130.536 26.7786 128.522 25.8131 126.008C24.9815 123.842 24.5892 121.593 24.6365 119.261C24.699 116.895 25.1433 114.853 25.9695 113.136C26.9236 111.827 28.0414 110.684 29.3228 109.706C30.6195 108.694 31.9773 107.915 33.3963 107.371C35.2883 106.644 37.1762 106.39 39.06 106.61C40.9591 106.795 42.6464 107.432 44.122 108.522L41.0058 114.132C38.8319 112.339 36.3248 110.459 33.4847 108.494C32.5614 109.362 31.862 110.516 31.3864 111.956C30.9108 113.395 30.7031 114.975 30.7635 116.694C30.8487 118.404 31.2068 120.08 31.8377 121.723C33.0421 124.86 34.6712 127.019 36.7249 128.202C38.8034 129.375 41.1248 129.469 43.6889 128.484Z" fill="#0C24FF"/>
<path d="M61.0055 98.5903C63.5302 97.9155 65.8637 97.8164 68.006 98.2927C70.174 98.7622 72.0281 99.8125 73.5681 101.444C75.1338 103.068 76.285 105.258 77.0217 108.015C77.4899 109.766 77.6662 111.665 77.5505 113.711C77.4279 115.731 76.9668 117.621 76.1673 119.381C75.2406 120.87 74.0749 122.189 72.6704 123.338C71.259 124.46 69.6517 125.262 67.8483 125.744C65.3493 126.412 63.0158 126.511 60.8477 126.042C58.7055 125.565 56.8514 124.515 55.2857 122.891C53.7457 121.26 52.6073 119.066 51.8706 116.31C51.4093 114.583 51.2494 112.694 51.3909 110.641C51.5323 108.588 52.0028 106.682 52.8023 104.923C53.7034 103.44 54.8467 102.141 56.2323 101.025C57.6368 99.877 59.2278 99.0653 61.0055 98.5903ZM58.0263 111.766C58.825 114.755 59.8552 117.06 61.1169 118.683C62.3786 120.305 63.9122 121.345 65.7178 121.801C67.5166 122.231 69.6826 122.176 72.216 121.637C72.1809 120.267 72.0229 118.694 71.7419 116.92C71.4798 115.113 71.2008 113.655 70.9047 112.548C70.0992 109.533 69.0527 107.218 67.7652 105.603C66.4966 103.954 64.9466 102.906 63.1152 102.457C61.2839 102.008 59.1178 102.062 56.6171 102.62C56.6917 104.035 56.8764 105.656 57.1711 107.482C57.4658 109.308 57.7509 110.736 58.0263 111.766Z" fill="#0C24FF"/>
<path d="M110.65 115.594L110.859 116.978L101.327 118.414L94.3504 108.624L94.4571 108.527C93.8586 108.671 93.0096 108.853 91.91 109.073L93.2804 118.17L95.2245 117.918L95.4331 119.302L84.9909 120.875L84.7824 119.491L86.7145 119.159L83.1513 95.506L81.2073 95.7584L80.9987 94.374L88.6445 93.3031L94.4665 91.9407C96.3651 91.6547 98.0404 91.7663 99.4925 92.2757C100.967 92.7548 102.136 93.5359 103.001 94.6193C103.887 95.6723 104.438 96.9107 104.653 98.3347C104.899 99.9695 104.639 101.465 103.872 102.821C103.106 104.177 101.829 105.367 100.041 106.391L108.706 115.846L110.65 115.594ZM91.6776 107.53C93.8464 107.068 95.471 106.217 96.5515 104.976C97.6279 103.708 98.0291 102.164 97.7551 100.345C97.5604 99.0525 97.0804 97.9247 96.315 96.9613C95.5496 95.9979 94.5939 95.2924 93.4477 94.8448C92.3016 94.3972 91.0561 94.2747 89.7113 94.4773L91.6776 107.53Z" fill="#0C24FF"/>
<path d="M140.575 114.322L140.63 115.721L130.997 116.096L125.144 105.596L125.261 105.511C124.65 105.588 123.786 105.675 122.669 105.772L123.027 114.965L124.987 114.929L125.041 116.328L114.489 116.739L114.435 115.34L116.392 115.224L115.461 91.3218L113.501 91.3581L113.447 89.9591L121.164 89.7387L127.101 89.0272C129.019 88.9525 130.672 89.2484 132.059 89.915C133.472 90.5538 134.548 91.4593 135.287 92.6314C136.052 93.7759 136.463 95.0675 136.519 96.5064C136.583 98.1585 136.16 99.6161 135.248 100.879C134.337 102.142 132.936 103.184 131.047 104.005L138.615 114.358L140.575 114.322ZM122.608 104.213C124.815 103.994 126.523 103.327 127.734 102.213C128.944 101.071 129.513 99.5813 129.442 97.7427C129.391 96.437 129.038 95.2632 128.384 94.2212C127.73 93.1792 126.858 92.3725 125.768 91.8012C124.678 91.2298 123.454 90.9706 122.095 91.0235L122.608 104.213Z" fill="#0C24FF"/>
<path d="M165.01 109.306L164.513 117.25L144.273 115.984L144.36 114.587L146.319 114.669L147.812 90.7959L145.858 90.6336L145.946 89.2363L165.388 90.4525L164.903 98.1973L163.349 98.06L163.394 96.0589C160.555 94.0377 157.577 92.3018 154.462 90.8511L153.847 101.954L161.313 102.421L161.22 103.899L153.755 103.432L153.086 115.413C156.574 114.322 159.961 112.931 163.246 111.239L163.451 109.248L165.01 109.306Z" fill="#0C24FF"/>
<path d="M184.782 116.212C185.941 116.396 187.098 116.337 188.253 116.035C189.409 115.733 190.518 115.207 191.582 114.458L192.427 115.767C188.535 119.36 184.495 120.824 180.307 120.158C177.911 119.777 175.903 118.904 174.284 117.54C172.691 116.179 171.564 114.434 170.904 112.304C170.244 110.174 170.125 107.779 170.548 105.119C170.913 102.827 171.699 100.684 172.907 98.6894C174.146 96.6722 175.553 95.1274 177.127 94.0547C178.609 93.3992 180.149 92.9691 181.747 92.7643C183.377 92.5374 184.942 92.5432 186.443 92.782C188.445 93.1003 190.206 93.8259 191.727 94.9588C193.278 96.0696 194.42 97.4662 195.151 99.1487L189.645 102.445C188.661 99.8041 187.432 96.922 185.957 93.7983C184.723 94.0881 183.54 94.737 182.408 95.7449C181.275 96.7529 180.305 98.0162 179.496 99.5347C178.714 101.057 178.185 102.688 177.908 104.426C177.381 107.744 177.71 110.429 178.895 112.481C180.108 114.537 182.07 115.781 184.782 116.212Z" fill="#0C24FF"/>
<path d="M223.405 101.868L221.448 109.377L219.948 108.945L220.375 106.99C218.215 104.387 216.376 102.406 214.856 101.045L208.803 124.269L211.85 125.105L211.497 126.46L198.956 123.19L199.309 121.836L202.377 122.594L208.431 99.3703C206.441 99.816 203.868 100.647 200.713 101.864L200.131 103.779L198.611 103.424L200.568 95.9152L223.405 101.868Z" fill="#0C24FF"/>
<path d="M241.892 107.791C244.338 108.71 246.294 109.987 247.76 111.62C249.251 113.263 250.148 115.195 250.453 117.418C250.782 119.65 250.445 122.101 249.441 124.772C248.803 126.469 247.842 128.117 246.558 129.714C245.284 131.286 243.81 132.555 242.136 133.522C240.516 134.195 238.801 134.59 236.99 134.707C235.189 134.8 233.415 134.517 231.668 133.861C229.247 132.951 227.29 131.675 225.8 130.032C224.334 128.398 223.436 126.466 223.107 124.234C222.803 122.012 223.152 119.565 224.156 116.894C224.785 115.221 225.753 113.591 227.062 112.004C228.371 110.416 229.862 109.139 231.536 108.172C233.131 107.49 234.817 107.098 236.593 106.996C238.403 106.879 240.169 107.144 241.892 107.791ZM231.806 116.778C230.718 119.673 230.215 122.148 230.298 124.202C230.381 126.255 231.024 127.993 232.228 129.414C233.441 130.81 235.235 132.025 237.609 133.06C238.378 131.924 239.164 130.553 239.967 128.946C240.805 127.324 241.425 125.976 241.829 124.902C242.926 121.982 243.421 119.49 243.313 117.427C243.24 115.348 242.589 113.594 241.36 112.163C240.131 110.733 238.337 109.518 235.978 108.517C235.216 109.712 234.424 111.138 233.602 112.795C232.78 114.451 232.181 115.779 231.806 116.778Z" fill="#0C24FF"/>
</svg>
