<svg width="37" height="37" viewBox="0 0 37 37" fill="none" xmlns="http://www.w3.org/2000/svg">
<circle cx="18.5" cy="18.5" r="17.5" stroke="#15263D" stroke-width="2"/>
<path d="M20 10C20 9.44772 19.5523 9 19 9C18.4477 9 18 9.44772 18 10H20ZM18.2929 26.7071C18.6834 27.0976 19.3166 27.0976 19.7071 26.7071L26.0711 20.3431C26.4616 19.9526 26.4616 19.3195 26.0711 18.9289C25.6805 18.5384 25.0474 18.5384 24.6569 18.9289L19 24.5858L13.3431 18.9289C12.9526 18.5384 12.3195 18.5384 11.9289 18.9289C11.5384 19.3195 11.5384 19.9526 11.9289 20.3431L18.2929 26.7071ZM18 10V26H20V10H18Z" fill="#15263D"/>
</svg>
