<svg width="191" height="37" viewBox="0 0 191 37" fill="none" xmlns="http://www.w3.org/2000/svg">
<path d="M19.71 7.98V25.92L21.18 25.95V27H13.26V25.95L14.73 25.92V17.58H8.01V25.92L9.48 25.95V27H1.56V25.95L3.03 25.92V7.98L1.56 7.95V6.9H9.48V7.95L8.01 7.98V16.47H14.73V7.98L13.26 7.95V6.9H21.18V7.95L19.71 7.98ZM25.8476 25.95L27.3176 25.92V7.98L25.8476 7.95V6.9H33.7676V7.95L32.2976 7.98V25.92L33.7676 25.95V27H25.8476V25.95ZM44.3557 10.08C44.3557 10.72 44.5357 11.31 44.8957 11.85C45.2557 12.39 45.7057 12.87 46.2457 13.29C46.7857 13.71 47.5257 14.23 48.4657 14.85C49.5657 15.57 50.4457 16.21 51.1057 16.77C51.7657 17.31 52.3257 17.97 52.7857 18.75C53.2657 19.51 53.5057 20.37 53.5057 21.33C53.5057 22.39 53.2157 23.39 52.6357 24.33C52.0557 25.25 51.1857 26 50.0257 26.58C48.8657 27.16 47.4657 27.45 45.8257 27.45C42.3057 27.45 39.8057 26.05 38.3257 23.25L41.7157 20.64C42.6757 22.62 43.7557 24.54 44.9557 26.4H44.9857C45.5657 26.4 46.1057 26.25 46.6057 25.95C47.1057 25.63 47.5057 25.22 47.8057 24.72C48.1057 24.22 48.2557 23.69 48.2557 23.13C48.2557 22.53 48.0757 21.98 47.7157 21.48C47.3757 20.96 46.9457 20.51 46.4257 20.13C45.9057 19.73 45.1957 19.25 44.2957 18.69C43.2157 18.01 42.3457 17.41 41.6857 16.89C41.0257 16.37 40.4557 15.74 39.9757 15C39.5157 14.24 39.2857 13.37 39.2857 12.39C39.2857 11.29 39.5957 10.29 40.2157 9.39C40.8557 8.47 41.7557 7.75 42.9157 7.23C44.0957 6.71 45.4757 6.45 47.0557 6.45C48.5957 6.45 49.8557 6.7 50.8357 7.2C51.8357 7.68 52.7357 8.37 53.5357 9.27L50.3857 12.45C49.3257 10.69 48.2557 9.04 47.1757 7.5C46.2757 7.5 45.5757 7.75 45.0757 8.25C44.5957 8.73 44.3557 9.34 44.3557 10.08ZM75.1291 6.9V12.72L73.9591 12.69L73.8991 11.19C71.8391 9.71 70.1291 8.62 68.7691 7.92V25.92L71.1391 25.95V27H61.4191V25.95L63.7891 25.92V7.92C62.4291 8.62 60.7191 9.71 58.6591 11.19L58.5991 12.69L57.4291 12.72V6.9H75.1291ZM88.9516 6.45C90.9116 6.45 92.6216 6.83 94.0816 7.59C95.5616 8.35 96.7016 9.47 97.5016 10.95C98.3216 12.43 98.7316 14.24 98.7316 16.38C98.7316 17.74 98.4916 19.15 98.0116 20.61C97.5316 22.05 96.8316 23.33 95.9116 24.45C94.9516 25.35 93.8516 26.08 92.6116 26.64C91.3716 27.18 90.0516 27.45 88.6516 27.45C86.7116 27.45 85.0016 27.07 83.5216 26.31C82.0616 25.55 80.9216 24.43 80.1016 22.95C79.3016 21.47 78.9016 19.66 78.9016 17.52C78.9016 16.18 79.1516 14.78 79.6516 13.32C80.1516 11.86 80.8616 10.57 81.7816 9.45C82.7216 8.55 83.8016 7.83 85.0216 7.29C86.2616 6.73 87.5716 6.45 88.9516 6.45ZM84.2416 15.42C84.2416 17.74 84.5416 19.61 85.1416 21.03C85.7416 22.45 86.6516 23.5 87.8716 24.18C89.0916 24.84 90.6716 25.22 92.6116 25.32C92.8516 24.32 93.0416 23.15 93.1816 21.81C93.3416 20.45 93.4216 19.34 93.4216 18.48C93.4216 16.14 93.1116 14.26 92.4916 12.84C91.8916 11.4 90.9716 10.34 89.7316 9.66C88.4916 8.98 86.9116 8.6 84.9916 8.52C84.7716 9.56 84.5916 10.77 84.4516 12.15C84.3116 13.53 84.2416 14.62 84.2416 15.42ZM123.151 25.95V27H115.921L111.841 18.96L111.931 18.9C111.471 18.94 110.821 18.98 109.981 19.02V25.92L111.451 25.95V27H103.531V25.95L105.001 25.92V7.98L103.531 7.95V6.9L109.321 6.96L113.791 6.6C115.231 6.6 116.461 6.87 117.481 7.41C118.521 7.93 119.301 8.64 119.821 9.54C120.361 10.42 120.631 11.4 120.631 12.48C120.631 13.72 120.271 14.8 119.551 15.72C118.831 16.64 117.751 17.38 116.311 17.94L121.681 25.92L123.151 25.95ZM109.981 17.85C111.641 17.75 112.941 17.3 113.881 16.5C114.821 15.68 115.291 14.58 115.291 13.2C115.291 12.22 115.061 11.33 114.601 10.53C114.141 9.73 113.511 9.1 112.711 8.64C111.911 8.18 111.001 7.95 109.981 7.95V17.85ZM127.303 25.95L128.773 25.92V7.98L127.303 7.95V6.9H135.223V7.95L133.753 7.98V25.92L135.223 25.95V27H127.303V25.95ZM159.641 25.95V27H150.611V25.95L152.081 25.92L150.701 21H145.601L144.611 25.92L146.141 25.95V27H139.361V25.95L140.831 25.92L147.551 7.14L151.271 6.63L158.171 25.92L159.641 25.95ZM150.371 19.89L147.731 10.5L145.841 19.89H150.371ZM168.323 10.08C168.323 10.72 168.503 11.31 168.863 11.85C169.223 12.39 169.673 12.87 170.213 13.29C170.753 13.71 171.493 14.23 172.433 14.85C173.533 15.57 174.413 16.21 175.073 16.77C175.733 17.31 176.293 17.97 176.753 18.75C177.233 19.51 177.473 20.37 177.473 21.33C177.473 22.39 177.183 23.39 176.603 24.33C176.023 25.25 175.153 26 173.993 26.58C172.833 27.16 171.433 27.45 169.793 27.45C166.273 27.45 163.773 26.05 162.293 23.25L165.683 20.64C166.643 22.62 167.723 24.54 168.923 26.4H168.953C169.533 26.4 170.073 26.25 170.573 25.95C171.073 25.63 171.473 25.22 171.773 24.72C172.073 24.22 172.223 23.69 172.223 23.13C172.223 22.53 172.043 21.98 171.683 21.48C171.343 20.96 170.913 20.51 170.393 20.13C169.873 19.73 169.163 19.25 168.263 18.69C167.183 18.01 166.313 17.41 165.653 16.89C164.993 16.37 164.423 15.74 163.943 15C163.483 14.24 163.253 13.37 163.253 12.39C163.253 11.29 163.563 10.29 164.183 9.39C164.823 8.47 165.723 7.75 166.883 7.23C168.063 6.71 169.443 6.45 171.023 6.45C172.563 6.45 173.823 6.7 174.803 7.2C175.803 7.68 176.703 8.37 177.503 9.27L174.353 12.45C173.293 10.69 172.223 9.04 171.143 7.5C170.243 7.5 169.543 7.75 169.043 8.25C168.563 8.73 168.323 9.34 168.323 10.08Z" fill="#15263D"/>
</svg>
