<svg width="273" height="273" viewBox="0 0 273 273" fill="none" xmlns="http://www.w3.org/2000/svg">
<circle cx="136.5" cy="136.5" r="136.5" fill="#FF5500"/>
<path d="M122.135 152.263C119.955 152.263 118.438 151.665 117.585 150.47C116.684 149.275 116.234 147.817 116.234 146.095C116.234 144.422 116.684 142.988 117.585 141.793C118.438 140.598 119.955 140 122.135 140C124.221 140 125.738 140.598 126.686 141.793C127.586 142.988 128.037 144.422 128.037 146.095C128.037 147.817 127.586 149.275 126.686 150.47C125.738 151.665 124.221 152.263 122.135 152.263ZM150.789 152.263C148.609 152.263 147.092 151.665 146.239 150.47C145.338 149.275 144.888 147.817 144.888 146.095C144.888 144.422 145.338 142.988 146.239 141.793C147.092 140.598 148.609 140 150.789 140C152.875 140 154.391 140.598 155.339 141.793C156.24 142.988 156.69 144.422 156.69 146.095C156.69 147.817 156.24 149.275 155.339 150.47C154.391 151.665 152.875 152.263 150.789 152.263Z" fill="#FED002"/>
<path d="M136.284 159.71C142.02 159.71 147.542 160.57 152.851 162.291C158.112 163.965 162.829 166.618 167 170.251L167 178.928C162.639 175.677 157.804 173.215 152.495 171.542C147.139 169.869 141.712 169.032 136.213 169.032C130.573 169.032 125.074 169.893 119.718 171.614C114.362 173.287 109.456 175.749 105 179L105 170.251C109.313 166.618 114.172 163.965 119.576 162.291C124.932 160.57 130.502 159.71 136.284 159.71Z" fill="#FED002"/>
<path d="M31.0951 125.829L32.5206 125.276L26.1359 107.75L24.6891 108.244L24.3154 107.218L32.0529 104.399L32.4265 105.425L31.0011 105.977L37.3858 123.504L38.8326 123.01L39.2062 124.036L31.4688 126.854L31.0951 125.829Z" fill="#FED002"/>
<path d="M57.6085 96.5049L57.9149 97.5528L56.4567 98.0116L61.2194 117.191L57.6055 118.28L41.8254 104.435L47.62 120.029L49.3952 119.543L49.7016 120.591L43.594 122.377L43.2876 121.329L44.7459 120.87L40.0201 102.817L38.5443 103.216L38.238 102.169L45.6329 100.006L58.2931 110.962L53.8819 98.7645L52.1067 99.251L51.8004 98.2031L57.6085 96.5049Z" fill="#FED002"/>
<path d="M79.1006 110.008C79.9964 109.821 80.8235 109.458 81.5819 108.918C82.3403 108.377 83.0037 107.687 83.5722 106.846L84.5505 107.567C82.7075 111.264 80.1675 113.449 76.9305 114.123C75.0779 114.509 73.3725 114.429 71.8143 113.882C70.2766 113.331 68.9721 112.371 67.901 111.001C66.8299 109.631 66.0803 107.917 65.6523 105.861C65.2836 104.09 65.2635 102.31 65.5921 100.521C65.9368 98.7076 66.5346 97.1919 67.3856 95.9739C68.2841 95.086 69.2877 94.346 70.3964 93.7541C71.5213 93.1376 72.6639 92.7086 73.8244 92.4671C75.3716 92.145 76.8565 92.1864 78.2789 92.5912C79.7175 92.9715 80.9363 93.6736 81.9354 94.6976L78.834 98.6249C77.3854 96.9723 75.6914 95.2114 73.7517 93.3424C72.9322 93.8954 72.2492 94.696 71.7028 95.7443C71.1564 96.7927 70.7986 97.9823 70.6296 99.3132C70.481 100.64 70.5465 101.975 70.8262 103.319C71.3601 105.884 72.3434 107.75 73.7759 108.918C75.2287 110.081 77.0036 110.444 79.1006 110.008Z" fill="#FED002"/>
<path d="M96.2797 88.7737C98.3011 88.5145 100.115 88.6803 101.721 89.2711C103.348 89.8592 104.672 90.8635 105.692 92.284C106.734 93.702 107.396 95.5144 107.679 97.7214C107.859 99.124 107.798 100.61 107.496 102.179C107.191 103.728 106.638 105.14 105.838 106.417C104.967 107.472 103.929 108.37 102.724 109.112C101.516 109.833 100.191 110.286 98.747 110.471C96.7463 110.727 94.9325 110.562 93.3057 109.973C91.6995 109.383 90.3757 108.378 89.3343 106.96C88.3136 105.54 87.6617 103.726 87.3788 101.519C87.2016 100.137 87.2743 98.6603 87.5969 97.0885C87.9195 95.5166 88.4812 94.0924 89.2819 92.8157C90.1323 91.7632 91.1509 90.8778 92.3377 90.1596C93.5425 89.4181 94.8565 88.9561 96.2797 88.7737ZM92.6083 98.6473C92.9151 101.04 93.4717 102.929 94.2783 104.314C95.0848 105.699 96.1621 106.662 97.5102 107.202C98.8557 107.721 100.535 107.904 102.549 107.751C102.665 106.688 102.706 105.456 102.673 104.055C102.658 102.632 102.594 101.476 102.48 100.589C102.171 98.176 101.603 96.2782 100.775 94.8957C99.9663 93.4899 98.8773 92.5184 97.5086 91.981C96.1398 91.4437 94.4601 91.2607 92.4694 91.4321C92.38 92.5338 92.3544 93.8054 92.3925 95.2472C92.4306 96.6889 92.5025 97.8223 92.6083 98.6473Z" fill="#FED002"/>
<path d="M133.666 106.309L133.715 107.4L126.205 107.74L121.589 99.5809L121.68 99.5144C121.204 99.5776 120.531 99.6497 119.66 99.7308L119.985 106.898L121.513 106.86L121.562 107.95L113.336 108.323L113.286 107.232L114.812 107.132L113.968 88.498L112.44 88.536L112.39 87.4454L118.407 87.2353L123.033 86.651C124.529 86.5832 125.819 86.8058 126.904 87.3187C128.008 87.8099 128.852 88.5106 129.435 89.421C130.037 90.3096 130.363 91.3148 130.414 92.4366C130.473 93.7246 130.149 94.8633 129.445 95.8528C128.74 96.8423 127.653 97.6617 126.184 98.3111L132.137 106.347L133.666 106.309ZM119.605 98.5155C121.324 98.3335 122.654 97.8049 123.592 96.9298C124.53 96.0338 124.966 94.8691 124.901 93.4357C124.855 92.4178 124.575 91.5042 124.059 90.6949C123.544 89.8856 122.86 89.2609 122.007 88.8207C121.155 88.3806 120.198 88.1845 119.139 88.2325L119.605 98.5155Z" fill="#FED002"/>
<path d="M157.807 107.064L157.768 108.155L150.255 107.883L146.319 99.375L146.415 99.316C145.935 99.3403 145.258 99.3574 144.384 99.3673L144.124 106.537L145.65 106.623L145.611 107.714L137.381 107.416L137.421 106.325L138.949 106.349L139.625 87.7085L138.099 87.622L138.138 86.531L144.152 86.8113L148.81 86.6055C150.307 86.6597 151.574 86.9866 152.614 87.5861C153.675 88.1656 154.459 88.9327 154.965 89.8874C155.493 90.8221 155.737 91.8506 155.696 92.9728C155.649 94.2612 155.235 95.3699 154.452 96.2987C153.669 97.2275 152.519 97.9558 151.002 98.4834L156.281 106.977L157.807 107.064ZM144.428 98.1516C146.156 98.1102 147.524 97.6916 148.531 96.8957C149.539 96.079 150.068 94.9538 150.12 93.5198C150.157 92.5016 149.952 91.5681 149.504 90.7196C149.056 89.871 148.425 89.1926 147.611 88.6846C146.797 88.1765 145.86 87.9032 144.801 87.8648L144.428 98.1516Z" fill="#FED002"/>
<path d="M177.818 104.111L177.131 110.28L161.414 108.529L161.535 107.444L163.057 107.583L165.122 89.044L163.606 88.8438L163.727 87.7588L178.824 89.4402L178.155 95.4544L176.949 95.2887L177.06 93.7318C174.924 92.0503 172.671 90.5857 170.299 89.3381L169.401 97.9633L175.198 98.6089L175.071 99.756L169.273 99.1103L168.3 108.417C171.058 107.699 173.748 106.744 176.371 105.55L176.606 104.007L177.818 104.111Z" fill="#FED002"/>
<path d="M193.639 109.965C194.539 110.13 195.442 110.105 196.348 109.89C197.255 109.676 198.129 109.286 198.972 108.722L199.607 109.758C196.507 112.488 193.331 113.555 190.078 112.96C188.217 112.619 186.668 111.902 185.43 110.809C184.213 109.719 183.367 108.338 182.891 106.665C182.415 104.993 182.366 103.123 182.744 101.057C183.07 99.2778 183.722 97.6213 184.701 96.0881C185.703 94.5381 186.828 93.3593 188.075 92.5518C189.242 92.0678 190.451 91.7605 191.701 91.63C192.975 91.4828 194.195 91.5159 195.361 91.7294C196.916 92.014 198.275 92.6118 199.44 93.5228C200.63 94.417 201.494 95.5266 202.034 96.8516L197.681 99.3209C196.962 97.2443 196.056 94.9749 194.964 92.5129C193.996 92.7163 193.062 93.2006 192.161 93.9658C191.26 94.731 190.48 95.6981 189.822 96.8672C189.185 98.0401 188.742 99.3015 188.495 100.652C188.023 103.229 188.231 105.328 189.118 106.949C190.025 108.574 191.533 109.579 193.639 109.965Z" fill="#FED002"/>
<path d="M224.351 99.0004L222.837 104.859L221.667 104.525L221.997 102.999C220.308 100.974 218.87 99.4318 217.683 98.3735L213.002 116.494L215.38 117.141L215.107 118.198L205.322 115.67L205.595 114.613L207.989 115.199L212.669 97.0786C211.118 97.4296 209.113 98.0823 206.654 99.0366L206.204 100.531L205.018 100.257L206.532 94.3979L224.351 99.0004Z" fill="#FED002"/>
<path d="M239.035 103.283C240.963 103.943 242.517 104.892 243.698 106.131C244.898 107.377 245.642 108.863 245.931 110.588C246.239 112.32 246.033 114.239 245.313 116.344C244.855 117.682 244.144 118.988 243.181 120.263C242.224 121.518 241.104 122.541 239.822 123.333C238.575 123.895 237.247 124.243 235.838 124.377C234.437 124.49 233.047 124.312 231.67 123.84C229.762 123.187 228.207 122.238 227.007 120.992C225.827 119.753 225.082 118.267 224.774 116.535C224.485 114.81 224.701 112.895 225.422 110.789C225.873 109.471 226.59 108.178 227.573 106.91C228.557 105.642 229.69 104.612 230.972 103.82C232.199 103.251 233.504 102.907 234.886 102.786C236.295 102.653 237.677 102.818 239.035 103.283ZM231.382 110.521C230.601 112.804 230.266 114.744 230.379 116.343C230.491 117.942 231.032 119.281 232.004 120.361C232.982 121.421 234.408 122.327 236.283 123.078C236.856 122.175 237.436 121.088 238.025 119.817C238.64 118.533 239.093 117.468 239.382 116.622C240.17 114.32 240.498 112.366 240.366 110.761C240.261 109.142 239.713 107.79 238.722 106.703C237.731 105.617 236.304 104.711 234.443 103.986C233.876 104.935 233.292 106.065 232.689 107.375C232.087 108.686 231.651 109.734 231.382 110.521Z" fill="#FED002"/>
</svg>
