<svg width="527" height="246" viewBox="0 0 527 246" fill="none" xmlns="http://www.w3.org/2000/svg">
<path d="M3.24 88.85L7.65 88.76V34.94L3.24 34.85V31.7H27V34.85L22.59 34.94V88.76L27 88.85V92H3.24V88.85ZM102.234 31.7V34.85L97.8244 34.94L95.4844 91.91L84.5944 92L52.1044 40.88L55.5244 88.76L60.8344 88.85V92H42.4744V88.85L46.8844 88.76L48.4144 34.94L44.0044 34.85V31.7H66.2344L92.4244 72.29L90.0844 34.94L84.7744 34.85V31.7H102.234ZM134.034 41.24C134.034 43.16 134.574 44.93 135.654 46.55C136.734 48.17 138.084 49.61 139.704 50.87C141.324 52.13 143.544 53.69 146.364 55.55C149.664 57.71 152.304 59.63 154.284 61.31C156.264 62.93 157.944 64.91 159.324 67.25C160.764 69.53 161.484 72.11 161.484 74.99C161.484 78.17 160.614 81.17 158.874 83.99C157.134 86.75 154.524 89 151.044 90.74C147.564 92.48 143.364 93.35 138.444 93.35C127.884 93.35 120.384 89.15 115.944 80.75L126.114 72.92C128.994 78.86 132.234 84.62 135.834 90.2H135.924C137.664 90.2 139.284 89.75 140.784 88.85C142.284 87.89 143.484 86.66 144.384 85.16C145.284 83.66 145.734 82.07 145.734 80.39C145.734 78.59 145.194 76.94 144.114 75.44C143.094 73.88 141.804 72.53 140.244 71.39C138.684 70.19 136.554 68.75 133.854 67.07C130.614 65.03 128.004 63.23 126.024 61.67C124.044 60.11 122.334 58.22 120.894 56C119.514 53.72 118.824 51.11 118.824 48.17C118.824 44.87 119.754 41.87 121.614 39.17C123.534 36.41 126.234 34.25 129.714 32.69C133.254 31.13 137.394 30.35 142.134 30.35C146.754 30.35 150.534 31.1 153.474 32.6C156.474 34.04 159.174 36.11 161.574 38.81L152.124 48.35C148.944 43.07 145.734 38.12 142.494 33.5C139.794 33.5 137.694 34.25 136.194 35.75C134.754 37.19 134.034 39.02 134.034 41.24ZM226.354 31.7V49.16L222.844 49.07L222.664 44.57C216.484 40.13 211.354 36.86 207.274 34.76V88.76L214.384 88.85V92H185.224V88.85L192.334 88.76V34.76C188.254 36.86 183.124 40.13 176.944 44.57L176.764 49.07L173.254 49.16V31.7H226.354ZM297.612 88.85V92H275.922L263.682 67.88L263.952 67.7C262.572 67.82 260.622 67.94 258.102 68.06V88.76L262.512 88.85V92H238.752V88.85L243.162 88.76V34.94L238.752 34.85V31.7L256.122 31.88L269.532 30.8C273.852 30.8 277.542 31.61 280.602 33.23C283.722 34.79 286.062 36.92 287.622 39.62C289.242 42.26 290.052 45.2 290.052 48.44C290.052 52.16 288.972 55.4 286.812 58.16C284.652 60.92 281.412 63.14 277.092 64.82L293.202 88.76L297.612 88.85ZM258.102 64.55C263.082 64.25 266.982 62.9 269.802 60.5C272.622 58.04 274.032 54.74 274.032 50.6C274.032 47.66 273.342 44.99 271.962 42.59C270.582 40.19 268.692 38.3 266.292 36.92C263.892 35.54 261.162 34.85 258.102 34.85V64.55ZM366.223 31.7V34.85L361.813 34.94V92H358.933L347.413 84.44C345.193 87.14 342.523 89.3 339.403 90.92C336.283 92.54 333.013 93.35 329.593 93.35C323.353 93.35 318.523 91.37 315.103 87.41C311.683 83.45 309.973 77.3 309.973 68.96V34.94L305.563 34.85V31.7H329.593V34.85L325.183 34.94V66.71C325.183 72.23 326.323 76.37 328.603 79.13C330.883 81.83 334.003 83.18 337.963 83.18C341.323 83.18 344.293 82.49 346.873 81.11V34.94L342.463 34.85V31.7H366.223ZM415.235 83C417.875 83 420.425 82.46 422.885 81.38C425.345 80.3 427.625 78.74 429.725 76.7L432.065 79.31C424.685 88.67 416.225 93.35 406.685 93.35C401.225 93.35 396.455 92.12 392.375 89.66C388.355 87.2 385.235 83.72 383.015 79.22C380.795 74.72 379.685 69.44 379.685 63.38C379.685 58.16 380.675 53.12 382.655 48.26C384.695 43.34 387.275 39.41 390.395 36.47C393.455 34.49 396.725 32.99 400.205 31.97C403.745 30.89 407.225 30.35 410.645 30.35C415.205 30.35 419.375 31.34 423.155 33.32C426.995 35.24 430.025 37.94 432.245 41.42L421.175 50.69C418.055 45.17 414.305 39.2 409.925 32.78C407.285 33.86 404.885 35.72 402.725 38.36C400.565 41 398.855 44.15 397.595 47.81C396.395 51.47 395.795 55.28 395.795 59.24C395.795 66.8 397.475 72.65 400.835 76.79C404.255 80.93 409.055 83 415.235 83ZM37.71 213C40.35 213 42.9 212.46 45.36 211.38C47.82 210.3 50.1 208.74 52.2 206.7L54.54 209.31C47.16 218.67 38.7 223.35 29.16 223.35C23.7 223.35 18.93 222.12 14.85 219.66C10.83 217.2 7.71 213.72 5.49 209.22C3.27 204.72 2.16 199.44 2.16 193.38C2.16 188.16 3.15 183.12 5.13 178.26C7.17 173.34 9.75 169.41 12.87 166.47C15.93 164.49 19.2 162.99 22.68 161.97C26.22 160.89 29.7 160.35 33.12 160.35C37.68 160.35 41.85 161.34 45.63 163.32C49.47 165.24 52.5 167.94 54.72 171.42L43.65 180.69C40.53 175.17 36.78 169.2 32.4 162.78C29.76 163.86 27.36 165.72 25.2 168.36C23.04 171 21.33 174.15 20.07 177.81C18.87 181.47 18.27 185.28 18.27 189.24C18.27 196.8 19.95 202.65 23.31 206.79C26.73 210.93 31.53 213 37.71 213ZM67.1716 218.85L71.5816 218.76V164.94L67.1716 164.85V161.7H90.9316V164.85L86.5216 164.94V218.76L90.9316 218.85V222H67.1716V218.85ZM135.476 160.35C141.356 160.35 146.486 161.49 150.866 163.77C155.306 166.05 158.726 169.41 161.126 173.85C163.586 178.29 164.816 183.72 164.816 190.14C164.816 194.22 164.096 198.45 162.656 202.83C161.216 207.15 159.116 210.99 156.356 214.35C153.476 217.05 150.176 219.24 146.456 220.92C142.736 222.54 138.776 223.35 134.576 223.35C128.756 223.35 123.626 222.21 119.186 219.93C114.806 217.65 111.386 214.29 108.926 209.85C106.526 205.41 105.326 199.98 105.326 193.56C105.326 189.54 106.076 185.34 107.576 180.96C109.076 176.58 111.206 172.71 113.966 169.35C116.786 166.65 120.026 164.49 123.686 162.87C127.406 161.19 131.336 160.35 135.476 160.35ZM121.346 187.26C121.346 194.22 122.246 199.83 124.046 204.09C125.846 208.35 128.576 211.5 132.236 213.54C135.896 215.52 140.636 216.66 146.456 216.96C147.176 213.96 147.746 210.45 148.166 206.43C148.646 202.35 148.886 199.02 148.886 196.44C148.886 189.42 147.956 183.78 146.096 179.52C144.296 175.2 141.536 172.02 137.816 169.98C134.096 167.94 129.356 166.8 123.596 166.56C122.936 169.68 122.396 173.31 121.976 177.45C121.556 181.59 121.346 184.86 121.346 187.26ZM238.975 161.7V164.85L234.565 164.94L232.225 221.91L221.335 222L188.845 170.88L192.265 218.76L197.575 218.85V222H179.215V218.85L183.625 218.76L185.155 164.94L180.745 164.85V161.7H202.975L229.165 202.29L226.825 164.94L221.515 164.85V161.7H238.975ZM300.114 204.09V222H254.484V218.85L258.894 218.76V164.94L254.484 164.85V161.7H298.314V179.16L294.804 179.07L294.624 174.57C287.964 170.43 281.034 166.95 273.834 164.13L274.014 189.15H290.844V192.48H274.014L274.194 219.48C281.874 216.54 289.284 212.94 296.424 208.68L296.604 204.18L300.114 204.09ZM330.926 171.24C330.926 173.16 331.466 174.93 332.546 176.55C333.626 178.17 334.976 179.61 336.596 180.87C338.216 182.13 340.436 183.69 343.256 185.55C346.556 187.71 349.196 189.63 351.176 191.31C353.156 192.93 354.836 194.91 356.216 197.25C357.656 199.53 358.376 202.11 358.376 204.99C358.376 208.17 357.506 211.17 355.766 213.99C354.026 216.75 351.416 219 347.936 220.74C344.456 222.48 340.256 223.35 335.336 223.35C324.776 223.35 317.276 219.15 312.836 210.75L323.006 202.92C325.886 208.86 329.126 214.62 332.726 220.2H332.816C334.556 220.2 336.176 219.75 337.676 218.85C339.176 217.89 340.376 216.66 341.276 215.16C342.176 213.66 342.626 212.07 342.626 210.39C342.626 208.59 342.086 206.94 341.006 205.44C339.986 203.88 338.696 202.53 337.136 201.39C335.576 200.19 333.446 198.75 330.746 197.07C327.506 195.03 324.896 193.23 322.916 191.67C320.936 190.11 319.226 188.22 317.786 186C316.406 183.72 315.716 181.11 315.716 178.17C315.716 174.87 316.646 171.87 318.506 169.17C320.426 166.41 323.126 164.25 326.606 162.69C330.146 161.13 334.286 160.35 339.026 160.35C343.646 160.35 347.426 161.1 350.366 162.6C353.366 164.04 356.066 166.11 358.466 168.81L349.016 178.35C345.836 173.07 342.626 168.12 339.386 163.5C336.686 163.5 334.586 164.25 333.086 165.75C331.646 167.19 330.926 169.02 330.926 171.24Z" fill="#15263D"/>
<path d="M378 204L495 204" stroke="#FF5500" stroke-width="4"/>
</svg>
