<svg width="428" height="55" viewBox="0 0 428 55" fill="none" xmlns="http://www.w3.org/2000/svg">
<g clip-path="url(#clip0)">
<path d="M11.0054 30.1621C11.0054 27.6683 8.9619 25.5581 6.40746 25.5581H0.851562V40.2014H6.91835C9.47279 40.2014 11.5163 38.1552 11.5163 35.5974C11.5163 34.4464 11.0693 33.3593 10.303 32.5281C10.75 31.8247 11.0054 30.9934 11.0054 30.1621ZM4.5555 28.7553H6.40746C7.17379 28.7553 7.8124 29.3948 7.8124 30.1621C7.8124 30.9294 7.17379 31.5689 6.40746 31.5689H4.5555V28.7553ZM6.91835 37.0042H4.5555V34.1906H6.40746H6.91835C7.68468 34.1906 8.32329 34.8301 8.32329 35.5974C8.32329 36.3647 7.68468 37.0042 6.91835 37.0042Z" fill="#DA8D24"/>
<path d="M19.4352 25.3015C15.3481 25.3015 12.0273 28.7545 12.0273 32.9749C12.0273 37.1952 15.3481 40.6482 19.4352 40.6482C23.5223 40.6482 26.8431 37.1952 26.8431 32.9749C26.8431 28.6906 23.5223 25.3015 19.4352 25.3015ZM19.4352 36.6197C17.5832 36.6197 16.0506 34.9571 16.0506 32.9109C16.0506 30.8647 17.5832 29.2661 19.4352 29.2661C21.2872 29.2661 22.8198 30.9286 22.8198 32.9109C22.8837 34.9571 21.351 36.6197 19.4352 36.6197Z" fill="#DA8D24"/>
<path d="M35.9113 35.2129H37.6355V36.0442C36.9969 36.4279 36.2306 36.6836 35.4643 36.6836C33.293 36.6836 31.5687 35.0211 31.5687 32.9749C31.5687 30.9286 33.293 29.33 35.4643 29.33C36.486 29.33 37.444 29.7137 38.2103 30.3531L38.5934 30.7368L41.2756 27.7954L40.8924 27.4117C39.4236 26.0688 37.5078 25.3015 35.4643 25.3015C31.1217 25.3015 27.6094 28.7545 27.6094 32.9749C27.6094 37.1952 31.1217 40.6482 35.4643 40.6482C36.2306 40.6482 36.9331 40.5203 37.6355 40.3285H41.5949V31.1844H35.9113V35.2129Z" fill="#DA8D24"/>
<path d="M62.0308 29.8428V40.3297H66.6927V29.8428H71.1629V25.3667H57.5605V29.8428H62.0308Z" fill="#DA8D24"/>
<path d="M92.0443 46.5959L82.9761 22.6167H74.9296L68.2881 40.2654H73.2054L78.9529 25.75L87.1271 46.5959H92.0443Z" fill="#DA8D24"/>
<path d="M56.4109 29.33C55.1337 26.9001 52.707 25.3015 49.8971 25.3015C45.81 25.3015 42.4893 28.7545 42.4893 32.9749C42.4893 37.1952 45.81 40.6482 49.8971 40.6482C53.9842 40.6482 57.305 37.1952 57.305 32.9749C57.305 31.632 56.9857 30.4171 56.4109 29.33ZM49.8971 36.6197C48.0452 36.6197 46.5125 34.9571 46.5125 32.9109C46.5125 30.8647 48.0452 29.2661 49.8971 29.2661C51.7491 29.2661 53.2818 30.9286 53.2818 32.9109C53.2818 34.9571 51.7491 36.6197 49.8971 36.6197Z" fill="#DA8D24"/>
<path d="M85.0845 14.8146L89.4909 13.0242L83.6157 10.914L79.8479 0.810791L75.9523 8.22835L67.9697 6.62974L73.5895 12.7045L70.8435 20.0581L80.7419 16.5411L87.9582 22.6159L85.0845 14.8146Z" fill="#DA8D24"/>
<path d="M68.6056 15.1968L70.3929 14.0463L68.2226 13.5989L67.5843 11.4258L66.7545 13.2793L63.499 12.5763L66.0523 15.1968L65.2225 17.37L67.5843 15.8999L69.3077 17.306L68.6056 15.1968Z" fill="#DA8D24"/>
<path d="M88.1495 4.26436L90.0653 3.04942L87.7663 2.53786L87.1277 0.299805L86.0421 2.1542L82.7852 1.51475L85.4673 4.26436L84.6371 6.50242L87.0638 4.96775L88.9158 6.43848L88.1495 4.26436Z" fill="#DA8D24"/>
<path d="M114.46 18.0767H113.375V24.4683H114.46V18.0767Z" fill="#DA8D24"/>
<path d="M116.631 24.4033H115.609V18.0117H116.758L118.418 21.6549C118.482 21.8467 118.61 22.1023 118.673 22.4858L118.737 22.6776H118.801C118.737 22.2941 118.737 21.9745 118.737 21.7188V18.1395H119.758V24.5311H118.609L116.95 20.8879C116.886 20.6962 116.758 20.4405 116.695 20.057L116.631 19.9292H116.567C116.631 20.3127 116.631 20.6323 116.631 20.8879V24.4033Z" fill="#DA8D24"/>
<path d="M120.526 23.8926L121.037 22.9339C121.356 23.3174 121.739 23.4452 122.122 23.4452C122.378 23.4452 122.569 23.3813 122.697 23.2534C122.824 23.1256 122.888 22.9339 122.888 22.6782C122.888 22.5504 122.824 22.3586 122.761 22.2308C122.697 22.103 122.569 21.9751 122.441 21.9112C122.314 21.7834 122.186 21.7195 121.995 21.5916C121.867 21.4638 121.675 21.3999 121.548 21.2721C121.42 21.1442 121.229 21.0164 121.101 20.8886C120.973 20.7607 120.846 20.569 120.782 20.3772C120.718 20.1855 120.654 19.9298 120.654 19.6742C120.654 19.1628 120.846 18.7154 121.165 18.3958C121.484 18.0763 121.995 17.8845 122.569 17.8845C123.08 17.8845 123.59 18.0124 123.973 18.3319L123.59 19.2907C123.463 19.2268 123.335 19.0989 123.144 19.035C122.952 18.9711 122.761 18.9072 122.633 18.9072C122.378 18.9072 122.186 18.9711 122.058 19.0989C121.931 19.2268 121.867 19.4185 121.867 19.6742C121.867 20.0577 122.122 20.3772 122.633 20.6968C122.824 20.8246 123.016 20.8886 123.144 21.0164C123.271 21.0803 123.399 21.2081 123.59 21.3999C123.782 21.5277 123.909 21.7195 123.973 21.9751C124.037 22.1669 124.101 22.4225 124.101 22.6782C124.101 23.1895 123.909 23.6369 123.59 24.0204C123.271 24.4039 122.824 24.5318 122.25 24.5318C121.484 24.5318 120.973 24.34 120.526 23.8926Z" fill="#DA8D24"/>
<path d="M127.04 24.4043H125.891V19.0354H124.359V18.0767H128.572V19.0354H127.04V24.4043Z" fill="#DA8D24"/>
<path d="M130.297 18.0767H129.212V24.4683H130.297V18.0767Z" fill="#DA8D24"/>
<path d="M133.617 24.4043H132.532V19.0354H131V18.0767H135.213V19.0354H133.617V24.4043Z" fill="#DA8D24"/>
<path d="M135.854 22.358V18.0117H136.939V22.358C136.939 23.125 137.258 23.5085 137.896 23.5085C138.534 23.5085 138.854 23.125 138.854 22.358V18.0117H139.939V22.358C139.939 22.9972 139.747 23.5724 139.364 23.9559C138.981 24.3394 138.534 24.5311 137.896 24.5311C137.258 24.5311 136.747 24.3394 136.428 23.9559C136.045 23.5724 135.854 23.0611 135.854 22.358Z" fill="#DA8D24"/>
<path d="M143.197 24.4043H142.048V19.0354H140.516V18.0767H144.729V19.0354H143.197V24.4043Z" fill="#DA8D24"/>
<path d="M144.794 21.2084C144.794 20.2497 145.049 19.4827 145.496 18.8436C145.943 18.2683 146.581 17.9487 147.347 17.9487C148.113 17.9487 148.751 18.2683 149.198 18.8436C149.645 19.4188 149.9 20.2497 149.9 21.2084C149.9 22.1672 149.645 22.9981 149.198 23.6372C148.751 24.2764 148.113 24.5321 147.347 24.5321C146.581 24.5321 145.943 24.2125 145.496 23.6372C145.049 22.9981 144.794 22.1672 144.794 21.2084ZM145.943 21.2084C145.943 21.9115 146.071 22.4867 146.326 22.8702C146.581 23.2537 146.964 23.5094 147.411 23.5094C147.858 23.5094 148.177 23.3177 148.432 22.8702C148.688 22.4867 148.815 21.9115 148.815 21.2084C148.815 20.5054 148.688 19.994 148.432 19.6105C148.177 19.227 147.858 19.0353 147.347 19.0353C146.9 19.0353 146.517 19.227 146.262 19.6105C146.071 19.994 145.943 20.5054 145.943 21.2084Z" fill="#DA8D24"/>
<path d="M154.373 24.4033H152.586V18.0117H154.373C155.139 18.0117 155.778 18.2674 156.224 18.8426C156.671 19.4179 156.926 20.1849 156.926 21.2075C156.926 22.2302 156.671 22.9972 156.224 23.5724C155.778 24.1476 155.203 24.4033 154.373 24.4033ZM153.735 19.0344V23.4446H154.373C154.82 23.4446 155.203 23.2528 155.458 22.8693C155.714 22.4858 155.841 21.9106 155.841 21.2075C155.841 20.5044 155.714 19.9931 155.458 19.6096C155.203 19.2261 154.82 19.0344 154.373 19.0344H153.735Z" fill="#DA8D24"/>
<path d="M158.907 18.0767H157.822V24.4683H158.907V18.0767Z" fill="#DA8D24"/>
<path d="M159.737 23.8926L160.248 22.9339C160.567 23.3174 160.95 23.4452 161.333 23.4452C161.588 23.4452 161.78 23.3813 161.908 23.2534C162.035 23.1256 162.099 22.9339 162.099 22.6782C162.099 22.5504 162.035 22.3586 161.971 22.2308C161.908 22.103 161.78 21.9751 161.652 21.9112C161.525 21.7834 161.397 21.7195 161.205 21.5916C161.078 21.4638 160.886 21.3999 160.759 21.2721C160.631 21.1442 160.439 21.0164 160.312 20.8886C160.184 20.7607 160.056 20.569 159.993 20.3772C159.929 20.1855 159.865 19.9298 159.865 19.6742C159.865 19.1628 160.056 18.7154 160.376 18.3958C160.695 18.0763 161.205 17.8845 161.78 17.8845C162.291 17.8845 162.801 18.0124 163.184 18.3319L162.801 19.2907C162.674 19.2268 162.546 19.0989 162.354 19.035C162.163 18.9711 161.971 18.9072 161.844 18.9072C161.588 18.9072 161.397 18.9711 161.269 19.0989C161.142 19.2268 161.078 19.4185 161.078 19.6742C161.078 20.0577 161.333 20.3772 161.844 20.6968C162.035 20.8246 162.227 20.8886 162.354 21.0164C162.482 21.0803 162.61 21.2081 162.801 21.3999C162.993 21.5277 163.12 21.7195 163.184 21.9751C163.248 22.1669 163.312 22.4225 163.312 22.6782C163.312 23.1895 163.12 23.6369 162.801 24.0204C162.482 24.4039 162.035 24.5318 161.461 24.5318C160.695 24.5318 160.184 24.34 159.737 23.8926Z" fill="#DA8D24"/>
<path d="M166.186 24.4043H165.101V19.0354H163.569V18.0767H167.782V19.0354H166.186V24.4043Z" fill="#DA8D24"/>
<path d="M169.572 24.4033H168.487V18.0117H170.338C170.658 18.0117 170.913 18.0756 171.168 18.2035C171.487 18.3313 171.679 18.587 171.87 18.8426C172.062 19.1622 172.126 19.4818 172.126 19.8653C172.126 20.2488 172.062 20.5684 171.87 20.8879C171.679 21.2075 171.487 21.4632 171.168 21.591C171.232 21.7188 171.296 21.7827 171.36 21.9106L172.445 24.2755H171.232L170.275 21.9106H169.572V24.4033ZM169.572 19.0344V21.0797H170.147C170.402 21.0797 170.594 20.9518 170.785 20.7601C170.977 20.5683 171.041 20.3127 171.041 19.9931C171.041 19.6096 170.913 19.29 170.721 19.1622C170.594 19.0344 170.402 19.0344 170.211 19.0344H169.572Z" fill="#DA8D24"/>
<path d="M174.169 18.0767H173.084V24.4683H174.169V18.0767Z" fill="#DA8D24"/>
<path d="M177.49 24.4043H176.405V19.0354H174.873V18.0767H179.022V19.0354H177.49V24.4043Z" fill="#DA8D24"/>
<path d="M179.789 24.4033H178.704L180.364 18.0117H181.577L183.236 24.4033H182.151L181.768 22.7415H180.236L179.789 24.4033ZM180.811 20.1209L180.428 21.8467H181.64L181.257 20.1209L181.066 19.1622C180.874 19.5457 180.874 19.8653 180.811 20.1209Z" fill="#DA8D24"/>
<path d="M187.005 24.4043H183.877V18.0767H184.962V23.4456H187.005V24.4043Z" fill="#DA8D24"/>
<path d="M191.028 24.4033H189.241V18.0117H191.028C191.794 18.0117 192.433 18.2674 192.88 18.8426C193.326 19.4179 193.582 20.1849 193.582 21.2075C193.582 22.2302 193.326 22.9972 192.88 23.5724C192.433 24.1476 191.858 24.4033 191.028 24.4033ZM190.39 19.0344V23.4446H191.028C191.475 23.4446 191.858 23.2528 192.114 22.8693C192.369 22.4858 192.497 21.9106 192.497 21.2075C192.497 20.5044 192.369 19.9931 192.114 19.6096C191.858 19.2261 191.475 19.0344 191.028 19.0344H190.39Z" fill="#DA8D24"/>
<path d="M197.669 24.4043H194.478V18.0767H197.541V19.0354H195.563V20.6972H197.158V21.7199H195.563V23.4456H197.669V24.4043Z" fill="#DA8D24"/>
<path d="M115.865 40.2644H113.886V28.6265H117.207C118.228 28.6265 119.058 29.0101 119.697 29.7135C120.336 30.4169 120.655 31.3121 120.655 32.4631C120.655 33.6141 120.336 34.5094 119.697 35.2128C119.058 35.9161 118.228 36.2998 117.207 36.2998H115.865V40.2644ZM115.865 30.4169V34.5094H116.823C117.334 34.5094 117.781 34.3175 118.101 33.9339C118.42 33.5502 118.548 33.0386 118.548 32.4631C118.548 31.8237 118.356 31.3761 118.037 30.9924C117.717 30.6087 117.27 30.4169 116.823 30.4169H115.865Z" fill="#DA8D24"/>
<path d="M122.443 40.2648H120.463L123.528 28.563H125.699L128.765 40.2648H126.785L126.083 37.2594H123.209L122.443 40.2648ZM124.231 32.4636L123.464 35.5969H125.699L124.933 32.4636L124.614 30.6732H124.55C124.486 31.3126 124.358 31.952 124.231 32.4636Z" fill="#DA8D24"/>
<path d="M132.916 40.2644H130.937V30.4169H128.127V28.6265H135.79V30.4169H132.916V40.2644Z" fill="#DA8D24"/>
<path d="M139.047 40.2644H137.067V28.6265H140.452C141.027 28.6265 141.538 28.7544 141.985 29.0101C142.496 29.2659 142.943 29.6496 143.262 30.2251C143.581 30.7366 143.709 31.3761 143.709 32.1434C143.709 32.8468 143.581 33.4862 143.262 34.0617C142.943 34.6373 142.559 35.0849 142.049 35.3406V35.4046C142.176 35.5964 142.304 35.7883 142.368 36.044L144.284 40.3923H142.112L140.324 36.044H139.047V40.2644ZM139.047 30.4169V34.1896H140.133C140.58 34.1896 140.963 33.9978 141.218 33.6781C141.538 33.3584 141.665 32.8468 141.665 32.2713C141.665 31.5679 141.474 31.0564 141.027 30.7366C140.771 30.5448 140.452 30.4809 140.133 30.4809H139.047V30.4169Z" fill="#DA8D24"/>
<path d="M147.476 28.6265H145.496V40.3283H147.476V28.6265Z" fill="#DA8D24"/>
<path d="M151.117 40.2648H149.265L150.031 28.563H152.202L153.799 34.254L154.182 36.0445H154.246C154.374 35.2132 154.501 34.6377 154.629 34.254L156.225 28.563H158.397L159.163 40.2648H157.311L156.928 33.7425C156.928 33.167 156.928 32.6554 156.928 32.2078V31.8881H156.864C156.736 32.6554 156.609 33.2949 156.481 33.7425L155.204 38.1547H153.224L151.947 33.7425L151.564 31.8881H151.5V32.2718C151.5 32.3357 151.5 32.3357 151.5 32.3997C151.5 32.4636 151.5 32.5275 151.5 32.6554C151.5 32.7833 151.5 32.8473 151.5 32.9752C151.5 33.2309 151.5 33.4867 151.5 33.8064L151.117 40.2648Z" fill="#DA8D24"/>
<path d="M160.312 34.3817C160.312 32.6552 160.759 31.1844 161.589 30.0974C162.419 29.0103 163.568 28.4348 164.973 28.4348C166.378 28.4348 167.528 29.0103 168.358 30.0974C169.188 31.1844 169.635 32.6552 169.635 34.3817C169.635 36.1721 169.188 37.6428 168.358 38.7938C167.528 39.9448 166.378 40.4564 164.973 40.4564C163.568 40.4564 162.419 39.8809 161.525 38.7938C160.759 37.6428 160.312 36.1721 160.312 34.3817ZM162.419 34.3817C162.419 35.6605 162.674 36.6837 163.121 37.451C163.568 38.2183 164.207 38.602 165.037 38.602C165.867 38.602 166.506 38.2183 166.953 37.451C167.4 36.6837 167.656 35.6605 167.656 34.3817C167.656 33.1028 167.4 32.1436 166.953 31.4402C166.506 30.7368 165.867 30.3531 165.037 30.3531C164.207 30.3531 163.568 30.7368 163.121 31.4402C162.611 32.1436 162.419 33.1028 162.419 34.3817Z" fill="#DA8D24"/>
<path d="M173.212 40.2644H171.296V28.6265H173.403L176.405 35.2127C176.532 35.5325 176.724 35.9801 176.916 36.6835L176.979 37.0032H177.043C176.98 36.2998 176.916 35.7243 176.916 35.2127V28.6265H178.768V40.3283H176.66L173.659 33.6781C173.531 33.3584 173.339 32.8468 173.148 32.2074L173.084 31.9516H173.02C173.084 32.655 173.148 33.2305 173.148 33.742V40.2644H173.212Z" fill="#DA8D24"/>
<path d="M182.919 28.6265H180.939V40.3283H182.919V28.6265Z" fill="#DA8D24"/>
<path d="M184.579 34.3817C184.579 32.6552 185.026 31.1844 185.856 30.0974C186.687 29.0103 187.836 28.4348 189.241 28.4348C190.646 28.4348 191.795 29.0103 192.626 30.0974C193.456 31.1844 193.903 32.6552 193.903 34.3817C193.903 36.1721 193.456 37.6428 192.626 38.7938C191.795 39.9448 190.646 40.4564 189.241 40.4564C187.836 40.4564 186.687 39.8809 185.792 38.7938C185.026 37.6428 184.579 36.1721 184.579 34.3817ZM186.623 34.3817C186.623 35.6605 186.878 36.6837 187.325 37.451C187.772 38.2183 188.411 38.602 189.241 38.602C190.071 38.602 190.71 38.2183 191.157 37.451C191.604 36.6837 191.859 35.6605 191.859 34.3817C191.859 33.1028 191.604 32.1436 191.157 31.4402C190.71 30.7368 190.071 30.3531 189.241 30.3531C188.411 30.3531 187.772 30.7368 187.325 31.4402C186.878 32.1436 186.623 33.1028 186.623 34.3817Z" fill="#DA8D24"/>
<path d="M203.417 28.4348C204.567 28.4348 205.525 28.7545 206.227 29.394L205.397 31.1205C205.206 30.8647 204.886 30.6729 204.567 30.545C204.184 30.4171 203.865 30.2892 203.481 30.2892C202.523 30.2892 201.757 30.6729 201.182 31.4402C200.608 32.2075 200.352 33.1667 200.352 34.3177C200.352 35.5327 200.608 36.4918 201.182 37.3231C201.757 38.1544 202.523 38.538 203.417 38.538C204.184 38.538 204.886 38.2823 205.589 37.7068L206.419 39.3693C205.589 40.0727 204.503 40.3924 203.29 40.3924C201.757 40.3924 200.544 39.8169 199.65 38.7299C198.756 37.5789 198.309 36.1721 198.309 34.3817C198.309 32.5912 198.756 31.1844 199.65 30.0334C200.608 28.9464 201.885 28.4348 203.417 28.4348Z" fill="#DA8D24"/>
<path d="M207.696 36.4916V28.6265H209.676V36.4916C209.676 37.8984 210.251 38.6018 211.4 38.6018C212.55 38.6018 213.124 37.8984 213.124 36.4916V28.6265H215.104V36.5556C215.104 37.7705 214.785 38.7297 214.082 39.4331C213.38 40.1365 212.486 40.5201 211.4 40.5201C210.251 40.5201 209.357 40.2004 208.654 39.497C208.016 38.7297 207.696 37.7705 207.696 36.4916Z" fill="#DA8D24"/>
<path d="M222.895 40.2644H217.147V28.6265H219.127V38.5379H222.895V40.2644Z" fill="#DA8D24"/>
<path d="M226.728 40.2644H224.748V30.4169H221.938V28.6265H229.538V30.4169H226.728V40.2644Z" fill="#DA8D24"/>
<path d="M230.688 36.4916V28.6265H232.667V36.4916C232.667 37.8984 233.242 38.6018 234.391 38.6018C235.541 38.6018 236.116 37.8984 236.116 36.4916V28.6265H238.095V36.5556C238.095 37.7705 237.776 38.7297 237.074 39.4331C236.371 40.1365 235.477 40.5201 234.391 40.5201C233.242 40.5201 232.348 40.2004 231.645 39.497C231.071 38.7297 230.688 37.7705 230.688 36.4916Z" fill="#DA8D24"/>
<path d="M242.182 40.2644H240.202V28.6265H243.587C244.162 28.6265 244.672 28.7544 245.119 29.0101C245.63 29.2659 246.077 29.6496 246.397 30.2251C246.716 30.7366 246.844 31.3761 246.844 32.1434C246.844 32.8468 246.716 33.4862 246.397 34.0617C246.077 34.6373 245.694 35.0849 245.183 35.3406V35.4046C245.311 35.5964 245.439 35.7883 245.503 36.044L247.419 40.3923H245.247L243.459 36.044H242.182V40.2644ZM242.182 30.4169V34.1896H243.268C243.715 34.1896 244.098 33.9978 244.353 33.6781C244.672 33.3584 244.8 32.8468 244.8 32.2713C244.8 31.5679 244.609 31.0564 244.162 30.7366C243.906 30.5448 243.587 30.4809 243.268 30.4809H242.182V30.4169Z" fill="#DA8D24"/>
<path d="M249.654 40.2648H247.675L250.74 28.563H252.911L255.977 40.2648H253.997L253.295 37.2594H250.421L249.654 40.2648ZM251.443 32.4636L250.676 35.5969H252.911L252.145 32.4636L251.826 30.6732C251.698 31.3126 251.57 31.952 251.443 32.4636Z" fill="#DA8D24"/>
<path d="M262.873 40.2644H257.126V28.6265H259.106V38.5379H262.873V40.2644Z" fill="#DA8D24"/>
<path d="M102.774 1.32324H101.624V46.7878H102.774V1.32324Z" fill="#DA8D24"/>
</g>
<g clip-path="url(#clip1)">
<path d="M338.561 2.5144H333.453C333.357 2.5144 333.164 2.60999 333.164 2.70558L329.887 15.6097L326.61 2.70558C326.61 2.60999 326.514 2.5144 326.417 2.5144H321.406C321.309 2.5144 321.213 2.5144 321.213 2.70558V24.9771C321.213 25.0727 321.309 25.1683 321.406 25.1683H324.779C324.875 25.1683 324.972 25.0727 324.972 24.9771V15.5141L327.092 24.9771C327.092 25.0727 327.188 25.1683 327.381 25.1683H331.043C331.14 25.1683 331.236 25.0727 331.333 24.9771L333.453 15.5141V24.9771C333.453 25.0727 333.549 25.1683 333.646 25.1683H338.561C338.657 25.1683 338.754 25.0727 338.754 24.9771V2.70558C338.754 2.5144 338.754 2.5144 338.561 2.5144Z" fill="#DA8D24"/>
<path d="M348.295 25.7418C351.765 25.7418 354.945 24.4992 354.945 20.0066V2.70558C354.945 2.60999 354.849 2.5144 354.753 2.5144H350.994C350.898 2.5144 350.801 2.60999 350.801 2.70558V19.4331C350.801 21.536 350.03 22.0139 348.874 22.0139C347.717 22.0139 346.946 21.4404 346.946 19.4331V2.70558C346.946 2.60999 346.85 2.5144 346.753 2.5144H341.742C341.645 2.5144 341.549 2.60999 341.549 2.70558V20.0066C341.549 24.4992 344.729 25.7418 348.295 25.7418Z" fill="#DA8D24"/>
<path d="M364.487 25.7423C368.439 25.7423 371.908 23.735 371.908 19.0513C372.005 11.8823 362.656 10.5441 362.656 7.48539C362.656 6.24277 363.427 5.66925 364.487 5.66925C365.547 5.66925 366.415 6.43394 366.511 8.25007C366.511 8.34566 366.607 8.34566 366.704 8.34566L371.234 7.29421C371.33 7.29421 371.33 7.29421 371.33 7.10304C370.848 3.47078 368.15 1.94141 364.487 1.94141C360.825 1.94141 357.741 3.75754 357.741 7.96332C357.741 14.4632 366.607 14.9411 366.607 19.338C366.607 21.2498 365.836 22.0144 364.487 22.0144C363.234 22.0144 362.463 21.4409 362.367 19.338C362.367 19.2424 362.367 19.1469 362.174 19.1469L357.355 20.2939C357.259 20.2939 357.259 20.3895 357.259 20.4851C357.548 23.735 359.957 25.7423 364.487 25.7423Z" fill="#DA8D24"/>
<path d="M387.039 24.9771V21.6316C387.039 21.536 386.943 21.4404 386.846 21.4404H379.811V14.5582H385.882C385.979 14.5582 386.075 14.4626 386.075 14.3671V11.1171C386.075 11.0215 385.979 10.926 385.882 10.926H379.811V6.14667H386.846C386.943 6.14667 387.039 6.05108 387.039 5.9555V2.70558C387.039 2.60999 386.943 2.5144 386.846 2.5144H374.703C374.606 2.5144 374.51 2.60999 374.51 2.70558V24.9771C374.51 25.0727 374.606 25.1683 374.703 25.1683H386.846C386.943 25.1683 387.039 25.0727 387.039 24.9771Z" fill="#DA8D24"/>
<path d="M397.062 25.7423C400.435 25.7423 404.387 24.5953 404.387 19.4336V8.25007C404.387 3.08844 400.435 1.94141 397.062 1.94141C393.689 1.94141 389.737 3.08844 389.737 8.25007V19.4336C389.737 24.5953 393.689 25.7423 397.062 25.7423ZM395.134 8.25007C395.134 6.14718 395.906 5.66925 397.062 5.66925C398.219 5.66925 398.99 6.14718 398.99 8.25007V19.4336C398.99 21.5365 398.219 22.0144 397.062 22.0144C395.906 22.0144 395.134 21.5365 395.134 19.4336V8.25007Z" fill="#DA8D24"/>
<path d="M332.875 40.1756C334.32 39.3153 335.477 37.786 335.477 35.1096C335.477 30.9994 332.875 29.0876 329.116 29.0876H321.406C321.309 29.0876 321.213 29.1832 321.213 29.2788V53.6532C321.213 53.7488 321.309 53.8444 321.406 53.8444H328.923C333.838 53.8444 336.441 52.2194 336.441 47.6313V45.9108C336.441 42.4697 334.899 40.8447 332.875 40.1756ZM327.092 33.1978H328.056C329.212 33.1978 329.983 33.7714 329.983 35.7787C329.983 37.786 329.212 38.3595 328.056 38.3595H327.092V33.1978ZM330.562 47.0578C330.562 49.2563 329.694 49.9254 328.441 49.9254H327.092V42.4697H328.538C329.791 42.4697 330.658 43.1388 330.658 45.3372V47.0578H330.562Z" fill="#DA8D24"/>
<path d="M347.042 28.5144C343.38 28.5144 339.043 29.757 339.043 35.3966V47.6316C339.043 53.2711 343.38 54.5137 347.042 54.5137C350.705 54.5137 355.042 53.2711 355.042 47.6316V35.3966C355.042 29.757 350.705 28.5144 347.042 28.5144ZM349.163 47.6316C349.163 49.9256 348.295 50.4991 347.042 50.4991C345.789 50.4991 344.922 49.9256 344.922 47.6316V35.3966C344.922 33.1025 345.789 32.529 347.042 32.529C348.295 32.529 349.163 33.1025 349.163 35.3966V47.6316Z" fill="#DA8D24"/>
<path d="M366.222 28.5144C362.174 28.5144 358.223 29.9482 358.223 35.4922V47.6316C358.223 53.1756 362.174 54.6093 366.222 54.6093C369.017 54.6093 372.294 53.7491 374.029 51.7418C374.029 51.6462 374.125 51.6462 374.125 51.455V39.6979C374.125 39.6024 374.029 39.5068 373.932 39.5068H366.126C366.029 39.5068 365.933 39.6024 365.933 39.6979V43.3302C365.933 43.4258 366.029 43.5214 366.126 43.5214H368.342V49.9256C367.764 50.308 367.186 50.4991 366.318 50.4991C365.066 50.4991 364.198 49.83 364.198 47.6316V35.4922C364.198 33.1981 365.066 32.6246 366.415 32.6246C367.861 32.6246 368.728 33.4849 368.728 35.5878C368.728 35.6833 368.824 35.7789 368.921 35.7789L374.125 34.5363C374.221 34.5363 374.318 34.4407 374.318 34.2496C373.547 29.5658 369.595 28.5144 366.222 28.5144Z" fill="#DA8D24"/>
<path d="M385.016 28.5144C381.354 28.5144 377.017 29.757 377.017 35.3966V47.6316C377.017 53.2711 381.354 54.5137 385.016 54.5137C388.678 54.5137 393.015 53.2711 393.015 47.6316V35.3966C393.015 29.757 388.678 28.5144 385.016 28.5144ZM387.136 47.6316C387.136 49.9256 386.269 50.4991 385.016 50.4991C383.763 50.4991 382.896 49.9256 382.896 47.6316V35.3966C382.896 33.1025 383.763 32.529 385.016 32.529C386.269 32.529 387.136 33.1025 387.136 35.3966V47.6316Z" fill="#DA8D24"/>
<path d="M411.809 33.0075V29.3753C411.809 29.2797 411.712 29.1841 411.616 29.1841H395.135C395.039 29.1841 394.942 29.2797 394.942 29.3753V33.0075C394.942 33.1031 395.039 33.1987 395.135 33.1987H400.436V53.7496C400.436 53.8452 400.532 53.9408 400.629 53.9408H406.026C406.122 53.9408 406.219 53.8452 406.219 53.7496V33.1987H411.519C411.712 33.1987 411.809 33.1031 411.809 33.0075Z" fill="#DA8D24"/>
<path d="M421.254 29.1841H417.11C417.013 29.1841 417.013 29.1841 416.917 29.2797L410.363 53.6541C410.363 53.8452 410.46 53.8452 410.652 53.8452H414.508C414.604 53.8452 414.7 53.8452 414.7 53.7497L415.568 50.7865H421.254L422.121 53.7497C422.121 53.8452 422.218 53.8452 422.314 53.8452H427.808C427.904 53.8452 428.001 53.8452 428.001 53.6541L421.447 29.2797C421.447 29.1841 421.35 29.1841 421.254 29.1841ZM416.532 46.7719L418.363 39.7941L420.194 46.7719H416.532Z" fill="#DA8D24"/>
<path d="M409.881 19.9115L413.833 19.1468C416.146 18.7645 418.363 17.5219 418.266 14.3675V8.05889C418.266 4.90455 415.953 4.52221 413.64 4.90455L409.785 5.57365C409.688 5.57365 409.688 5.66924 409.688 5.66924V19.6248C409.688 19.8159 409.785 19.9115 409.881 19.9115ZM412.676 7.58096C412.676 7.48537 412.676 7.48537 412.773 7.48537L414.026 7.2942C414.7 7.19861 415.278 7.38978 415.375 8.72799V14.9411C415.375 16.2793 414.893 16.6616 414.218 16.7572L412.869 16.9484C412.773 16.9484 412.676 16.8528 412.676 16.8528V7.58096Z" fill="#DA8D24"/>
<path d="M420.098 17.9046L427.904 16.4708C427.904 16.4708 428.001 16.4708 428.001 16.3752C428.001 16.0885 428.001 14.6547 428.001 14.2723C428.001 14.1767 428.001 14.1767 427.904 14.1767L423.278 15.037C423.182 15.037 423.182 15.037 423.182 14.9414V10.8312C423.182 10.8312 423.182 10.7356 423.278 10.7356L427.326 9.97096C427.326 9.97096 427.422 9.97096 427.422 9.87537V7.6769C427.422 7.58131 427.422 7.58131 427.326 7.58131L423.374 8.346C423.278 8.346 423.278 8.346 423.278 8.25041V5.57401C423.278 5.57401 423.278 5.47842 423.374 5.47842L428.001 4.61815C428.001 4.61815 428.097 4.61815 428.097 4.52257V2.51526C428.097 2.41968 428.097 2.41968 428.001 2.41968L420.194 3.85347C420.194 3.85347 420.098 3.85347 420.098 3.94905V17.7134C420.001 17.809 420.098 17.9046 420.098 17.9046Z" fill="#DA8D24"/>
<path d="M417.591 26.9853C417.591 27.0809 417.688 27.0809 417.688 27.0809H419.904C420.001 27.0809 420.193 27.0809 420.193 26.8897L423.085 21.3458L427.807 20.4855C427.904 20.4855 427.904 20.3899 427.904 20.2943V18.287C427.904 18.1914 427.807 18.0959 427.711 18.1914L409.688 21.5369C409.592 21.5369 409.592 21.6325 409.592 21.7281V23.7354C409.592 23.831 409.688 23.9266 409.785 23.9266L418.844 22.3016L417.591 26.9853C417.591 26.9853 417.591 26.8897 417.591 26.9853Z" fill="#DA8D24"/>
</g>
<defs>
<clipPath id="clip0">
<rect width="262.021" height="46.4877" fill="white" transform="translate(0.851562 0.299805)"/>
</clipPath>
<clipPath id="clip1">
<rect width="106.787" height="52.5722" fill="white" transform="translate(321.213 1.94141)"/>
</clipPath>
</defs>
</svg>
