<svg width="260" height="33" viewBox="0 0 260 33" fill="none" xmlns="http://www.w3.org/2000/svg">
<g clip-path="url(#clip0)">
<path d="M6.18053 18.1767C6.18053 16.6587 4.93665 15.3743 3.3818 15.3743H0V24.2874H3.69277C5.24762 24.2874 6.4915 23.0419 6.4915 21.485C6.4915 20.7844 6.2194 20.1228 5.75295 19.6168C6.02505 19.1886 6.18053 18.6826 6.18053 18.1767ZM2.25453 17.3204H3.3818C3.84826 17.3204 4.23697 17.7096 4.23697 18.1767C4.23697 18.6437 3.84826 19.0329 3.3818 19.0329H2.25453V17.3204ZM3.69277 22.3413H2.25453V20.6288H3.3818H3.69277C4.15923 20.6288 4.54794 21.018 4.54794 21.485C4.54794 21.9521 4.15923 22.3413 3.69277 22.3413Z" fill="#3F3F3F"/>
<path d="M11.3118 15.2186C8.82404 15.2186 6.80273 17.3204 6.80273 19.8892C6.80273 22.4581 8.82404 24.5599 11.3118 24.5599C13.7996 24.5599 15.8209 22.4581 15.8209 19.8892C15.8209 17.2814 13.7996 15.2186 11.3118 15.2186ZM11.3118 22.1078C10.1845 22.1078 9.25162 21.0958 9.25162 19.8503C9.25162 18.6048 10.1845 17.6317 11.3118 17.6317C12.4391 17.6317 13.372 18.6437 13.372 19.8503C13.4109 21.0958 12.4779 22.1078 11.3118 22.1078Z" fill="#3F3F3F"/>
<path d="M21.3404 21.2515H22.3899V21.7575C22.0012 21.991 21.5347 22.1467 21.0683 22.1467C19.7467 22.1467 18.6971 21.1347 18.6971 19.8892C18.6971 18.6437 19.7467 17.6707 21.0683 17.6707C21.6902 17.6707 22.2733 17.9042 22.7397 18.2934L22.973 18.527L24.6056 16.7365L24.3723 16.503C23.4783 15.6856 22.3122 15.2186 21.0683 15.2186C18.425 15.2186 16.2871 17.3204 16.2871 19.8892C16.2871 22.4581 18.425 24.5599 21.0683 24.5599C21.5347 24.5599 21.9623 24.482 22.3899 24.3653H24.7999V18.7994H21.3404V21.2515Z" fill="#3F3F3F"/>
<path d="M37.2386 17.9821V24.3653H40.0762V17.9821H42.7971V15.2575H34.5176V17.9821H37.2386Z" fill="#3F3F3F"/>
<path d="M55.508 28.1797L49.9882 13.5839H45.0905L41.0479 24.3264H44.0409L47.5394 15.491L52.5149 28.1797H55.508Z" fill="#3F3F3F"/>
<path d="M33.8177 17.6707C33.0403 16.1916 31.5632 15.2186 29.8528 15.2186C27.3651 15.2186 25.3438 17.3204 25.3438 19.8892C25.3438 22.4581 27.3651 24.5599 29.8528 24.5599C32.3406 24.5599 34.3619 22.4581 34.3619 19.8892C34.3619 19.0719 34.1675 18.3323 33.8177 17.6707ZM29.8528 22.1078C28.7256 22.1078 27.7926 21.0958 27.7926 19.8503C27.7926 18.6048 28.7256 17.6317 29.8528 17.6317C30.9801 17.6317 31.913 18.6437 31.913 19.8503C31.913 21.0958 30.9801 22.1078 29.8528 22.1078Z" fill="#3F3F3F"/>
<path d="M51.271 8.83535L53.9531 7.74553L50.377 6.4611L48.0836 0.311401L45.7124 4.82637L40.8535 3.85332L44.2742 7.55092L42.6027 12.027L48.6278 9.88625L53.0202 13.5839L51.271 8.83535Z" fill="#3F3F3F"/>
<path d="M41.2425 9.06887L42.3309 8.36827L41.0093 8.09581L40.6206 6.77246L40.1152 7.9012L38.1328 7.47306L39.6877 9.06887L39.1823 10.3922L40.6206 9.49701L41.6701 10.3533L41.2425 9.06887Z" fill="#3F3F3F"/>
<path d="M53.1373 2.41317L54.3034 1.67365L52.904 1.36228L52.5153 0L51.8545 1.12874L49.8721 0.739521L51.5047 2.41317L50.9993 3.77545L52.4764 2.84132L53.6037 3.73653L53.1373 2.41317Z" fill="#3F3F3F"/>
<path d="M69.152 10.8204H68.4912V14.7126H69.152V10.8204Z" fill="#3F3F3F"/>
<path d="M70.4735 14.6736H69.8516V10.7814H70.5512L71.5619 13C71.6008 13.1168 71.6785 13.2725 71.7174 13.506L71.7563 13.6228H71.7951C71.7563 13.3892 71.7563 13.1946 71.7563 13.0389V10.8593H72.3782V14.7515H71.6785L70.6679 12.5329C70.629 12.4162 70.5512 12.2605 70.5124 12.0269L70.4735 11.9491H70.4346C70.4735 12.1826 70.4735 12.3772 70.4735 12.5329V14.6736Z" fill="#3F3F3F"/>
<path d="M72.8447 14.3623L73.1557 13.7785C73.3501 14.012 73.5833 14.0898 73.8165 14.0898C73.972 14.0898 74.0886 14.0509 74.1664 13.9731C74.2441 13.8952 74.283 13.7785 74.283 13.6228C74.283 13.5449 74.2441 13.4282 74.2052 13.3503C74.1664 13.2725 74.0886 13.1946 74.0109 13.1557C73.9331 13.0779 73.8554 13.0389 73.7388 12.9611C73.661 12.8833 73.5444 12.8443 73.4667 12.7665C73.3889 12.6886 73.2723 12.6108 73.1946 12.533C73.1168 12.4551 73.0391 12.3383 73.0002 12.2216C72.9613 12.1048 72.9225 11.9491 72.9225 11.7934C72.9225 11.4821 73.0391 11.2096 73.2334 11.015C73.4278 10.8204 73.7388 10.7036 74.0886 10.7036C74.3996 10.7036 74.7106 10.7815 74.9438 10.9761L74.7106 11.5599C74.6328 11.521 74.5551 11.4431 74.4385 11.4042C74.3218 11.3653 74.2052 11.3264 74.1275 11.3264C73.972 11.3264 73.8554 11.3653 73.7776 11.4431C73.6999 11.521 73.661 11.6377 73.661 11.7934C73.661 12.027 73.8165 12.2216 74.1275 12.4162C74.2441 12.494 74.3607 12.533 74.4385 12.6108C74.5162 12.6497 74.5939 12.7276 74.7106 12.8443C74.8272 12.9222 74.9049 13.0389 74.9438 13.1946C74.9827 13.3114 75.0215 13.4671 75.0215 13.6228C75.0215 13.9342 74.9049 14.2066 74.7106 14.4401C74.5162 14.6737 74.2441 14.7515 73.8943 14.7515C73.4278 14.7515 73.1168 14.6348 72.8447 14.3623Z" fill="#3F3F3F"/>
<path d="M76.8094 14.6737H76.1097V11.4042H75.1768V10.8204H77.7423V11.4042H76.8094V14.6737Z" fill="#3F3F3F"/>
<path d="M78.7917 10.8204H78.1309V14.7126H78.7917V10.8204Z" fill="#3F3F3F"/>
<path d="M80.8134 14.6737H80.1526V11.4042H79.2197V10.8204H81.7852V11.4042H80.8134V14.6737Z" fill="#3F3F3F"/>
<path d="M82.1738 13.4281V10.7814H82.8346V13.4281C82.8346 13.8952 83.029 14.1287 83.4177 14.1287C83.8064 14.1287 84.0008 13.8952 84.0008 13.4281V10.7814H84.6616V13.4281C84.6616 13.8174 84.545 14.1677 84.3118 14.4012C84.0785 14.6347 83.8064 14.7515 83.4177 14.7515C83.029 14.7515 82.718 14.6347 82.5237 14.4012C82.2904 14.1677 82.1738 13.8563 82.1738 13.4281Z" fill="#3F3F3F"/>
<path d="M86.6443 14.6737H85.9446V11.4042H85.0117V10.8204H87.5772V11.4042H86.6443V14.6737Z" fill="#3F3F3F"/>
<path d="M87.6162 12.7275C87.6162 12.1437 87.7717 11.6766 88.0438 11.2874C88.3159 10.9371 88.7046 10.7425 89.1711 10.7425C89.6375 10.7425 90.0262 10.9371 90.2983 11.2874C90.5704 11.6377 90.7259 12.1437 90.7259 12.7275C90.7259 13.3114 90.5704 13.8173 90.2983 14.2066C90.0262 14.5958 89.6375 14.7515 89.1711 14.7515C88.7046 14.7515 88.3159 14.5569 88.0438 14.2066C87.7717 13.8173 87.6162 13.3114 87.6162 12.7275ZM88.3159 12.7275C88.3159 13.1557 88.3936 13.506 88.5491 13.7395C88.7046 13.973 88.9378 14.1287 89.2099 14.1287C89.482 14.1287 89.6764 14.012 89.8319 13.7395C89.9874 13.506 90.0651 13.1557 90.0651 12.7275C90.0651 12.2994 89.9874 11.988 89.8319 11.7545C89.6764 11.5209 89.482 11.4042 89.1711 11.4042C88.899 11.4042 88.6657 11.5209 88.5103 11.7545C88.3936 11.988 88.3159 12.2994 88.3159 12.7275Z" fill="#3F3F3F"/>
<path d="M93.4468 14.6736H92.3584V10.7814H93.4468C93.9132 10.7814 94.302 10.9371 94.5741 11.2874C94.8462 11.6377 95.0016 12.1048 95.0016 12.7275C95.0016 13.3503 94.8462 13.8174 94.5741 14.1677C94.302 14.518 93.9521 14.6736 93.4468 14.6736ZM93.0581 11.4042V14.0898H93.4468C93.7189 14.0898 93.9521 13.973 94.1076 13.7395C94.2631 13.506 94.3408 13.1557 94.3408 12.7275C94.3408 12.2994 94.2631 11.988 94.1076 11.7545C93.9521 11.521 93.7189 11.4042 93.4468 11.4042H93.0581Z" fill="#3F3F3F"/>
<path d="M96.2067 10.8204H95.5459V14.7126H96.2067V10.8204Z" fill="#3F3F3F"/>
<path d="M96.7119 14.3623L97.0229 13.7785C97.2172 14.012 97.4505 14.0898 97.6837 14.0898C97.8392 14.0898 97.9558 14.0509 98.0335 13.9731C98.1113 13.8952 98.1502 13.7785 98.1502 13.6228C98.1502 13.5449 98.1113 13.4282 98.0724 13.3503C98.0335 13.2725 97.9558 13.1946 97.8781 13.1557C97.8003 13.0779 97.7226 13.0389 97.606 12.9611C97.5282 12.8833 97.4116 12.8443 97.3339 12.7665C97.2561 12.6886 97.1395 12.6108 97.0618 12.533C96.984 12.4551 96.9063 12.3383 96.8674 12.2216C96.8285 12.1048 96.7897 11.9491 96.7897 11.7934C96.7897 11.4821 96.9063 11.2096 97.1006 11.015C97.295 10.8204 97.606 10.7036 97.9558 10.7036C98.2668 10.7036 98.5777 10.7815 98.811 10.9761L98.5777 11.5599C98.5 11.521 98.4223 11.4431 98.3056 11.4042C98.189 11.3653 98.0724 11.3264 97.9947 11.3264C97.8392 11.3264 97.7226 11.3653 97.6448 11.4431C97.5671 11.521 97.5282 11.6377 97.5282 11.7934C97.5282 12.027 97.6837 12.2216 97.9947 12.4162C98.1113 12.494 98.2279 12.533 98.3056 12.6108C98.3834 12.6497 98.4611 12.7276 98.5777 12.8443C98.6944 12.9222 98.7721 13.0389 98.811 13.1946C98.8498 13.3114 98.8887 13.4671 98.8887 13.6228C98.8887 13.9342 98.7721 14.2066 98.5777 14.4401C98.3834 14.6737 98.1113 14.7515 97.7614 14.7515C97.295 14.7515 96.984 14.6348 96.7119 14.3623Z" fill="#3F3F3F"/>
<path d="M100.638 14.6737H99.9769V11.4042H99.0439V10.8204H101.609V11.4042H100.638V14.6737Z" fill="#3F3F3F"/>
<path d="M102.698 14.6736H102.037V10.7814H103.164C103.359 10.7814 103.514 10.8204 103.67 10.8982C103.864 10.976 103.981 11.1317 104.097 11.2874C104.214 11.482 104.253 11.6766 104.253 11.9102C104.253 12.1437 104.214 12.3383 104.097 12.5329C103.981 12.7275 103.864 12.8832 103.67 12.9611C103.709 13.0389 103.747 13.0778 103.786 13.1557L104.447 14.5958H103.709L103.126 13.1557H102.698V14.6736ZM102.698 11.4042V12.6497H103.048C103.203 12.6497 103.32 12.5719 103.436 12.4551C103.553 12.3383 103.592 12.1826 103.592 11.988C103.592 11.7545 103.514 11.5599 103.398 11.482C103.32 11.4042 103.203 11.4042 103.087 11.4042H102.698Z" fill="#3F3F3F"/>
<path d="M105.497 10.8204H104.836V14.7126H105.497V10.8204Z" fill="#3F3F3F"/>
<path d="M107.518 14.6737H106.857V11.4042H105.924V10.8204H108.45V11.4042H107.518V14.6737Z" fill="#3F3F3F"/>
<path d="M108.918 14.6736H108.257L109.267 10.7814H110.006L111.017 14.6736H110.356L110.123 13.6617H109.19L108.918 14.6736ZM109.54 12.0659L109.306 13.1168H110.045L109.812 12.0659L109.695 11.482C109.578 11.7156 109.578 11.9102 109.54 12.0659Z" fill="#3F3F3F"/>
<path d="M113.31 14.6737H111.405V10.8204H112.066V14.0898H113.31V14.6737Z" fill="#3F3F3F"/>
<path d="M115.758 14.6736H114.67V10.7814H115.758C116.225 10.7814 116.613 10.9371 116.886 11.2874C117.158 11.6377 117.313 12.1048 117.313 12.7275C117.313 13.3503 117.158 13.8174 116.886 14.1677C116.613 14.518 116.264 14.6736 115.758 14.6736ZM115.37 11.4042V14.0898H115.758C116.03 14.0898 116.264 13.973 116.419 13.7395C116.575 13.506 116.652 13.1557 116.652 12.7275C116.652 12.2994 116.575 11.988 116.419 11.7545C116.264 11.521 116.03 11.4042 115.758 11.4042H115.37Z" fill="#3F3F3F"/>
<path d="M119.801 14.6737H117.857V10.8204H119.723V11.4042H118.518V12.4162H119.49V13.0389H118.518V14.0898H119.801V14.6737Z" fill="#3F3F3F"/>
<path d="M70.0068 24.3263H68.8018V17.2425H70.8231C71.445 17.2425 71.9503 17.476 72.339 17.9042C72.7278 18.3323 72.9221 18.8772 72.9221 19.5778C72.9221 20.2784 72.7278 20.8233 72.339 21.2515C71.9503 21.6796 71.445 21.9131 70.8231 21.9131H70.0068V24.3263ZM70.0068 18.3323V20.8233H70.5898C70.9008 20.8233 71.1729 20.7066 71.3673 20.473C71.5616 20.2395 71.6394 19.9281 71.6394 19.5778C71.6394 19.1886 71.5227 18.9161 71.3284 18.6826C71.134 18.4491 70.8619 18.3323 70.5898 18.3323H70.0068Z" fill="#3F3F3F"/>
<path d="M74.0107 24.3264H72.8057L74.6715 17.2036H75.9931L77.8589 24.3264H76.6539L76.2263 22.497H74.4771L74.0107 24.3264ZM75.0991 19.5779L74.6326 21.485H75.9931L75.5267 19.5779L75.3323 18.488H75.2934C75.2546 18.8773 75.1768 19.2665 75.0991 19.5779Z" fill="#3F3F3F"/>
<path d="M80.386 24.3263H79.181V18.3323H77.4707V17.2425H82.1352V18.3323H80.386V24.3263Z" fill="#3F3F3F"/>
<path d="M84.1171 24.3263H82.9121V17.2425H84.9723C85.3221 17.2425 85.6331 17.3203 85.9052 17.476C86.2162 17.6317 86.4883 17.8652 86.6826 18.2155C86.877 18.5269 86.9547 18.9161 86.9547 19.3832C86.9547 19.8114 86.877 20.2006 86.6826 20.5509C86.4883 20.9012 86.255 21.1736 85.9441 21.3293V21.3682C86.0218 21.485 86.0996 21.6018 86.1384 21.7575L87.3046 24.4042H85.9829L84.8945 21.7575H84.1171V24.3263ZM84.1171 18.3323V20.6287H84.7779C85.05 20.6287 85.2833 20.512 85.4387 20.3173C85.6331 20.1227 85.7108 19.8114 85.7108 19.4611C85.7108 19.0329 85.5942 18.7215 85.3221 18.5269C85.1666 18.4102 84.9723 18.3712 84.7779 18.3712H84.1171V18.3323Z" fill="#3F3F3F"/>
<path d="M89.248 17.2425H88.043V24.3652H89.248V17.2425Z" fill="#3F3F3F"/>
<path d="M91.4642 24.3264H90.3369L90.8034 17.2036H92.125L93.0968 20.6677L93.33 21.7575H93.3689C93.4466 21.2515 93.5244 20.9012 93.6021 20.6677L94.5739 17.2036H95.8955L96.362 24.3264H95.2347L95.0015 20.3563C95.0015 20.006 95.0015 19.6946 95.0015 19.4222V19.2276H94.9626C94.8849 19.6946 94.8071 20.0839 94.7294 20.3563L93.9519 23.0419H92.7469L91.9695 20.3563L91.7363 19.2276H91.6974V19.4611C91.6974 19.5 91.6974 19.5 91.6974 19.5389C91.6974 19.5779 91.6974 19.6168 91.6974 19.6946C91.6974 19.7725 91.6974 19.8114 91.6974 19.8892C91.6974 20.0449 91.6974 20.2006 91.6974 20.3952L91.4642 24.3264Z" fill="#3F3F3F"/>
<path d="M97.0615 20.7455C97.0615 19.6946 97.3336 18.7994 97.839 18.1377C98.3443 17.476 99.044 17.1257 99.8991 17.1257C100.754 17.1257 101.454 17.476 101.959 18.1377C102.465 18.7994 102.737 19.6946 102.737 20.7455C102.737 21.8353 102.465 22.7305 101.959 23.4311C101.454 24.1317 100.754 24.4431 99.8991 24.4431C99.044 24.4431 98.3443 24.0928 97.8001 23.4311C97.3336 22.7305 97.0615 21.8353 97.0615 20.7455ZM98.3443 20.7455C98.3443 21.5239 98.4998 22.1467 98.7719 22.6138C99.044 23.0808 99.4327 23.3144 99.938 23.3144C100.443 23.3144 100.832 23.0808 101.104 22.6138C101.376 22.1467 101.532 21.5239 101.532 20.7455C101.532 19.967 101.376 19.3832 101.104 18.9551C100.832 18.5269 100.443 18.2934 99.938 18.2934C99.4327 18.2934 99.044 18.5269 98.7719 18.9551C98.4609 19.3832 98.3443 19.967 98.3443 20.7455Z" fill="#3F3F3F"/>
<path d="M104.913 24.3263H103.747V17.2425H105.03L106.857 21.2515C106.935 21.4461 107.051 21.7185 107.168 22.1467L107.207 22.3413H107.245C107.207 21.9132 107.168 21.5629 107.168 21.2515V17.2425H108.295V24.3652H107.012L105.185 20.3173C105.108 20.1227 104.991 19.8114 104.874 19.4221L104.835 19.2664H104.797C104.835 19.6946 104.874 20.0449 104.874 20.3563V24.3263H104.913Z" fill="#3F3F3F"/>
<path d="M110.822 17.2425H109.617V24.3652H110.822V17.2425Z" fill="#3F3F3F"/>
<path d="M111.833 20.7455C111.833 19.6946 112.105 18.7994 112.61 18.1377C113.116 17.476 113.815 17.1257 114.671 17.1257C115.526 17.1257 116.225 17.476 116.731 18.1377C117.236 18.7994 117.508 19.6946 117.508 20.7455C117.508 21.8353 117.236 22.7305 116.731 23.4311C116.225 24.1317 115.526 24.4431 114.671 24.4431C113.815 24.4431 113.116 24.0928 112.572 23.4311C112.105 22.7305 111.833 21.8353 111.833 20.7455ZM113.077 20.7455C113.077 21.5239 113.232 22.1467 113.504 22.6138C113.777 23.0808 114.165 23.3144 114.671 23.3144C115.176 23.3144 115.565 23.0808 115.837 22.6138C116.109 22.1467 116.264 21.5239 116.264 20.7455C116.264 19.967 116.109 19.3832 115.837 18.9551C115.565 18.5269 115.176 18.2934 114.671 18.2934C114.165 18.2934 113.777 18.5269 113.504 18.9551C113.232 19.3832 113.077 19.967 113.077 20.7455Z" fill="#3F3F3F"/>
<path d="M123.299 17.1257C123.999 17.1257 124.582 17.3203 125.009 17.7096L124.504 18.7605C124.388 18.6048 124.193 18.488 123.999 18.4102C123.766 18.3323 123.571 18.2545 123.338 18.2545C122.755 18.2545 122.289 18.488 121.939 18.9551C121.589 19.4221 121.433 20.006 121.433 20.7066C121.433 21.4461 121.589 22.0299 121.939 22.5359C122.289 23.0419 122.755 23.2754 123.299 23.2754C123.766 23.2754 124.193 23.1197 124.621 22.7694L125.126 23.7814C124.621 24.2096 123.96 24.4042 123.221 24.4042C122.288 24.4042 121.55 24.0539 121.006 23.3922C120.462 22.6916 120.189 21.8353 120.189 20.7455C120.189 19.6557 120.462 18.7994 121.006 18.0988C121.589 17.4371 122.366 17.1257 123.299 17.1257Z" fill="#3F3F3F"/>
<path d="M125.904 22.0299V17.2425H127.109V22.0299C127.109 22.8862 127.459 23.3143 128.159 23.3143C128.859 23.3143 129.208 22.8862 129.208 22.0299V17.2425H130.413V22.0688C130.413 22.8084 130.219 23.3922 129.791 23.8203C129.364 24.2485 128.82 24.482 128.159 24.482C127.459 24.482 126.915 24.2874 126.487 23.8593C126.099 23.3922 125.904 22.8084 125.904 22.0299Z" fill="#3F3F3F"/>
<path d="M135.156 24.3263H131.657V17.2425H132.862V23.2754H135.156V24.3263Z" fill="#3F3F3F"/>
<path d="M137.488 24.3263H136.283V18.3323H134.572V17.2425H139.198V18.3323H137.488V24.3263Z" fill="#3F3F3F"/>
<path d="M139.897 22.0299V17.2425H141.102V22.0299C141.102 22.8862 141.452 23.3143 142.152 23.3143C142.852 23.3143 143.202 22.8862 143.202 22.0299V17.2425H144.407V22.0688C144.407 22.8084 144.212 23.3922 143.785 23.8203C143.357 24.2485 142.813 24.482 142.152 24.482C141.452 24.482 140.908 24.2874 140.481 23.8593C140.131 23.3922 139.897 22.8084 139.897 22.0299Z" fill="#3F3F3F"/>
<path d="M146.894 24.3263H145.689V17.2425H147.75C148.099 17.2425 148.41 17.3203 148.683 17.476C148.994 17.6317 149.266 17.8652 149.46 18.2155C149.654 18.5269 149.732 18.9161 149.732 19.3832C149.732 19.8114 149.654 20.2006 149.46 20.5509C149.266 20.9012 149.032 21.1736 148.721 21.3293V21.3682C148.799 21.485 148.877 21.6018 148.916 21.7575L150.082 24.4042H148.76L147.672 21.7575H146.894V24.3263ZM146.894 18.3323V20.6287H147.555C147.827 20.6287 148.061 20.512 148.216 20.3173C148.41 20.1227 148.488 19.8114 148.488 19.4611C148.488 19.0329 148.372 18.7215 148.099 18.5269C147.944 18.4102 147.75 18.3712 147.555 18.3712H146.894V18.3323Z" fill="#3F3F3F"/>
<path d="M151.442 24.3264H150.237L152.103 17.2036H153.425L155.291 24.3264H154.086L153.658 22.497H151.909L151.442 24.3264ZM152.531 19.5779L152.064 21.485H153.425L152.958 19.5779L152.764 18.488C152.686 18.8773 152.608 19.2665 152.531 19.5779Z" fill="#3F3F3F"/>
<path d="M159.489 24.3263H155.99V17.2425H157.195V23.2754H159.489V24.3263Z" fill="#3F3F3F"/>
<path d="M62.0386 0.622742H61.3389V28.2964H62.0386V0.622742Z" fill="#3F3F3F"/>
</g>
<g clip-path="url(#clip1)">
<path d="M205.56 1.34912H202.45C202.392 1.34912 202.274 1.4073 202.274 1.46548L200.28 9.32003L198.285 1.46548C198.285 1.4073 198.227 1.34912 198.168 1.34912H195.117C195.059 1.34912 195 1.34912 195 1.46548V15.0218C195 15.08 195.059 15.1382 195.117 15.1382H197.171C197.229 15.1382 197.288 15.08 197.288 15.0218V9.26185L198.579 15.0218C198.579 15.08 198.637 15.1382 198.755 15.1382H200.984C201.042 15.1382 201.101 15.08 201.16 15.0218L202.45 9.26185V15.0218C202.45 15.08 202.509 15.1382 202.568 15.1382H205.56C205.618 15.1382 205.677 15.08 205.677 15.0218V1.46548C205.677 1.34912 205.677 1.34912 205.56 1.34912Z" fill="#3F3F3F"/>
<path d="M211.484 15.4873C213.596 15.4873 215.532 14.7309 215.532 11.9964V1.46548C215.532 1.4073 215.474 1.34912 215.415 1.34912H213.127C213.068 1.34912 213.01 1.4073 213.01 1.46548V11.6473C213.01 12.9273 212.54 13.2182 211.836 13.2182C211.132 13.2182 210.663 12.8691 210.663 11.6473V1.46548C210.663 1.4073 210.604 1.34912 210.546 1.34912H207.495C207.437 1.34912 207.378 1.4073 207.378 1.46548V11.9964C207.378 14.7309 209.314 15.4873 211.484 15.4873Z" fill="#3F3F3F"/>
<path d="M221.34 15.4873C223.745 15.4873 225.857 14.2655 225.857 11.4145C225.916 7.05091 220.226 6.23636 220.226 4.37455C220.226 3.61818 220.695 3.26909 221.34 3.26909C221.986 3.26909 222.514 3.73455 222.572 4.84C222.572 4.89818 222.631 4.89818 222.69 4.89818L225.447 4.25818C225.505 4.25818 225.505 4.25818 225.505 4.14182C225.212 1.93091 223.569 1 221.34 1C219.111 1 217.234 2.10545 217.234 4.66545C217.234 8.62182 222.631 8.91273 222.631 11.5891C222.631 12.7527 222.162 13.2182 221.34 13.2182C220.578 13.2182 220.108 12.8691 220.05 11.5891C220.05 11.5309 220.05 11.4727 219.932 11.4727L216.999 12.1709C216.94 12.1709 216.94 12.2291 216.94 12.2873C217.116 14.2655 218.583 15.4873 221.34 15.4873Z" fill="#3F3F3F"/>
<path d="M235.068 15.0218V12.9855C235.068 12.9273 235.009 12.8691 234.95 12.8691H230.668V8.68003H234.364C234.422 8.68003 234.481 8.62185 234.481 8.56367V6.58548C234.481 6.5273 234.422 6.46912 234.364 6.46912H230.668V3.56003H234.95C235.009 3.56003 235.068 3.50185 235.068 3.44367V1.46548C235.068 1.4073 235.009 1.34912 234.95 1.34912H227.559C227.5 1.34912 227.441 1.4073 227.441 1.46548V15.0218C227.441 15.08 227.5 15.1382 227.559 15.1382H234.95C235.009 15.1382 235.068 15.08 235.068 15.0218Z" fill="#3F3F3F"/>
<path d="M241.168 15.4873C243.222 15.4873 245.627 14.7891 245.627 11.6473V4.84C245.627 1.69818 243.222 1 241.168 1C239.115 1 236.71 1.69818 236.71 4.84V11.6473C236.71 14.7891 239.115 15.4873 241.168 15.4873ZM239.995 4.84C239.995 3.56 240.464 3.26909 241.168 3.26909C241.872 3.26909 242.342 3.56 242.342 4.84V11.6473C242.342 12.9273 241.872 13.2182 241.168 13.2182C240.464 13.2182 239.995 12.9273 239.995 11.6473V4.84Z" fill="#3F3F3F"/>
<path d="M202.098 24.2727C202.978 23.7491 203.682 22.8182 203.682 21.1891C203.682 18.6873 202.098 17.5236 199.81 17.5236H195.117C195.059 17.5236 195 17.5818 195 17.64V32.4763C195 32.5345 195.059 32.5927 195.117 32.5927H199.693C202.685 32.5927 204.269 31.6036 204.269 28.8109V27.7636C204.269 25.6691 203.33 24.68 202.098 24.2727ZM198.579 20.0254H199.165C199.869 20.0254 200.338 20.3745 200.338 21.5963C200.338 22.8182 199.869 23.1673 199.165 23.1673H198.579V20.0254ZM200.69 28.4618C200.69 29.8 200.162 30.2073 199.4 30.2073H198.579V25.6691H199.458C200.221 25.6691 200.749 26.0763 200.749 27.4145V28.4618H200.69Z" fill="#3F3F3F"/>
<path d="M210.722 17.1746C208.492 17.1746 205.853 17.9309 205.853 21.3637V28.8109C205.853 32.2437 208.492 33 210.722 33C212.951 33 215.591 32.2437 215.591 28.8109V21.3637C215.591 17.9309 212.951 17.1746 210.722 17.1746ZM212.012 28.8109C212.012 30.2073 211.484 30.5564 210.722 30.5564C209.959 30.5564 209.431 30.2073 209.431 28.8109V21.3637C209.431 19.9673 209.959 19.6182 210.722 19.6182C211.484 19.6182 212.012 19.9673 212.012 21.3637V28.8109Z" fill="#3F3F3F"/>
<path d="M222.396 17.1746C219.933 17.1746 217.527 18.0473 217.527 21.4218V28.8109C217.527 32.1855 219.933 33.0582 222.396 33.0582C224.098 33.0582 226.092 32.5346 227.148 31.3127C227.148 31.2546 227.207 31.2546 227.207 31.1382V23.9818C227.207 23.9237 227.148 23.8655 227.09 23.8655H222.338C222.279 23.8655 222.22 23.9237 222.22 23.9818V26.1927C222.22 26.2509 222.279 26.3091 222.338 26.3091H223.687V30.2073C223.335 30.44 222.983 30.5564 222.455 30.5564C221.693 30.5564 221.165 30.1491 221.165 28.8109V21.4218C221.165 20.0255 221.693 19.6764 222.514 19.6764C223.394 19.6764 223.922 20.2 223.922 21.48C223.922 21.5382 223.98 21.5964 224.039 21.5964L227.207 20.84C227.266 20.84 227.324 20.7818 227.324 20.6655C226.855 17.8146 224.45 17.1746 222.396 17.1746Z" fill="#3F3F3F"/>
<path d="M233.836 17.1746C231.607 17.1746 228.967 17.9309 228.967 21.3637V28.8109C228.967 32.2437 231.607 33 233.836 33C236.065 33 238.705 32.2437 238.705 28.8109V21.3637C238.705 17.9309 236.065 17.1746 233.836 17.1746ZM235.127 28.8109C235.127 30.2073 234.599 30.5564 233.836 30.5564C233.073 30.5564 232.545 30.2073 232.545 28.8109V21.3637C232.545 19.9673 233.073 19.6182 233.836 19.6182C234.599 19.6182 235.127 19.9673 235.127 21.3637V28.8109Z" fill="#3F3F3F"/>
<path d="M250.144 19.9091V17.6982C250.144 17.64 250.086 17.5818 250.027 17.5818H239.995C239.937 17.5818 239.878 17.64 239.878 17.6982V19.9091C239.878 19.9672 239.937 20.0254 239.995 20.0254H243.222V32.5345C243.222 32.5927 243.28 32.6509 243.339 32.6509H246.624C246.683 32.6509 246.742 32.5927 246.742 32.5345V20.0254H249.968C250.086 20.0254 250.144 19.9672 250.144 19.9091Z" fill="#3F3F3F"/>
<path d="M255.894 17.5818H253.371C253.312 17.5818 253.312 17.5818 253.254 17.64L249.265 32.4763C249.265 32.5927 249.323 32.5927 249.441 32.5927H251.787C251.846 32.5927 251.905 32.5927 251.905 32.5345L252.433 30.7309H255.894L256.422 32.5345C256.422 32.5927 256.48 32.5927 256.539 32.5927H259.883C259.942 32.5927 260 32.5927 260 32.4763L256.011 17.64C256.011 17.5818 255.952 17.5818 255.894 17.5818ZM253.019 28.2872L254.134 24.04L255.248 28.2872H253.019Z" fill="#3F3F3F"/>
<path d="M248.971 11.9382L251.376 11.4727C252.784 11.24 254.133 10.4836 254.075 8.56363V4.72363C254.075 2.80363 252.667 2.5709 251.259 2.80363L248.912 3.2109C248.854 3.2109 248.854 3.26908 248.854 3.26908V11.7636C248.854 11.88 248.912 11.9382 248.971 11.9382ZM250.672 4.43272C250.672 4.37454 250.672 4.37454 250.731 4.37454L251.493 4.25817C251.904 4.19999 252.256 4.31635 252.315 5.1309V8.91272C252.315 9.72726 252.021 9.95999 251.611 10.0182L250.789 10.1345C250.731 10.1345 250.672 10.0764 250.672 10.0764V4.43272Z" fill="#3F3F3F"/>
<path d="M255.189 10.7163L259.941 9.84362C259.941 9.84362 260 9.84362 260 9.78544C260 9.61089 260 8.73817 260 8.50544C260 8.44726 260 8.44726 259.941 8.44726L257.125 8.97089C257.066 8.97089 257.066 8.97089 257.066 8.91271V6.41089C257.066 6.41089 257.066 6.35271 257.125 6.35271L259.589 5.88726C259.589 5.88726 259.648 5.88726 259.648 5.82908V4.49089C259.648 4.43271 259.648 4.43271 259.589 4.43271L257.184 4.89817C257.125 4.89817 257.125 4.89817 257.125 4.83998V3.21089C257.125 3.21089 257.125 3.15271 257.184 3.15271L260 2.62908C260 2.62908 260.058 2.62908 260.058 2.57089V1.34908C260.058 1.29089 260.058 1.29089 260 1.29089L255.248 2.16362C255.248 2.16362 255.189 2.16362 255.189 2.2218V10.6C255.13 10.6582 255.189 10.7163 255.189 10.7163Z" fill="#3F3F3F"/>
<path d="M253.664 16.2436C253.664 16.3018 253.723 16.3018 253.723 16.3018H255.072C255.131 16.3018 255.248 16.3018 255.248 16.1855L257.008 12.8109L259.882 12.2873C259.941 12.2873 259.941 12.2291 259.941 12.1709V10.9491C259.941 10.8909 259.882 10.8327 259.824 10.8909L248.854 12.9273C248.795 12.9273 248.795 12.9855 248.795 13.0436V14.2655C248.795 14.3236 248.854 14.3818 248.912 14.3818L254.427 13.3927L253.664 16.2436C253.664 16.2436 253.664 16.1855 253.664 16.2436Z" fill="#3F3F3F"/>
</g>
<defs>
<clipPath id="clip0">
<rect width="159.489" height="28.2964" fill="white"/>
</clipPath>
<clipPath id="clip1">
<rect width="65" height="32" fill="white" transform="translate(195 1)"/>
</clipPath>
</defs>
</svg>
