<svg width="331" height="42" viewBox="0 0 331 42" fill="none" xmlns="http://www.w3.org/2000/svg">
<g clip-path="url(#clip0)">
<path d="M7.86632 23.1351C7.86632 21.2031 6.28316 19.5684 4.30421 19.5684H0V30.9127H4.7C6.67895 30.9127 8.26211 29.3274 8.26211 27.3459C8.26211 26.4542 7.9158 25.6121 7.32211 24.9681C7.66843 24.4231 7.86632 23.7791 7.86632 23.1351ZM2.86948 22.0453H4.30421C4.8979 22.0453 5.39264 22.5407 5.39264 23.1351C5.39264 23.7296 4.8979 24.225 4.30421 24.225H2.86948V22.0453ZM4.7 28.4357H2.86948V26.2561H4.30421H4.7C5.29369 26.2561 5.78843 26.7514 5.78843 27.3459C5.78843 27.9404 5.29369 28.4357 4.7 28.4357Z" fill="#FFFEF5"/>
<path d="M14.3972 19.3691C11.2308 19.3691 8.6582 22.0442 8.6582 25.3138C8.6582 28.5833 11.2308 31.2584 14.3972 31.2584C17.5635 31.2584 20.1361 28.5833 20.1361 25.3138C20.1361 21.9947 17.5635 19.3691 14.3972 19.3691ZM14.3972 28.1375C12.9624 28.1375 11.775 26.8495 11.775 25.2642C11.775 23.679 12.9624 22.4405 14.3972 22.4405C15.8319 22.4405 17.0193 23.7285 17.0193 25.2642C17.0687 26.8495 15.8814 28.1375 14.3972 28.1375Z" fill="#FFFEF5"/>
<path d="M27.1606 27.0476H28.4964V27.6916C28.0016 27.9888 27.408 28.187 26.8143 28.187C25.1322 28.187 23.7964 26.899 23.7964 25.3138C23.7964 23.7285 25.1322 22.4901 26.8143 22.4901C27.6059 22.4901 28.348 22.7873 28.9416 23.2827L29.2385 23.5799L31.3164 21.3011L31.0195 21.0039C29.8816 19.9636 28.3974 19.3691 26.8143 19.3691C23.4501 19.3691 20.729 22.0442 20.729 25.3138C20.729 28.5833 23.4501 31.2584 26.8143 31.2584C27.408 31.2584 27.9522 31.1593 28.4964 31.0107H31.5637V23.9267H27.1606V27.0476Z" fill="#FFFEF5"/>
<path d="M47.3958 22.8876V31.0119H51.0074V22.8876H54.4705V19.4199H43.9326V22.8876H47.3958Z" fill="#FFFEF5"/>
<path d="M70.6479 35.866L63.6226 17.2891H57.3889L52.2437 30.9617H56.0531L60.5058 19.7164L66.8384 35.866H70.6479Z" fill="#FFFEF5"/>
<path d="M43.0421 22.4901C42.0526 20.6076 40.1726 19.3691 37.9958 19.3691C34.8295 19.3691 32.2568 22.0442 32.2568 25.3138C32.2568 28.5833 34.8295 31.2584 37.9958 31.2584C41.1621 31.2584 43.7347 28.5833 43.7347 25.3138C43.7347 24.2734 43.4874 23.3322 43.0421 22.4901ZM37.9958 28.1375C36.5611 28.1375 35.3737 26.8495 35.3737 25.2642C35.3737 23.679 36.5611 22.4405 37.9958 22.4405C39.4305 22.4405 40.6179 23.7285 40.6179 25.2642C40.6179 26.8495 39.4305 28.1375 37.9958 28.1375Z" fill="#FFFEF5"/>
<path d="M65.2556 11.2454L68.6692 9.85834L64.1177 8.22357L61.1987 0.396484L58.1808 6.14295L51.9966 4.90449L56.3503 9.61064L54.2229 15.3076L61.8913 12.583L67.4819 17.2891L65.2556 11.2454Z" fill="#FFFEF5"/>
<path d="M52.4898 11.5406L53.8744 10.6493L52.1931 10.3027L51.6986 8.61914L51.0557 10.0551L48.5337 9.51043L50.5117 11.5406L49.8689 13.2242L51.6986 12.0853L53.0338 13.1746L52.4898 11.5406Z" fill="#FFFEF5"/>
<path d="M67.6309 3.07139L69.1151 2.13016L67.3341 1.73385L66.8393 0L65.9983 1.43662L63.4751 0.941231L65.553 3.07139L64.9098 4.80523L66.7898 3.61631L68.2246 4.7557L67.6309 3.07139Z" fill="#FFFEF5"/>
<path d="M88.013 13.7725H87.1724V18.7241H88.013V13.7725Z" fill="#FFFEF5"/>
<path d="M89.695 18.6733H88.9038V13.7217H89.7939L91.0797 16.5441C91.1291 16.6927 91.228 16.8907 91.2775 17.1878L91.3269 17.3364H91.3764C91.3269 17.0393 91.3269 16.7917 91.3269 16.5936V13.8207H92.1182V18.7723H91.228L89.9423 15.9499C89.8928 15.8014 89.7939 15.6033 89.7445 15.3062L89.695 15.2072H89.6456C89.695 15.5043 89.695 15.7518 89.695 15.9499V18.6733Z" fill="#FFFEF5"/>
<path d="M92.7134 18.2776L93.109 17.5348C93.3563 17.8319 93.653 17.931 93.9497 17.931C94.1475 17.931 94.2958 17.8814 94.3947 17.7824C94.4936 17.6834 94.5431 17.5348 94.5431 17.3368C94.5431 17.2377 94.4936 17.0892 94.4442 16.9901C94.3947 16.8911 94.2958 16.7921 94.1969 16.7426C94.098 16.6435 93.9991 16.594 93.8508 16.495C93.7519 16.396 93.6035 16.3464 93.5046 16.2474C93.4057 16.1484 93.2574 16.0493 93.1584 15.9503C93.0595 15.8513 92.9606 15.7027 92.9112 15.5542C92.8617 15.4056 92.8123 15.2076 92.8123 15.0095C92.8123 14.6134 92.9606 14.2668 93.2079 14.0192C93.4552 13.7716 93.8508 13.623 94.2958 13.623C94.6915 13.623 95.0871 13.7221 95.3838 13.9697L95.0871 14.7124C94.9882 14.6629 94.8893 14.5639 94.7409 14.5143C94.5925 14.4648 94.4442 14.4153 94.3453 14.4153C94.1475 14.4153 93.9991 14.4648 93.9002 14.5639C93.8013 14.6629 93.7519 14.8114 93.7519 15.0095C93.7519 15.3066 93.9497 15.5542 94.3453 15.8018C94.4936 15.9008 94.642 15.9503 94.7409 16.0493C94.8398 16.0989 94.9387 16.1979 95.0871 16.3464C95.2354 16.4455 95.3343 16.594 95.3838 16.7921C95.4332 16.9406 95.4827 17.1387 95.4827 17.3368C95.4827 17.7329 95.3343 18.0795 95.0871 18.3766C94.8398 18.6737 94.4936 18.7727 94.0486 18.7727C93.4552 18.7727 93.0595 18.6242 92.7134 18.2776Z" fill="#FFFEF5"/>
<path d="M97.7596 18.6746H96.8694V14.5152H95.6826V13.7725H98.9464V14.5152H97.7596V18.6746Z" fill="#FFFEF5"/>
<path d="M100.283 13.7725H99.4424V18.7241H100.283V13.7725Z" fill="#FFFEF5"/>
<path d="M102.855 18.6746H102.014V14.5152H100.828V13.7725H104.091V14.5152H102.855V18.6746Z" fill="#FFFEF5"/>
<path d="M104.587 17.0888V13.7217H105.428V17.0888C105.428 17.683 105.675 17.9801 106.17 17.9801C106.664 17.9801 106.912 17.683 106.912 17.0888V13.7217H107.752V17.0888C107.752 17.5839 107.604 18.0296 107.307 18.3267C107.011 18.6238 106.664 18.7723 106.17 18.7723C105.675 18.7723 105.28 18.6238 105.032 18.3267C104.736 18.0296 104.587 17.6335 104.587 17.0888Z" fill="#FFFEF5"/>
<path d="M110.276 18.6746H109.386V14.5152H108.199V13.7725H111.463V14.5152H110.276V18.6746Z" fill="#FFFEF5"/>
<path d="M111.514 16.1982C111.514 15.4554 111.712 14.8612 112.058 14.3661C112.404 13.9204 112.899 13.6729 113.492 13.6729C114.086 13.6729 114.58 13.9204 114.926 14.3661C115.272 14.8117 115.47 15.4554 115.47 16.1982C115.47 16.9409 115.272 17.5846 114.926 18.0798C114.58 18.575 114.086 18.773 113.492 18.773C112.899 18.773 112.404 18.5254 112.058 18.0798C111.712 17.5846 111.514 16.9409 111.514 16.1982ZM112.404 16.1982C112.404 16.7429 112.503 17.1885 112.701 17.4856C112.899 17.7827 113.195 17.9808 113.542 17.9808C113.888 17.9808 114.135 17.8322 114.333 17.4856C114.531 17.1885 114.63 16.7429 114.63 16.1982C114.63 15.6535 114.531 15.2574 114.333 14.9603C114.135 14.6632 113.888 14.5146 113.492 14.5146C113.146 14.5146 112.849 14.6632 112.652 14.9603C112.503 15.2574 112.404 15.6535 112.404 16.1982Z" fill="#FFFEF5"/>
<path d="M118.934 18.6733H117.55V13.7217H118.934C119.528 13.7217 120.022 13.9197 120.369 14.3654C120.715 14.811 120.912 15.4052 120.912 16.1975C120.912 16.9898 120.715 17.5839 120.369 18.0296C120.022 18.4752 119.577 18.6733 118.934 18.6733ZM118.44 14.5139V17.9306H118.934C119.281 17.9306 119.577 17.782 119.775 17.4849C119.973 17.1878 120.072 16.7422 120.072 16.1975C120.072 15.6528 119.973 15.2567 119.775 14.9596C119.577 14.6625 119.281 14.5139 118.934 14.5139H118.44Z" fill="#FFFEF5"/>
<path d="M122.447 13.7725H121.606V18.7241H122.447V13.7725Z" fill="#FFFEF5"/>
<path d="M123.09 18.2776L123.486 17.5348C123.733 17.8319 124.03 17.931 124.327 17.931C124.524 17.931 124.673 17.8814 124.772 17.7824C124.871 17.6834 124.92 17.5348 124.92 17.3368C124.92 17.2377 124.871 17.0892 124.821 16.9901C124.772 16.8911 124.673 16.7921 124.574 16.7426C124.475 16.6435 124.376 16.594 124.228 16.495C124.129 16.396 123.98 16.3464 123.882 16.2474C123.783 16.1484 123.634 16.0493 123.535 15.9503C123.436 15.8513 123.338 15.7027 123.288 15.5542C123.239 15.4056 123.189 15.2076 123.189 15.0095C123.189 14.6134 123.338 14.2668 123.585 14.0192C123.832 13.7716 124.228 13.623 124.673 13.623C125.068 13.623 125.464 13.7221 125.761 13.9697L125.464 14.7124C125.365 14.6629 125.266 14.5639 125.118 14.5143C124.969 14.4648 124.821 14.4153 124.722 14.4153C124.524 14.4153 124.376 14.4648 124.277 14.5639C124.178 14.6629 124.129 14.8114 124.129 15.0095C124.129 15.3066 124.327 15.5542 124.722 15.8018C124.871 15.9008 125.019 15.9503 125.118 16.0493C125.217 16.0989 125.316 16.1979 125.464 16.3464C125.612 16.4455 125.711 16.594 125.761 16.7921C125.81 16.9406 125.86 17.1387 125.86 17.3368C125.86 17.7329 125.711 18.0795 125.464 18.3766C125.217 18.6737 124.871 18.7727 124.426 18.7727C123.832 18.7727 123.436 18.6242 123.09 18.2776Z" fill="#FFFEF5"/>
<path d="M128.087 18.6746H127.246V14.5152H126.059V13.7725H129.323V14.5152H128.087V18.6746Z" fill="#FFFEF5"/>
<path d="M130.709 18.6733H129.869V13.7217H131.303C131.55 13.7217 131.748 13.7712 131.946 13.8702C132.193 13.9693 132.341 14.1673 132.49 14.3654C132.638 14.613 132.687 14.8606 132.687 15.1577C132.687 15.4547 132.638 15.7023 132.49 15.9499C132.341 16.1975 132.193 16.3956 131.946 16.4946C131.995 16.5936 132.044 16.6431 132.094 16.7422L132.935 18.5743H131.995L131.253 16.7422H130.709V18.6733ZM130.709 14.5139V16.0985H131.154C131.352 16.0985 131.501 15.9994 131.649 15.8509C131.797 15.7023 131.847 15.5043 131.847 15.2567C131.847 14.9596 131.748 14.712 131.599 14.613C131.501 14.5139 131.352 14.5139 131.204 14.5139H130.709Z" fill="#FFFEF5"/>
<path d="M134.271 13.7725H133.431V18.7241H134.271V13.7725Z" fill="#FFFEF5"/>
<path d="M136.844 18.6746H136.003V14.5152H134.816V13.7725H138.031V14.5152H136.844V18.6746Z" fill="#FFFEF5"/>
<path d="M138.625 18.6733H137.785L139.07 13.7217H140.01L141.296 18.6733H140.455L140.158 17.3859H138.972L138.625 18.6733ZM139.417 15.3557L139.12 16.6927H140.059L139.763 15.3557L139.614 14.613C139.466 14.9101 139.466 15.1577 139.417 15.3557Z" fill="#FFFEF5"/>
<path d="M144.215 18.6746H141.792V13.7725H142.632V17.9318H144.215V18.6746Z" fill="#FFFEF5"/>
<path d="M147.332 18.6733H145.947V13.7217H147.332C147.925 13.7217 148.42 13.9197 148.766 14.3654C149.112 14.811 149.31 15.4052 149.31 16.1975C149.31 16.9898 149.112 17.5839 148.766 18.0296C148.42 18.4752 147.975 18.6733 147.332 18.6733ZM146.837 14.5139V17.9306H147.332C147.678 17.9306 147.975 17.782 148.173 17.4849C148.37 17.1878 148.469 16.7422 148.469 16.1975C148.469 15.6528 148.37 15.2567 148.173 14.9596C147.975 14.6625 147.678 14.5139 147.332 14.5139H146.837Z" fill="#FFFEF5"/>
<path d="M152.476 18.6746H150.004V13.7725H152.378V14.5152H150.845V15.8026H152.081V16.5949H150.845V17.9318H152.476V18.6746Z" fill="#FFFEF5"/>
<path d="M89.1025 30.9613H87.5688V21.9453H90.1415C90.933 21.9453 91.5762 22.2425 92.0709 22.7875C92.5657 23.3324 92.813 24.0259 92.813 24.9176C92.813 25.8093 92.5657 26.5029 92.0709 27.0478C91.5762 27.5927 90.933 27.8899 90.1415 27.8899H89.1025V30.9613ZM89.1025 23.3324V26.5029H89.8446C90.2404 26.5029 90.5867 26.3542 90.8341 26.057C91.0815 25.7598 91.1804 25.3635 91.1804 24.9176C91.1804 24.4222 91.032 24.0755 90.7846 23.7782C90.5373 23.481 90.1909 23.3324 89.8446 23.3324H89.1025Z" fill="#FFFEF5"/>
<path d="M94.1982 30.9611H92.6646L95.0393 21.8955H96.7214L99.0961 30.9611H97.5625L97.0182 28.6327H94.7919L94.1982 30.9611ZM95.5835 24.9174L94.9898 27.3447H96.7214L96.1277 24.9174L95.8803 23.5303H95.8309C95.7814 24.0257 95.6825 24.521 95.5835 24.9174Z" fill="#FFFEF5"/>
<path d="M102.312 30.9613H100.778V23.3324H98.6016V21.9453H104.538V23.3324H102.312V30.9613Z" fill="#FFFEF5"/>
<path d="M107.061 30.9613H105.527V21.9453H108.149C108.595 21.9453 108.991 22.0444 109.337 22.2425C109.733 22.4407 110.079 22.7379 110.326 23.1838C110.574 23.5801 110.673 24.0755 110.673 24.6699C110.673 25.2149 110.574 25.7102 110.326 26.1561C110.079 26.6019 109.782 26.9487 109.386 27.1469V27.1964C109.485 27.345 109.584 27.4936 109.634 27.6918L111.118 31.0604H109.436L108.05 27.6918H107.061V30.9613ZM107.061 23.3324V26.2552H107.902C108.248 26.2552 108.545 26.1065 108.743 25.8589C108.991 25.6112 109.089 25.2149 109.089 24.769C109.089 24.2241 108.941 23.8278 108.595 23.5801C108.397 23.4315 108.149 23.3819 107.902 23.3819H107.061V23.3324Z" fill="#FFFEF5"/>
<path d="M113.591 21.9453H112.058V31.0109H113.591V21.9453Z" fill="#FFFEF5"/>
<path d="M116.412 30.9611H114.977L115.571 21.8955H117.253L118.49 26.3044L118.787 27.6915H118.836C118.935 27.0475 119.034 26.6017 119.133 26.3044L120.37 21.8955H122.052L122.645 30.9611H121.211L120.914 25.9081C120.914 25.4623 120.914 25.066 120.914 24.7192V24.4715H120.864C120.765 25.066 120.667 25.5614 120.568 25.9081L119.578 29.3263H118.044L117.055 25.9081L116.758 24.4715H116.709V24.7687C116.709 24.8183 116.709 24.8183 116.709 24.8678C116.709 24.9174 116.709 24.9669 116.709 25.066C116.709 25.165 116.709 25.2146 116.709 25.3137C116.709 25.5118 116.709 25.71 116.709 25.9577L116.412 30.9611Z" fill="#FFFEF5"/>
<path d="M123.536 26.403C123.536 25.0654 123.882 23.9261 124.525 23.0839C125.168 22.2417 126.059 21.7959 127.147 21.7959C128.236 21.7959 129.126 22.2417 129.769 23.0839C130.413 23.9261 130.759 25.0654 130.759 26.403C130.759 27.7901 130.413 28.9294 129.769 29.8211C129.126 30.7128 128.236 31.1091 127.147 31.1091C126.059 31.1091 125.168 30.6633 124.476 29.8211C123.882 28.9294 123.536 27.7901 123.536 26.403ZM125.168 26.403C125.168 27.3937 125.366 28.1864 125.713 28.7808C126.059 29.3753 126.554 29.6725 127.197 29.6725C127.84 29.6725 128.335 29.3753 128.681 28.7808C129.027 28.1864 129.225 27.3937 129.225 26.403C129.225 25.4122 129.027 24.6691 128.681 24.1242C128.335 23.5793 127.84 23.2821 127.197 23.2821C126.554 23.2821 126.059 23.5793 125.713 24.1242C125.317 24.6691 125.168 25.4122 125.168 26.403Z" fill="#FFFEF5"/>
<path d="M133.53 30.9613H132.045V21.9453H133.678L136.003 27.0478C136.102 27.2955 136.251 27.6422 136.399 28.1872L136.449 28.4349H136.498C136.449 27.8899 136.399 27.4441 136.399 27.0478V21.9453H137.834V31.0109H136.201L133.876 25.8589C133.777 25.6112 133.629 25.2149 133.48 24.7195L133.431 24.5213H133.381C133.431 25.0662 133.48 25.5121 133.48 25.9084V30.9613H133.53Z" fill="#FFFEF5"/>
<path d="M141.05 21.9453H139.516V31.0109H141.05V21.9453Z" fill="#FFFEF5"/>
<path d="M142.335 26.403C142.335 25.0654 142.682 23.9261 143.325 23.0839C143.968 22.2417 144.859 21.7959 145.947 21.7959C147.035 21.7959 147.926 22.2417 148.569 23.0839C149.212 23.9261 149.559 25.0654 149.559 26.403C149.559 27.7901 149.212 28.9294 148.569 29.8211C147.926 30.7128 147.035 31.1091 145.947 31.1091C144.859 31.1091 143.968 30.6633 143.275 29.8211C142.682 28.9294 142.335 27.7901 142.335 26.403ZM143.919 26.403C143.919 27.3937 144.116 28.1864 144.463 28.7808C144.809 29.3753 145.304 29.6725 145.947 29.6725C146.59 29.6725 147.085 29.3753 147.431 28.7808C147.778 28.1864 147.975 27.3937 147.975 26.403C147.975 25.4122 147.778 24.6691 147.431 24.1242C147.085 23.5793 146.59 23.2821 145.947 23.2821C145.304 23.2821 144.809 23.5793 144.463 24.1242C144.116 24.6691 143.919 25.4122 143.919 26.403Z" fill="#FFFEF5"/>
<path d="M156.93 21.7959C157.821 21.7959 158.563 22.0436 159.107 22.539L158.464 23.8765C158.315 23.6784 158.068 23.5297 157.821 23.4307C157.524 23.3316 157.276 23.2325 156.98 23.2325C156.237 23.2325 155.644 23.5297 155.198 24.1242C154.753 24.7187 154.555 25.4617 154.555 26.3534C154.555 27.2947 154.753 28.0377 155.198 28.6817C155.644 29.3257 156.237 29.623 156.93 29.623C157.524 29.623 158.068 29.4248 158.612 28.979L159.255 30.267C158.612 30.8119 157.771 31.0596 156.831 31.0596C155.644 31.0596 154.704 30.6137 154.011 29.7716C153.318 28.8799 152.972 27.7901 152.972 26.403C152.972 25.0159 153.318 23.9261 154.011 23.0344C154.753 22.1922 155.743 21.7959 156.93 21.7959Z" fill="#FFFEF5"/>
<path d="M160.245 28.0385V21.9453H161.779V28.0385C161.779 29.1284 162.224 29.6733 163.115 29.6733C164.005 29.6733 164.45 29.1284 164.45 28.0385V21.9453H165.984V28.0881C165.984 29.0293 165.737 29.7724 165.192 30.3173C164.648 30.8622 163.956 31.1595 163.115 31.1595C162.224 31.1595 161.531 30.9118 160.987 30.3669C160.492 29.7724 160.245 29.0293 160.245 28.0385Z" fill="#FFFEF5"/>
<path d="M172.02 30.9613H167.567V21.9453H169.101V29.6238H172.02V30.9613Z" fill="#FFFEF5"/>
<path d="M174.989 30.9613H173.455V23.3324H171.278V21.9453H177.166V23.3324H174.989V30.9613Z" fill="#FFFEF5"/>
<path d="M178.056 28.0385V21.9453H179.59V28.0385C179.59 29.1284 180.035 29.6733 180.926 29.6733C181.816 29.6733 182.261 29.1284 182.261 28.0385V21.9453H183.795V28.0881C183.795 29.0293 183.548 29.7724 183.004 30.3173C182.459 30.8622 181.767 31.1595 180.926 31.1595C180.035 31.1595 179.342 30.9118 178.798 30.3669C178.353 29.7724 178.056 29.0293 178.056 28.0385Z" fill="#FFFEF5"/>
<path d="M186.961 30.9613H185.427V21.9453H188.049C188.495 21.9453 188.89 22.0444 189.237 22.2425C189.633 22.4407 189.979 22.7379 190.226 23.1838C190.474 23.5801 190.573 24.0755 190.573 24.6699C190.573 25.2149 190.474 25.7102 190.226 26.1561C189.979 26.6019 189.682 26.9487 189.286 27.1469V27.1964C189.385 27.345 189.484 27.4936 189.534 27.6918L191.018 31.0604H189.336L187.95 27.6918H186.961V30.9613ZM186.961 23.3324V26.2552H187.802C188.148 26.2552 188.445 26.1065 188.643 25.8589C188.89 25.6112 188.989 25.2149 188.989 24.769C188.989 24.2241 188.841 23.8278 188.495 23.5801C188.297 23.4315 188.049 23.3819 187.802 23.3819H186.961V23.3324Z" fill="#FFFEF5"/>
<path d="M192.75 30.9611H191.216L193.591 21.8955H195.273L197.648 30.9611H196.114L195.57 28.6327H193.344L192.75 30.9611ZM194.135 24.9174L193.542 27.3447H195.273L194.679 24.9174L194.432 23.5303C194.333 24.0257 194.234 24.521 194.135 24.9174Z" fill="#FFFEF5"/>
<path d="M202.991 30.9613H198.538V21.9453H200.072V29.6238H202.991V30.9613Z" fill="#FFFEF5"/>
<path d="M78.9599 0.792969H78.0693V36.0148H78.9599V0.792969Z" fill="#FFFEF5"/>
</g>
<g clip-path="url(#clip1)">
<path d="M261.627 1.71582H257.67C257.595 1.71582 257.446 1.78987 257.446 1.86392L254.907 11.8609L252.369 1.86392C252.369 1.78987 252.294 1.71582 252.219 1.71582H248.337C248.262 1.71582 248.188 1.71582 248.188 1.86392V19.1179C248.188 19.1919 248.262 19.266 248.337 19.266H250.95C251.025 19.266 251.099 19.1919 251.099 19.1179V11.7868L252.742 19.1179C252.742 19.1919 252.817 19.266 252.966 19.266H255.803C255.878 19.266 255.953 19.1919 256.027 19.1179L257.67 11.7868V19.1179C257.67 19.1919 257.745 19.266 257.819 19.266H261.627C261.702 19.266 261.777 19.1919 261.777 19.1179V1.86392C261.777 1.71582 261.777 1.71582 261.627 1.71582Z" fill="#FFFEF5"/>
<path d="M269.168 19.7103C271.856 19.7103 274.32 18.7476 274.32 15.2672V1.86392C274.32 1.78987 274.246 1.71582 274.171 1.71582H271.259C271.184 1.71582 271.11 1.78987 271.11 1.86392V14.8229C271.11 16.452 270.512 16.8223 269.616 16.8223C268.72 16.8223 268.123 16.378 268.123 14.8229V1.86392C268.123 1.78987 268.048 1.71582 267.974 1.71582H264.091C264.017 1.71582 263.942 1.78987 263.942 1.86392V15.2672C263.942 18.7476 266.406 19.7103 269.168 19.7103Z" fill="#FFFEF5"/>
<path d="M281.713 19.7103C284.774 19.7103 287.462 18.1552 287.462 14.5267C287.537 8.97283 280.294 7.93611 280.294 5.56646C280.294 4.6038 280.891 4.15949 281.713 4.15949C282.534 4.15949 283.206 4.7519 283.281 6.15887C283.281 6.23293 283.355 6.23293 283.43 6.23293L286.939 5.41836C287.014 5.41836 287.014 5.41836 287.014 5.27026C286.641 2.45631 284.55 1.27148 281.713 1.27148C278.875 1.27148 276.486 2.67846 276.486 5.93672C276.486 10.9722 283.355 11.3425 283.355 14.7488C283.355 16.2299 282.758 16.8223 281.713 16.8223C280.742 16.8223 280.145 16.378 280.07 14.7488C280.07 14.6748 280.07 14.6007 279.921 14.6007L276.187 15.4893C276.113 15.4893 276.113 15.5634 276.113 15.6375C276.337 18.1552 278.203 19.7103 281.713 19.7103Z" fill="#FFFEF5"/>
<path d="M299.184 19.1179V16.5261C299.184 16.452 299.109 16.378 299.035 16.378H293.584V11.0463H298.288C298.363 11.0463 298.437 10.9722 298.437 10.8982V8.38044C298.437 8.30639 298.363 8.23234 298.288 8.23234H293.584V4.52977H299.035C299.109 4.52977 299.184 4.45572 299.184 4.38167V1.86392C299.184 1.78987 299.109 1.71582 299.035 1.71582H289.627C289.552 1.71582 289.478 1.78987 289.478 1.86392V19.1179C289.478 19.1919 289.552 19.266 289.627 19.266H299.035C299.109 19.266 299.184 19.1919 299.184 19.1179Z" fill="#FFFEF5"/>
<path d="M306.949 19.7103C309.562 19.7103 312.624 18.8217 312.624 14.8229V6.15887C312.624 2.1601 309.562 1.27148 306.949 1.27148C304.336 1.27148 301.274 2.1601 301.274 6.15887V14.8229C301.274 18.8217 304.336 19.7103 306.949 19.7103ZM305.456 6.15887C305.456 4.52974 306.053 4.15949 306.949 4.15949C307.845 4.15949 308.442 4.52974 308.442 6.15887V14.8229C308.442 16.452 307.845 16.8223 306.949 16.8223C306.053 16.8223 305.456 16.452 305.456 14.8229V6.15887Z" fill="#FFFEF5"/>
<path d="M257.222 30.8917C258.342 30.2253 259.238 29.0404 259.238 26.967C259.238 23.7828 257.222 22.3018 254.31 22.3018H248.337C248.262 22.3018 248.188 22.3758 248.188 22.4499V41.333C248.188 41.407 248.262 41.4811 248.337 41.4811H254.161C257.969 41.4811 259.985 40.2222 259.985 36.6677V35.3348C259.985 32.669 258.79 31.4101 257.222 30.8917ZM252.742 25.486H253.489C254.385 25.486 254.982 25.9303 254.982 27.4854C254.982 29.0404 254.385 29.4847 253.489 29.4847H252.742V25.486ZM255.43 36.2234C255.43 37.9266 254.758 38.445 253.787 38.445H252.742V32.669H253.862C254.833 32.669 255.505 33.1873 255.505 34.8905V36.2234H255.43Z" fill="#FFFEF5"/>
<path d="M268.198 21.8584C265.36 21.8584 262 22.8211 262 27.1901V36.6687C262 41.0377 265.36 42.0004 268.198 42.0004C271.035 42.0004 274.395 41.0377 274.395 36.6687V27.1901C274.395 22.8211 271.035 21.8584 268.198 21.8584ZM269.84 36.6687C269.84 38.4459 269.168 38.8902 268.198 38.8902C267.227 38.8902 266.555 38.4459 266.555 36.6687V27.1901C266.555 25.4129 267.227 24.9686 268.198 24.9686C269.168 24.9686 269.84 25.4129 269.84 27.1901V36.6687Z" fill="#FFFEF5"/>
<path d="M283.057 21.8584C279.921 21.8584 276.859 22.9692 276.859 27.2642V36.6687C276.859 40.9637 279.921 42.0744 283.057 42.0744C285.222 42.0744 287.761 41.408 289.105 39.8529C289.105 39.7788 289.179 39.7788 289.179 39.6307V30.5224C289.179 30.4484 289.105 30.3743 289.03 30.3743H282.982C282.907 30.3743 282.833 30.4484 282.833 30.5224V33.3364C282.833 33.4104 282.907 33.4845 282.982 33.4845H284.699V38.4459C284.251 38.7421 283.803 38.8902 283.131 38.8902C282.161 38.8902 281.489 38.3719 281.489 36.6687V27.2642C281.489 25.4869 282.161 25.0426 283.206 25.0426C284.326 25.0426 284.998 25.7091 284.998 27.3382C284.998 27.4123 285.073 27.4863 285.147 27.4863L289.179 26.5236C289.254 26.5236 289.328 26.4496 289.328 26.3015C288.731 22.673 285.67 21.8584 283.057 21.8584Z" fill="#FFFEF5"/>
<path d="M297.616 21.8584C294.779 21.8584 291.419 22.8211 291.419 27.1901V36.6687C291.419 41.0377 294.779 42.0004 297.616 42.0004C300.453 42.0004 303.813 41.0377 303.813 36.6687V27.1901C303.813 22.8211 300.453 21.8584 297.616 21.8584ZM299.259 36.6687C299.259 38.4459 298.587 38.8902 297.616 38.8902C296.646 38.8902 295.974 38.4459 295.974 36.6687V27.1901C295.974 25.4129 296.646 24.9686 297.616 24.9686C298.587 24.9686 299.259 25.4129 299.259 27.1901V36.6687Z" fill="#FFFEF5"/>
<path d="M318.373 25.339V22.5251C318.373 22.451 318.298 22.377 318.224 22.377H305.456C305.381 22.377 305.307 22.451 305.307 22.5251V25.339C305.307 25.4131 305.381 25.4871 305.456 25.4871H309.563V41.4082C309.563 41.4822 309.637 41.5563 309.712 41.5563H313.893C313.968 41.5563 314.043 41.4822 314.043 41.4082V25.4871H318.149C318.298 25.4871 318.373 25.4131 318.373 25.339Z" fill="#FFFEF5"/>
<path d="M325.691 22.377H322.48C322.405 22.377 322.405 22.377 322.331 22.451L317.253 41.3341C317.253 41.4822 317.328 41.4822 317.477 41.4822H320.464C320.539 41.4822 320.613 41.4822 320.613 41.4082L321.285 39.1126H325.691L326.363 41.4082C326.363 41.4822 326.437 41.4822 326.512 41.4822H330.768C330.843 41.4822 330.917 41.4822 330.917 41.3341L325.84 22.451C325.84 22.377 325.765 22.377 325.691 22.377ZM322.032 36.0024L323.451 30.5967L324.869 36.0024H322.032Z" fill="#FFFEF5"/>
<path d="M316.88 15.1929L319.941 14.6005C321.733 14.3043 323.45 13.3416 323.376 10.8979V6.01055C323.376 3.56686 321.584 3.27065 319.792 3.56686L316.805 4.08522C316.73 4.08522 316.73 4.15927 316.73 4.15927V14.9708C316.73 15.1189 316.805 15.1929 316.88 15.1929ZM319.045 5.64029C319.045 5.56624 319.045 5.56624 319.12 5.56624L320.09 5.41814C320.613 5.34409 321.061 5.49219 321.136 6.52891V11.3422C321.136 12.379 320.762 12.6752 320.24 12.7492L319.194 12.8973C319.12 12.8973 319.045 12.8233 319.045 12.8233V5.64029Z" fill="#FFFEF5"/>
<path d="M324.794 13.6379L330.842 12.5272C330.842 12.5272 330.917 12.5272 330.917 12.4531C330.917 12.2309 330.917 11.1202 330.917 10.824C330.917 10.7499 330.917 10.7499 330.842 10.7499L327.258 11.4164C327.184 11.4164 327.184 11.4164 327.184 11.3423V8.15812C327.184 8.15812 327.184 8.08407 327.258 8.08407L330.394 7.49166C330.394 7.49166 330.469 7.49166 330.469 7.41761V5.71443C330.469 5.64038 330.469 5.64038 330.394 5.64038L327.333 6.23279C327.258 6.23279 327.258 6.23279 327.258 6.15873V4.0853C327.258 4.0853 327.258 4.01125 327.333 4.01125L330.917 3.34478C330.917 3.34478 330.992 3.34478 330.992 3.27073V1.71565C330.992 1.6416 330.992 1.6416 330.917 1.6416L324.869 2.75237C324.869 2.75237 324.794 2.75237 324.794 2.82642V13.4898C324.72 13.5639 324.794 13.6379 324.794 13.6379Z" fill="#FFFEF5"/>
<path d="M322.853 20.6735C322.853 20.7475 322.928 20.7475 322.928 20.7475H324.645C324.72 20.7475 324.869 20.7475 324.869 20.5994L327.109 16.3044L330.768 15.638C330.843 15.638 330.843 15.5639 330.843 15.4899V13.9348C330.843 13.8608 330.768 13.7867 330.693 13.8608L316.731 16.4525C316.656 16.4525 316.656 16.5266 316.656 16.6007V18.1557C316.656 18.2298 316.731 18.3038 316.806 18.3038L323.824 17.045L322.853 20.6735C322.853 20.6735 322.853 20.5994 322.853 20.6735Z" fill="#FFFEF5"/>
</g>
<defs>
<clipPath id="clip0">
<rect width="202.991" height="36.0145" fill="white"/>
</clipPath>
<clipPath id="clip1">
<rect width="82.7293" height="40.7282" fill="white" transform="translate(248.188 1.27148)"/>
</clipPath>
</defs>
</svg>
