<svg width="57" height="57" viewBox="0 0 57 57" fill="none" xmlns="http://www.w3.org/2000/svg">
<path d="M1.96988 28.2652C1.96988 13.4833 13.953 1.50016 28.7349 1.50016C43.5169 1.50016 55.5 13.4833 55.5 28.2652C55.5 43.0471 43.5169 55.0303 28.7349 55.0303C13.953 55.0303 1.96988 43.0471 1.96988 28.2652Z" stroke="white" stroke-width="3"/>
<path d="M35.3855 26.2651C34.2809 26.2651 33.3855 27.1606 33.3855 28.2651C33.3855 29.3697 34.2809 30.2651 35.3855 30.2651L35.3855 26.2651ZM37.631 29.6793C38.4121 28.8983 38.4121 27.632 37.631 26.8509L24.903 14.123C24.122 13.342 22.8557 13.342 22.0746 14.1231C21.2936 14.9041 21.2936 16.1704 22.0746 16.9515L33.3884 28.2651L22.0747 39.5789C21.2937 40.3599 21.2937 41.6263 22.0747 42.4073C22.8558 43.1884 24.1221 43.1884 24.9031 42.4073L37.631 29.6793ZM35.3855 30.2651L36.2168 30.2651L36.2168 26.2651L35.3855 26.2651L35.3855 30.2651Z" fill="white"/>
</svg>
