<svg width="55" height="32" viewBox="0 0 55 32" fill="none" xmlns="http://www.w3.org/2000/svg">
<path d="M53.8437 15.0099C28.0574 -11.8227 9.02866 3.32396 0.372149 15.0498C-0.14593 15.7516 -0.116902 16.7288 0.420612 17.4156C19.9236 42.3372 43.8152 30.4013 54.0012 17.5602C54.6006 16.8044 54.5118 15.7051 53.8437 15.0099Z" fill="#F8DD74"/>
<path d="M35.4801 15.4212C35.4801 19.9933 31.7736 23.6998 27.2015 23.6998C22.6293 23.6998 18.9229 19.9933 18.9229 15.4212C18.9229 10.849 22.6293 7.14258 27.2015 7.14258C31.7736 7.14258 35.4801 10.849 35.4801 15.4212Z" fill="#292929"/>
<path d="M27.2015 10.0993C27.2015 12.3853 25.3482 14.2386 23.0622 14.2386C20.7761 14.2386 18.9229 12.3853 18.9229 10.0993C18.9229 7.81319 20.7761 5.95996 23.0622 5.95996C25.3482 5.95996 27.2015 7.81319 27.2015 10.0993Z" fill="#FFFEF5"/>
</svg>
