<svg width="61" height="37" viewBox="0 0 61 37" fill="none" xmlns="http://www.w3.org/2000/svg">
<path d="M58.2398 17.6289C31.306 -10.3978 11.4305 5.42292 2.38871 17.6706C1.84758 18.4036 1.8779 19.4243 2.43933 20.1417C22.8102 46.1723 47.7651 33.7052 58.4043 20.2927C59.0305 19.5033 58.9377 18.355 58.2398 17.6289Z" fill="white" stroke="#DA8D24" stroke-width="2"/>
<path d="M39.0582 18.0586C39.0582 22.8342 35.1868 26.7057 30.4112 26.7057C25.6356 26.7057 21.7642 22.8342 21.7642 18.0586C21.7642 13.283 25.6356 9.41162 30.4112 9.41162C35.1868 9.41162 39.0582 13.283 39.0582 18.0586Z" fill="#15263D"/>
<path d="M30.4112 12.4998C30.4112 14.8876 28.4755 16.8233 26.0877 16.8233C23.6999 16.8233 21.7642 14.8876 21.7642 12.4998C21.7642 10.112 23.6999 8.17627 26.0877 8.17627C28.4755 8.17627 30.4112 10.112 30.4112 12.4998Z" fill="white"/>
</svg>
