<svg width="104" height="63" viewBox="0 0 104 63" fill="none" xmlns="http://www.w3.org/2000/svg">
<path d="M101.345 29.4817C53.9846 -19.8001 19.0356 8.01883 3.13663 29.555C2.1851 30.8439 2.23842 32.6387 3.22564 33.9002C39.0457 79.6722 82.9261 57.7502 101.634 34.1657C102.735 32.7777 102.572 30.7586 101.345 29.4817Z" fill="white" stroke="#DA8D24" stroke-width="3"/>
<path d="M67.6157 30.2376C67.6157 38.635 60.8083 45.4424 52.4109 45.4424C44.0135 45.4424 37.2061 38.635 37.2061 30.2376C37.2061 21.8402 44.0135 15.0327 52.4109 15.0327C60.8083 15.0327 67.6157 21.8402 67.6157 30.2376Z" fill="#15263D"/>
<path d="M52.4109 20.4628C52.4109 24.6615 49.0072 28.0652 44.8085 28.0652C40.6098 28.0652 37.2061 24.6615 37.2061 20.4628C37.2061 16.2641 40.6098 12.8604 44.8085 12.8604C49.0072 12.8604 52.4109 16.2641 52.4109 20.4628Z" fill="white"/>
</svg>
