<svg width="23" height="173" viewBox="0 0 23 173" fill="none" xmlns="http://www.w3.org/2000/svg">
<path d="M7.78 155.82C9.9 155.82 11.58 156.73 12.82 158.55C14.04 160.35 14.69 162.99 14.77 166.47L20.92 166.47L20.95 163.2L22 163.2L22 172.92L20.95 172.92L20.92 171.45L2.98 171.45L2.95 172.92L1.9 172.92L1.96 167.13L1.75 162.66C1.75 161.22 2.02 159.99 2.56 158.97C3.1 157.93 3.83 157.15 4.75 156.63C5.67 156.09 6.68 155.82 7.78 155.82ZM8.65 161.16C7.59 161.16 6.63 161.39 5.77 161.85C4.89 162.31 4.2 162.95 3.7 163.77C3.2 164.57 2.95 165.47 2.95 166.47L13.6 166.47C13.5 164.81 13.02 163.51 12.16 162.57C11.28 161.63 10.11 161.16 8.65 161.16ZM12.61 147.595L21.04 147.715L21.13 145.045L22 145.045L22 153.055L21.13 153.055L21.04 151.945L10.3 152.035L10.57 153.175L9.67 153.475L8.2 148.735L11.41 147.715C10.07 147.055 9.03 146.335 8.29 145.555C8.13 145.115 8.05 144.585 8.05 143.965C8.05 143.125 8.2 142.335 8.5 141.595L12.4 142.555C12.28 143.135 12.17 143.875 12.07 144.775C11.97 145.675 11.9 146.415 11.86 146.995L12.61 147.595ZM8.05 133.556C8.05 131.796 8.69 130.416 9.97 129.416C11.23 128.396 12.94 127.896 15.1 127.916L15.37 136.196C16.55 136.056 17.45 135.646 18.07 134.966C18.69 134.286 19 133.386 19 132.266C19 130.706 18.57 129.436 17.71 128.456L18.19 127.916C19.53 128.616 20.58 129.566 21.34 130.766C22.08 131.946 22.45 133.206 22.45 134.546C22.45 136.366 21.85 137.816 20.65 138.896C19.43 139.956 17.79 140.486 15.73 140.486C14.51 140.486 13.3 140.246 12.1 139.766C10.9 139.266 9.9 138.636 9.1 137.876C8.8 137.356 8.55 136.686 8.35 135.866C8.15 135.046 8.05 134.276 8.05 133.556ZM14.11 132.356C12.71 132.376 11.6 132.576 10.78 132.956C9.96 133.336 9.47 133.876 9.31 134.576C9.83 135.076 10.56 135.486 11.5 135.806C12.42 136.106 13.37 136.256 14.35 136.256L14.44 136.256L14.11 132.356ZM10.75 121.011C11.29 121.011 11.78 120.801 12.22 120.381C12.66 119.941 13.18 119.281 13.78 118.401C14.52 117.321 15.19 116.501 15.79 115.941C16.39 115.381 17.13 115.101 18.01 115.101C18.79 115.101 19.52 115.331 20.2 115.791C20.88 116.251 21.43 116.901 21.85 117.741C22.25 118.581 22.45 119.541 22.45 120.621C22.45 121.661 22.2 122.651 21.7 123.591C21.2 124.511 20.56 125.191 19.78 125.631L17.71 123.051C19.21 122.251 20.44 121.431 21.4 120.591C21.14 120.251 20.84 119.971 20.5 119.751C20.14 119.511 19.79 119.391 19.45 119.391C18.89 119.391 18.41 119.601 18.01 120.021C17.59 120.421 17.09 121.051 16.51 121.911C16.05 122.611 15.65 123.171 15.31 123.591C14.97 124.011 14.56 124.371 14.08 124.671C13.6 124.951 13.06 125.091 12.46 125.091C11.72 125.091 11.01 124.851 10.33 124.371C9.65 123.871 9.1 123.181 8.68 122.301C8.26 121.421 8.05 120.421 8.05 119.301C8.05 118.441 8.24 117.631 8.62 116.871C8.98 116.091 9.44 115.461 10 114.981L12.31 117.321C11.09 118.281 10 119.341 9.04 120.501C9.48 120.841 10.05 121.011 10.75 121.011ZM22 122.001L22 121.971L22 122.001ZM8.05 105.478C8.05 103.718 8.69 102.338 9.97 101.338C11.23 100.318 12.94 99.8184 15.1 99.8384L15.37 108.118C16.55 107.978 17.45 107.568 18.07 106.888C18.69 106.208 19 105.308 19 104.188C19 102.628 18.57 101.358 17.71 100.378L18.19 99.8384C19.53 100.538 20.58 101.488 21.34 102.688C22.08 103.868 22.45 105.128 22.45 106.468C22.45 108.288 21.85 109.738 20.65 110.818C19.43 111.878 17.79 112.408 15.73 112.408C14.51 112.408 13.3 112.168 12.1 111.688C10.9 111.188 9.9 110.558 9.1 109.798C8.8 109.278 8.55 108.608 8.35 107.788C8.15 106.968 8.05 106.198 8.05 105.478ZM14.11 104.278C12.71 104.298 11.6 104.498 10.78 104.878C9.96 105.258 9.47 105.798 9.31 106.498C9.83 106.998 10.56 107.408 11.5 107.728C12.42 108.028 13.37 108.178 14.35 108.178L14.44 108.178L14.11 104.278ZM21.13 82.9362L22 82.9362L22 89.3562L21.13 89.3562L21.04 88.2462L14.71 88.2462C13.83 88.2462 13.15 88.4962 12.67 88.9962C12.19 89.4762 11.94 90.1462 11.92 91.0062L12.91 91.9662L21.04 92.0862L21.13 90.9762L22 90.9762L22 97.4262L21.13 97.4262L21.04 96.3162L10.3 96.4062L10.57 97.5462L9.67 97.8462L8.2 93.1062L11.56 92.0562L7.99 89.5662C7.99 87.6662 8.44 86.2662 9.34 85.3662C10.24 84.4662 11.63 84.0162 13.51 84.0162L21.04 84.0162L21.13 82.9362ZM19.63 71.3346L22.27 74.9946C22.27 76.4746 21.91 77.5546 21.19 78.2346C20.45 78.8946 19.27 79.2246 17.65 79.2246L9.67 79.2246L9.67 81.2346L8.71 81.2346C8.25 80.3946 7.6 79.4846 6.76 78.5046C5.9 77.5046 5 76.5946 4.05999 75.7746L4.36 74.7846L8.5 74.9346L8.49999 71.4246L9.75999 71.4246L9.69999 74.9946L16.6 74.9946C17.56 74.9946 18.26 74.8146 18.7 74.4546C19.14 74.0746 19.36 73.5746 19.36 72.9546L18.73 71.8446L19.63 71.3346ZM20.44 56.9979L22.51 61.4079C22.13 61.9479 21.61 62.3179 20.95 62.5179C21.39 63.2379 21.75 63.9679 22.03 64.7079C22.31 65.4279 22.45 66.0579 22.45 66.5979C22.45 67.4179 22.16 68.0879 21.58 68.6079C21 69.1279 20.26 69.3879 19.36 69.3879C18.96 69.3879 18.53 69.3479 18.07 69.2679C17.59 69.1679 17.21 69.0479 16.93 68.9079L15.91 62.5479L15.04 62.4879C14.14 62.4479 13.44 62.6379 12.94 63.0579C12.42 63.4779 12.16 64.1579 12.16 65.0979C12.16 65.5179 12.21 65.9579 12.31 66.4179C12.39 66.8779 12.5 67.2679 12.64 67.5879L13.66 68.0679L13.36 68.8779L9.04 67.4979C8.37999 65.9579 8.04999 64.4979 8.04999 63.1179C8.04999 61.6979 8.42999 60.5379 9.18999 59.6379C9.92999 58.7379 11.1 58.2879 12.7 58.2879L13.3 58.3179L17.35 58.6179L18.43 58.6779C18.79 58.6779 19.08 58.6479 19.3 58.5879C19.5 58.5279 19.71 58.4279 19.93 58.2879L19.57 57.3579L20.44 56.9979ZM20.29 63.8079C20.29 63.4879 20.17 63.1179 19.93 62.6979L19.3 62.7279L18.64 62.6979L16.93 62.6079L17.47 64.9179C17.73 64.9979 18.08 65.0379 18.52 65.0379C19.12 65.0379 19.57 64.9179 19.87 64.6779C20.15 64.4379 20.29 64.1479 20.29 63.8079ZM19 46.6859C19 45.4459 18.55 44.2359 17.65 43.0559L18.19 42.5759C19.47 43.3159 20.5 44.2459 21.28 45.3659C22.06 46.4659 22.45 47.6559 22.45 48.9359C22.45 50.7359 21.85 52.1759 20.65 53.2559C19.43 54.3159 17.79 54.8459 15.73 54.8459C14.51 54.8459 13.3 54.5959 12.1 54.0959C10.9 53.5959 9.89999 52.9559 9.09999 52.1759C8.75999 51.4959 8.49999 50.7859 8.31999 50.0459C8.13999 49.3059 8.04999 48.5959 8.04999 47.9159C8.04999 46.7359 8.36999 45.6859 9.00999 44.7659C9.64999 43.8459 10.58 43.1059 11.8 42.5459L13.81 45.9959C12.91 46.3159 12 46.7459 11.08 47.2859C10.16 47.8259 9.52999 48.2959 9.18999 48.6959C9.68999 49.2159 10.42 49.6659 11.38 50.0459C12.32 50.4059 13.29 50.5859 14.29 50.5859C15.83 50.5859 17 50.2459 17.8 49.5659C18.6 48.8859 19 47.9259 19 46.6859ZM2.16999 39.0975L1.29999 35.2575L4.71999 35.2575L5.28999 39.0975L2.16999 39.0975ZM21.04 34.9575L21.13 33.8475L22 33.8475L22 40.2975L21.13 40.2975L21.04 39.1875L10.36 39.2775L10.6 40.4175L9.72999 40.7175L8.04999 35.2875L8.76999 34.8675L21.04 34.9575ZM8.04999 24.263C8.04999 22.263 8.63999 20.653 9.81999 19.433C11 18.213 12.68 17.603 14.86 17.603C15.8 17.603 16.77 17.773 17.77 18.113C18.77 18.433 19.65 18.913 20.41 19.553C21.03 20.193 21.53 20.943 21.91 21.803C22.27 22.643 22.45 23.533 22.45 24.473C22.45 26.473 21.86 28.083 20.68 29.303C19.5 30.523 17.82 31.133 15.64 31.133C14.72 31.133 13.76 30.963 12.76 30.623C11.76 30.283 10.88 29.793 10.12 29.153C9.49999 28.513 8.99999 27.773 8.61999 26.933C8.23999 26.073 8.04999 25.183 8.04999 24.263ZM14.2 26.813C16.1 26.813 17.52 26.443 18.46 25.703C19.4 24.943 19.96 23.833 20.14 22.373C19.54 22.233 18.87 22.123 18.13 22.043C17.39 21.963 16.78 21.923 16.3 21.923C14.38 21.923 12.96 22.303 12.04 23.063C11.1 23.803 10.54 24.893 10.36 26.333C10.98 26.473 11.66 26.593 12.4 26.693C13.14 26.773 13.74 26.813 14.2 26.813ZM5.73999 25.973L0.549992 22.103L2.25999 20.453L6.72999 25.133L5.73999 25.973ZM21.13 0.635389L22 0.635389L22 7.05539L21.13 7.05539L21.04 5.94539L14.71 5.94539C13.83 5.94539 13.15 6.19539 12.67 6.69539C12.19 7.17539 11.94 7.84539 11.92 8.70539L12.91 9.66539L21.04 9.78539L21.13 8.67539L22 8.67539L22 15.1254L21.13 15.1254L21.04 14.0154L10.3 14.1054L10.57 15.2454L9.66999 15.5454L8.19999 10.8054L11.56 9.75539L7.98999 7.26539C7.98999 5.36539 8.43999 3.96539 9.33999 3.06539C10.24 2.16539 11.63 1.71539 13.51 1.71539L21.04 1.71539L21.13 0.635389Z" fill="#FFFEF5"/>
</svg>
