<svg width="112" height="48" viewBox="0 0 112 48" fill="none" xmlns="http://www.w3.org/2000/svg">
<path d="M87.5 0L88.9639 14.9457L95.0709 1.17464L91.7485 15.832L101.901 4.58359L94.1172 17.5178L107.321 9.89315L95.8382 19.8382L110.801 16.5836L96.743 22.5659L112 24L96.743 25.4341L110.801 31.4164L95.8382 28.1618L107.321 38.1068L94.1172 30.4822L101.901 43.4164L91.7485 32.168L95.0709 46.8254L88.9639 33.0543L87.5 48L86.0361 33.0543L79.9291 46.8254L83.2515 32.168L73.0993 43.4164L80.8828 30.4822L67.6791 38.1068L79.1618 28.1618L64.1991 31.4164L78.257 25.4341L63 24L78.257 22.5659L64.1991 16.5836L79.1618 19.8382L67.6791 9.89315L80.8828 17.5178L73.0993 4.58359L83.2515 15.832L79.9291 1.17464L86.0361 14.9457L87.5 0Z" fill="#DA8D24"/>
<circle cx="19.7436" cy="24.3588" r="19.7436" fill="#DA8D24"/>
<circle cx="30.5129" cy="24.3588" r="19.7436" fill="#15263D"/>
</svg>
